<?xml version="1.0" encoding="utf-8"?>
<!-- Generator: Adobe Illustrator 23.0.3, SVG Export Plug-In . SVG Version: 6.00 Build 0)  -->
<svg version="1.1" xmlns="http://www.w3.org/2000/svg" xmlns:xlink="http://www.w3.org/1999/xlink" x="0px" y="0px"
	 viewBox="0 0 523.3 103" style="enable-background:new 0 0 523.3 103;" xml:space="preserve">
<style type="text/css">
	.st0{display:none;}
	.st1{display:inline;fill:#2E578C;}
	.st2{display:inline;}
	.st3{fill:#FFFFFF;}
	.st4{fill-rule:evenodd;clip-rule:evenodd;fill:#4580C2;}
	.st5{fill-rule:evenodd;clip-rule:evenodd;fill:#2E578C;}
	.st6{fill-rule:evenodd;clip-rule:evenodd;fill:#FBCE3B;}
	.st7{fill-rule:evenodd;clip-rule:evenodd;fill:#ECA93E;}
	.st8{fill-rule:evenodd;clip-rule:evenodd;fill:#EDB248;}
	.st9{fill:#F1F1F2;}
	.st10{fill-rule:evenodd;clip-rule:evenodd;fill:#F68B51;}
	.st11{fill-rule:evenodd;clip-rule:evenodd;fill:#F26A23;}
	.st12{fill-rule:evenodd;clip-rule:evenodd;fill:#C56428;}
	.st13{fill-rule:evenodd;clip-rule:evenodd;fill:#EBEEF2;}
	.st14{fill:#F68B51;}
	.st15{clip-path:url(#SVGID_2_);}
	.st16{fill:#2E578C;}
	.st17{clip-path:url(#SVGID_4_);}
	.st18{clip-path:url(#SVGID_6_);}
	.st19{fill:#EBEEF3;}
	.st20{clip-path:url(#SVGID_8_);}
	.st21{fill:#4580C2;}
	.st22{clip-path:url(#SVGID_10_);}
	.st23{clip-path:url(#SVGID_12_);}
	.st24{clip-path:url(#SVGID_14_);}
	.st25{fill-rule:evenodd;clip-rule:evenodd;}
	.st26{clip-path:url(#SVGID_16_);}
	.st27{clip-path:url(#SVGID_18_);}
	.st28{fill-rule:evenodd;clip-rule:evenodd;fill:#FFFFFF;}
	.st29{clip-path:url(#SVGID_20_);}
	.st30{clip-path:url(#SVGID_22_);}
	.st31{clip-path:url(#SVGID_24_);}
	.st32{display:inline;fill:#EBEEF3;}
	.st33{clip-path:url(#SVGID_26_);}
	.st34{clip-path:url(#SVGID_28_);}
	.st35{clip-path:url(#SVGID_30_);}
	.st36{display:inline;fill:#FFFFFF;}
	.st37{fill:#FBCE3B;}
	.st38{display:inline;fill:#F68B51;}
	.st39{clip-path:url(#SVGID_32_);}
	.st40{clip-path:url(#SVGID_34_);}
	.st41{clip-path:url(#SVGID_34_);fill:none;}
	.st42{clip-path:url(#SVGID_36_);}
	.st43{display:inline;fill:#FBCE3B;}
	.st44{fill:#F26A23;}
	.st45{fill:#EBEEF2;}
	.st46{fill:#ECA93E;}
	.st47{fill:#231F20;}
	.st48{fill:#40B186;}
	.st49{fill:#D94445;}
	.st50{fill:#ECA93F;}
	.st51{fill:#CDD8DF;}
	.st52{fill:#4A4A4A;}
	.st53{fill:#FF8C4E;}
	.st54{fill:#FF6A17;}
	.st55{fill:#4480C5;}
	.st56{fill:#2E578B;}
	.st57{clip-path:url(#SVGID_38_);}
	.st58{clip-path:url(#SVGID_40_);}
	.st59{clip-path:url(#SVGID_42_);}
	.st60{clip-path:url(#SVGID_44_);}
	.st61{clip-path:url(#SVGID_46_);}
	.st62{clip-path:url(#SVGID_48_);}
	.st63{clip-path:url(#SVGID_50_);}
	.st64{clip-path:url(#SVGID_52_);}
	.st65{clip-path:url(#SVGID_54_);}
	.st66{clip-path:url(#SVGID_56_);}
	.st67{clip-path:url(#SVGID_58_);}
	.st68{clip-path:url(#SVGID_60_);}
	.st69{clip-path:url(#SVGID_62_);}
	.st70{clip-path:url(#SVGID_64_);}
	.st71{clip-path:url(#SVGID_66_);}
	.st72{clip-path:url(#SVGID_68_);}
	.st73{clip-path:url(#SVGID_70_);}
	.st74{clip-path:url(#SVGID_72_);}
	.st75{clip-path:url(#SVGID_74_);}
	.st76{clip-path:url(#SVGID_76_);}
	.st77{clip-path:url(#SVGID_78_);}
	.st78{clip-path:url(#SVGID_80_);}
</style>
<g id="Unused">
</g>
<g id="Colors_1_">
</g>
<g id="Snappy">
</g>
<g id="HG-Logo-Update_Examples">
	<g id="Initials_copy">
	</g>
	<g id="Text_copy">
	</g>
	<g id="Head_copy">
	</g>
	<g id="Short_copy">
	</g>
	<g id="Default_copy">
	</g>
</g>
<g id="HG-Logo-Update">
	<g id="Initials_1_">
	</g>
	<g id="Text_1_">
	</g>
	<g id="Head_19_">
	</g>
	<g id="Short_1_">
	</g>
	<g id="Default_2_">
		<g id="Default-Default_1_">
			<g id="LightBlue_Snappy_68_">
				<g id="Back_Leg_61_">
					<path class="st4" d="M65.3,72.4c-2.4,2.4-4.9,5.6-7.3,7.9c1.2,6.1-1.1,8.9,1.6,11.1c1,0.8,7.1,2.5,10.4,0.5
						c0.1-3.2-1.7-4.1-3.5-5.3C64.7,82.5,65.4,76.4,65.3,72.4"/>
					<path class="st5" d="M66.7,92.8c-0.4-1.7-1.3-3.2-3.4-4c1.6,1.2,2.3,2.6,2.1,4.1C65.9,92.8,66.3,92.8,66.7,92.8z"/>
					<path class="st5" d="M69.6,92.2c-0.4-1.7-1.4-3.1-3.4-4c1.8,1.3,2.3,2.8,2.1,4.4C68.8,92.5,69.2,92.4,69.6,92.2z"/>
				</g>
				<g id="Back_Arm_52_">
					<path class="st4" d="M62.5,40.6c-1.3,1.8-1.8,5.7,8.2,11.3c0,0-4.2,7.3-5.5,8.6c-1.3,1.3-2.2,4.9-0.8,6.6
						c1.3,1.8,2.3,2.6,2.3,2.6s3.3,0.6,4.7-0.2c0,0,2.8-2.7,1-7.1c0,0,8.4-8.8,7.9-11.5C79.7,48.2,66.5,34.8,62.5,40.6z"/>
					<path class="st5" d="M72.3,62.4c0,0-3.4,2.8-4.3,3.3c0,0,1.6-0.5,2-0.9c0,0,1.5,1.9,0.4,3.4c0,0,2-1.2,0.7-3.9
						c0,0,1.1-1.4,1.3-1.8L72.3,62.4z"/>
				</g>
				<g id="Body_52_">
					<g id="Tail_Spines_40_">
						<path class="st4" d="M37.1,60.8c0,0.6-0.2,1.2-0.6,1.8c-0.6,0.9-0.9,0.8,0.5,1.6c0.9,0.5,2.1,0.8,3.4,1.1
							c2,0.3,1.6,0.1,0.7-1.8c-0.4-0.9-0.9-1.7-1.4-2.4C37.8,58.3,37.1,58.5,37.1,60.8"/>
						<path class="st4" d="M29.9,59.8c-0.7,1.4,0.4,1.6,1.8,2.1c0.5,0.2,1.1,0.3,1.7,0.4c1.6,0.2,1.2-0.1,0.5-1.4
							c-0.4-0.8-0.9-1.6-1.4-2.4C29.6,54.4,31,57.8,29.9,59.8"/>
						<path class="st4" d="M23.7,59.2c0,0.3,0,0.6,0,0.9c-0.1,1.1-0.2,0.9,1.2,1.1c0.7,0.1,1.3,0.1,1.9,0c1.8-0.3,1.1-0.9,0.2-1.9
							c-0.3-0.4-0.7-0.7-1.1-1C22.3,55.5,23.6,57.4,23.7,59.2"/>
					</g>
					<path class="st4" d="M47.5,19c0,0-10.2,5.3-10.1,6.9c0.1,1.7,2.9,1.4,4,3.7c0,0-6.2,4.3-5.8,6.3c0.4,2,4.4,1.3,5.4,2.8
						c0,0-1,3.9-0.1,5.4c0.9,1.4,0.8,0.2,2,2C43,46.2,42.3,31.5,47.5,19z"/>
					<path class="st4" d="M45.4,23.8c3.6,3.4,8.1,5.6,12.3,8.2c2.8,1.8,5.4,3.8,7.4,6.5c2.5,3.3,1.1,7.2,1.6,11.3
						c0.2,1.4,0.3,2.8,0.3,4.2c0.1,2.5,0,5.1-0.2,7.6c-0.6,6.1-0.9,11-5.2,15.5c-5.3,5.7-11,6.7-17.6,1.8c-2.6-1.9-4.6-2.8-6.6-5.2
						c-1.4-1.6-3.1-2.6-4.5-4.1c-1.7-1.7-4.3-3.9-6.6-4.7c-2.6-1-4.4,0.4-5.6,0.9c-0.7,0.3-1.6,0.9-2.3,0.3
						c-0.3-0.2-0.4-0.6-0.2-0.9c0.4-0.9,0.9-1.7,1.7-2.4c3.9-3.6,10.3-3.7,15-1.1c1.8,1,3.7,2,5.8,2.2c1.5,0.1,2.9-0.2,4.1-1.2
						c0.9-0.8,1.4-1.9,1.7-3.1c0.3-1.7,0.2-3.3-0.3-5c-0.8-2.3-2.2-4.4-3.1-6.7c-3.1-7.8-4-16.7,0.9-24l0.7-1L45.4,23.8z"/>
					<g>
						<path class="st6" d="M27.1,65.3c3.4,1.7,7.1,5.6,10.6,9.7c4.6,5.4,16.1,13.5,25.5,0.9c8.9-11.9,4.7-28.5,4.2-30.4
							c0-0.1,0-0.1-0.1-0.2c-0.3-0.4-8.2-10.5-15.5-12c-1.9,1.7-2.3,4.7,0.3,9.8c4.3,8.6,7.8,21.2,0.1,28.9C51,73,49.7,74,48.1,74.5
							c-5.5,1.8-8.4-1.5-11.8-4.7C33.4,67.1,30.3,65.8,27.1,65.3z"/>
						<path class="st7" d="M64.3,74.3c-2.2-0.3-6-1.1-9.2-3.8c0,0,2.3,4,8.1,5.3C63.6,75.4,63.9,74.9,64.3,74.3z"/>
						<path class="st7" d="M48.8,75.1c0,0,1.7,4,5.5,7.2c0.7-0.2,1.5-0.4,2.2-0.7C54.4,80.6,50.9,78.6,48.8,75.1z"/>
						<path class="st7" d="M37.1,74.4c0.2,0.2,0.4,0.4,0.6,0.7c0.1,0.1,0.2,0.2,0.3,0.3c-0.1-0.9-0.1-1.8,0.2-2.4
							C38.2,72.9,37.6,73.5,37.1,74.4z"/>
						<path class="st7" d="M41,78.2c0.4,0.3,0.8,0.6,1.2,0.9c-0.3-1.4-0.4-2.8,0-3.6C41.6,76.6,41.2,77.4,41,78.2z"/>
						<path class="st8" d="M33.5,70.4c0.3,0.3,0.6,0.6,0.9,0.9c0-0.6,0-1.2,0.2-1.9C34.6,69.4,34,69.8,33.5,70.4z"/>
						<path class="st7" d="M57.6,64c4.5-1.5,8.8-0.6,10.7,0c0.1-0.5,0.2-1,0.2-1.5C61.5,60.9,57.6,64,57.6,64z"/>
						<path class="st7" d="M68.7,53.1c-0.1-0.6-0.1-1.2-0.2-1.7c0,0,0,0,0,0c-7.4-0.2-11.2,3.4-11.2,3.4
							C61.7,52.3,66.4,52.7,68.7,53.1z"/>
						<path class="st7" d="M65.8,43.4c-0.3-0.3-0.6-0.7-1-1.1c-7.9,0-10,3.7-10,3.7C59.3,43.1,63.9,43.2,65.8,43.4z"/>
						<path class="st7" d="M68.6,51.9c-0.2-2.3-0.6-4.1-0.9-5.3c-0.2-0.1-0.4-0.2-0.6-0.4c-2.5-1.6-13.6-8.3-16.8-10.3
							c-0.1,0.5-0.1,0.9,0,1.5C53.7,42.2,61.4,50.3,68.6,51.9z"/>
					</g>
				</g>
				<g id="Front_Leg_61_">
					<path class="st4" d="M43.5,71.2c1.2-1.7,3.2-2.4,4.6-2.2c5.1,0.7,3.5,6.6,2.2,10.2c-1,2.8-1.4,6.3-1.4,7.9
						c0,3.5,1.3,4.5-0.3,5.9c-1.4,1.2-5.4,2.9-8.8,2.5c-2.8-0.6-2.9-6.4,1.6-7.9c1.2-2.7,1.2-5.5,1.1-8.3
						C42.4,77.2,42.2,73.1,43.5,71.2"/>
					<path class="st5" d="M42.4,95.3c0.4-0.1,0.8-0.1,1.2-0.2c-0.3-1.7,0.1-3.3,1.4-4.7C43.2,91.5,42.6,93.3,42.4,95.3z"/>
					<path class="st5" d="M39.7,95.4c-0.3-1.8,0-3.7,1.4-5.2c-1.7,1-2.3,2.6-2.5,4.5C38.8,95,39.2,95.2,39.7,95.4z"/>
				</g>
				<g id="Front_Arm_61_">
					<path class="st5" d="M42.3,63.9c0,0-0.6,3.3,1.7,4.5c1.9,1,4.3,1,5.5-0.4c1.6-2,4-6-2.5-9.9c-4-2.4-4.2,5.8-4.2,5.8L42.3,63.9z
						"/>
					<path class="st5" d="M42.9,47.8c0.9,1.8,1.6,3.3,1.7,3.4c0,0,5.3-6.5,4.3-7.6C47.7,42.4,43.7,46.3,42.9,47.8z"/>
					<path class="st4" d="M48,38.2c5.7,5.5-6.1,12.7-6.1,12.7c1.3,0.8,2.9,3.6,4.1,5.6c1.2,2,1.7,1.7,3.2,3.4
						c1.5,1.7-2.7,4.2-2.7,4.2s-14.2-7.7-14.1-12.6c0-0.6,3.3-6.1,6.6-9.4C40.6,40.4,45.3,35.6,48,38.2z"/>
					<path class="st4" d="M42.5,61.4c0,0-1.1,5.2,2.1,6.7c0,0,2.5,0.2,3.8-0.8c0,0,3.2-4.9,0.8-7.4C46.8,57.4,42.5,61.4,42.5,61.4z"
						/>
					<path class="st5" d="M42.4,61.7c0,0,4.1,2.2,4.8,2.4c0,0-1.1,0.2-2.1-0.3c0,0-1.1,2,0.2,3.2c0,0-1.9-0.3-1.2-3.5L42.4,61.7
						L42.4,61.7z"/>
				</g>
				<g id="Head_88_">
					<path class="st4" d="M46.1,22.2c0,0,2.1-12.6,7.3-12.8c3.4-0.1,5.2,4.2,5.2,4.2s2.8-0.2,5.9,1.8c0,0,1-1.7,2.6-1.2
						c1.6,0.6,3.4,4.2,2.7,10.2c0,0,2.4,0.2,3.7,2.6c0,0-0.7,1-1.8,1.1c-1.1,0.1-5.7-1.6-7-0.5c-1.3,1.1-1.8,1.9-1.7,4
						c0,0-5.1-0.5-7.4-3.4C53.4,25.3,51.4,19.6,46.1,22.2z"/>
					<path class="st9" d="M63.8,23.1c0,0,1.3-4.2,3.7-5.4c0,0,0.1,3.4,0.7,6.1C68.2,23.8,66.5,23.4,63.8,23.1z"/>
					<path class="st9" d="M52.7,14.5c0,0,3.2,1.5,5.3,8.1c0,0-5-0.8-7.2-0.6C50.8,21.9,52.8,18.2,52.7,14.5z"/>
					<path class="st5" d="M54,17.4c0.8,0,1.4,0.9,1.4,1.9c0,1.1-0.6,1.9-1.4,1.9s-1.4-0.9-1.4-1.9C52.6,18.3,53.2,17.4,54,17.4"/>
					<path class="st5" d="M65.8,22.5c0.6,0,1.1-0.7,1.1-1.5c0-0.8-0.5-1.5-1.1-1.5c-0.1,0-0.2,0-0.3,0.1c-0.2,0.3-0.5,0.6-0.8,1.3
						c0,0,0,0.1,0,0.1C64.7,21.9,65.2,22.5,65.8,22.5z"/>
					<path class="st10" d="M52,25.5c0,0-2.2-2.5-4.2-0.5c-1.7,1.7-0.4,4.5-0.4,4.5s0.1-2.4,1.2-2.3c0,0,0.9,6,9.8,12.1
						s11.3,5.5,13.2,5c1.9-0.5,4.1-1.5,3.4-3c-0.7-1.6-5.3-5.4-5.3-5.4s-2,1.5-5.9,0.2c-3.8-1.3-10.1-5.4-13.4-10
						c0,0,0.2-1.1,1.5-0.5"/>
					<path class="st11" d="M50.8,32.4c0,0,7.5-2.2,13.8,3.7l-1-0.5c0,0,4.5-0.2,5.2,0.4s4.2,2.7,4.7,8c0.1,1.6-3.5,2.4-11.7-1.6
						C56.7,39.8,50.8,32.4,50.8,32.4z"/>
					<g>
						<path class="st12" d="M60.7,33.4c0.1,0,0.1,0.1,0.2,0.1C60.8,33.5,60.8,33.5,60.7,33.4z"/>
					</g>
					<path class="st13" d="M69.3,35.9c0,0-1.1,4.5-2.8,4c-0.6-0.2-0.3-1.4-0.6-2.3S65,35,65,35L69.3,35.9z"/>
					<path class="st13" d="M77.7,34.2c0,0-0.4,4.6-2.1,4.4c-0.6-0.1-0.6-1.4-0.9-2.2c-0.4-0.8-1.3-2.4-1.3-2.4L77.7,34.2z"/>
					<path class="st6" d="M79.5,30.1c-0.2-3.3-4.5-4.7-7.7-2.4c-2.6-0.6-5.4-2.3-8,0.3c-1.8,1.8-0.8,3.6-0.8,3.6s-5.4-0.9-7.2-3.6
						s-4.2-6.4-6.9-6.6c-1.4-0.1-3.7-0.3-5.1,2.3c-1.3,2.6-2,7.4,8,14.9s14.4,9.5,16.6,9.5c2.8,0,2.9-1,6.1-1.5
						c1.6-0.2,2.9-3,1.1-5.4c-1.8-2.4-6-5.3-6-5.3s4.5,3.8,5.3,5.4c0.7,1.6-1.4,2.5-3.4,3c-1.9,0.5-4.4,1-13.2-5s-9.8-12.1-9.8-12.1
						c-1.1-0.2-1.2,2.3-1.2,2.3s-1.3-2.8,0.4-4.5c2.1-2,4.2,0.5,4.2,0.5l-0.1,0c-1.3-0.6-1.5,0.5-1.5,0.5c3.3,4.6,9.6,8.7,13.4,10
						c3.8,1.3,5.9-0.2,5.9-0.2s4.1-0.1,5.5-0.4S79.9,34.5,79.5,30.1z"/>
					<path class="st7" d="M66.7,29.8c0.9-0.3,1.6,0.9,0.4,1.4c-0.2,0.4,0.1,0.9,0.8,1.1C65.7,32.8,65.6,30.2,66.7,29.8"/>
					<path class="st7" d="M76.9,29.4c-0.7-0.2-1.3,0.8-0.3,1.2c0.1,0.4-0.1,0.8-0.7,0.9C77.7,31.9,77.8,29.7,76.9,29.4"/>
				</g>
			</g>
			<g>
				<g>
					<path class="st14" d="M215.8,67.4c0.6,3.7,4,5.1,7.7,5.1c3.6,0,6.5-1.6,6.6-3.5c0.1-2.9-2.1-4.6-5.3-5.2
						c-2.2-0.4-8.8-1.7-8.8-1.7c-8.1-1.5-12.7-3.8-12.7-10.7c0-8.9,7.7-14.7,18.7-14.7c10.8,0,18,4.9,19.8,12.5l-12.7,2.5
						c-0.4-2.7-3-5.1-7.3-5.1c-3.7,0-5.6,1.6-5.9,3.4c-0.2,1.2,0.3,2.2,4.3,3c2.6,0.5,10.2,2.1,10.2,2.1c8.2,1.7,12,6.7,12,13.1
						c0,9.6-8.3,14.6-19.8,14.6c-10.2,0-19-3.7-20.4-12.7L215.8,67.4z"/>
				</g>
				<g>
					<g>
						<path class="st14" d="M342.2,47.7c0.3,2.1,0.3,3.8,0.3,5.3c0,17.7-12.6,30.4-30.2,30.4c-17.7,0-31.4-13.3-31.4-30.5
							c0-17.1,13.7-30.5,31.2-30.5c13,0,24.4,6.1,28.5,17.5l-13.8,4c-3.4-6.6-9-8.4-14.6-8.4c-9.5,0-16.7,7.5-16.7,17.3
							c0,9.9,7.4,17.4,17.1,17.4c7.7,0,13.2-4,15.4-10.4l-17.8,0l0-12.2L342.2,47.7z"/>
					</g>
					<g id="Text-Default_1_">
						<g>
							<g>
								<g>
									<path class="st14" d="M149.7,81.1h-14.3V58h-24.5v23.1H96.5V22.7h14.4v22.7h24.5V22.7h14.3V81.1z"/>
								</g>
								<g>
									<path class="st14" d="M201.4,59.2c0,13.8-11,23.1-23.9,23.1c-13.2,0-24.2-9.2-24.2-23.1c0-13.8,11-23,24.2-23
										C190.4,36.2,201.4,45.5,201.4,59.2z M188,59.2c0-6.8-5.1-11.3-10.5-11.3c-5.7,0-10.8,4.5-10.8,11.3
										c0,6.9,5.1,11.3,10.8,11.3C182.9,70.5,188,66.1,188,59.2z"/>
								</g>
								<g>
									<path class="st14" d="M281.4,79.1c-3.4,1.8-7,3.2-11.9,3.2c-10.9,0-17.4-5.9-17.4-17.4V48.4h-7.9V37.4h7.9V25.7l13.9-3
										v14.6h12.9v11.1h-12.9v15.1c0,4.5,2.2,6.4,5.8,6.4c1.9,0,4.5-0.7,6.4-1.7L281.4,79.1z"/>
								</g>
								<g>
									<path class="st14" d="M386.6,53.4v27.7h-13.4v-3.2c-3,2.6-7.2,4.5-13.1,4.5c-9.7,0-16.3-5.7-16.3-14.3
										c0-8.5,6.5-14.1,18.2-14.1h11.1v-0.9c0-3.7-2.5-6.1-6.2-6.1c-4.2,0-6.6,1.7-7.3,5.5l-13.1-2.7c1.9-8.4,9.6-13.8,20-13.8
										C378.8,36.1,386.6,42.2,386.6,53.4z M373.2,63.8v-1h-9.6c-3.5,0-5.7,1.8-5.7,4.5c0,2.8,2.4,4.5,6.1,4.5
										C368.8,71.9,373.2,68.7,373.2,63.8z"/>
								</g>
								<g>
									<path class="st14" d="M425.9,79.1c-3.4,1.8-7,3.2-11.9,3.2c-10.9,0-17.4-5.9-17.4-17.4V48.4h-7.9V37.4h7.9V25.7l13.9-3
										v14.6h12.9v11.1h-12.9v15.1c0,4.5,2.2,6.4,5.8,6.4c1.9,0,4.5-0.7,6.4-1.7L425.9,79.1z"/>
								</g>
								<g>
									<path class="st14" d="M471.9,59.2c0,13.8-11,23.1-23.9,23.1c-13.2,0-24.2-9.2-24.2-23.1c0-13.8,11-23,24.2-23
										C460.9,36.2,471.9,45.5,471.9,59.2z M458.5,59.2c0-6.8-5.1-11.3-10.5-11.3c-5.7,0-10.8,4.5-10.8,11.3
										c0,6.9,5.1,11.3,10.8,11.3C453.3,70.5,458.5,66.1,458.5,59.2z"/>
								</g>
								<g>
									<path class="st14" d="M507.5,37.1L506.8,51h-2.5c-9.7,0-15.1,5-15.1,16.4v13.7h-13.9V40.4l13.9-3v8.4c3.1-5.2,7.9-9,15.1-9
										C505.5,36.7,506.4,36.8,507.5,37.1z"/>
								</g>
							</g>
						</g>
					</g>
				</g>
			</g>
		</g>
	</g>
</g>
</svg>
