<svg width="162" height="30" viewBox="0 0 162 30" fill="none" xmlns="http://www.w3.org/2000/svg">
<g id="Group 1000002419">
<g id="Group">
<path id="Vector" d="M57.2179 4.72717V24.3719H54.2239L43.5452 10.3408L43.5727 16.5997V24.3739H40.2677V4.72717H43.2617L53.9404 18.7583L53.9129 12.8925V4.72717H57.2179Z" fill="#000555"/>
<path id="Vector_2" d="M73.7354 18.3485H63.03C63.2736 20.3288 64.8995 21.596 67.2582 21.596C68.7765 21.596 70.2929 21.0458 71.1068 20.1927L72.9499 22.0082C71.6223 23.4671 69.4808 24.3739 67.177 24.3739C62.76 24.3739 59.9141 21.5404 59.9141 17.1925C59.9141 12.8445 62.7052 10.1204 66.8522 10.1204C71.5675 10.1204 74.1698 13.2567 73.7354 18.3466V18.3485ZM63.0564 15.954H70.8348C70.6177 14.0274 69.1541 12.7909 66.9315 12.7909C64.7088 12.7909 63.436 13.9469 63.0564 15.954Z" fill="#000555"/>
<path id="Vector_3" d="M90.348 10.4244V24.0698H87.5649L87.5377 22.2472C86.4808 23.5732 84.6422 24.3739 82.5282 24.3739C78.4923 24.3739 75.7092 21.4466 75.7092 17.2471C75.7092 13.0477 78.4923 10.1204 82.5282 10.1204C84.6713 10.1204 86.4808 10.921 87.5377 12.247L87.5649 10.4244H90.348ZM87.2313 17.2471C87.2313 14.7067 85.5052 12.938 83.0286 12.938C80.552 12.938 78.8259 14.7067 78.8259 17.2471C78.8259 19.7876 80.552 21.5563 83.0286 21.5563C85.5052 21.5563 87.2313 19.7876 87.2313 17.2471Z" fill="#000555"/>
<path id="Vector_4" d="M104.601 11.3362L103.165 13.9099C102.362 13.3719 101.644 13.1453 100.785 13.1453C98.4899 13.1453 97.0267 14.8144 97.0267 17.5575V24.3739H93.8143V10.4022H96.6828L96.7108 12.5521C97.8302 10.8554 99.2355 10.1204 101.015 10.1204C102.392 10.1204 103.739 10.5736 104.601 11.3362Z" fill="#000555"/>
<path id="Vector_5" d="M105.372 22.3683L106.796 20.1385C108.002 21.101 109.78 21.6512 111.561 21.6512C113.341 21.6512 114.272 21.101 114.272 20.1097C114.272 19.1184 113.396 18.6794 111.314 18.4589C107.782 18.1291 105.782 16.6432 105.782 14.2752C105.782 11.9073 108.137 10.1204 111.643 10.1204C113.696 10.1204 115.505 10.6438 117.011 11.6887L115.669 13.8899C114.463 13.1191 113.177 12.7337 111.78 12.7337C109.835 12.7337 108.795 13.284 108.795 14.2752C108.795 15.1553 109.589 15.6231 111.562 15.8436C115.56 16.2846 117.314 17.5769 117.314 20.1365C117.314 22.6962 114.986 24.3739 111.48 24.3739C109.208 24.3739 107.181 23.7143 105.372 22.3645V22.3683Z" fill="#000555"/>
<path id="Vector_6" d="M133.108 10.1204V24.0921H130.362L130.335 22.2811C129.181 23.6664 127.589 24.3739 125.722 24.3739C122.262 24.3739 120.01 21.8278 120.01 17.8413V10.1204H123.085V17.6442C123.085 20.1055 124.294 21.5184 126.271 21.5184C128.523 21.5184 130.033 19.8217 130.033 17.4747V10.1204H133.108Z" fill="#000555"/>
<path id="Vector_7" d="M147.361 11.3362L145.926 13.9099C145.123 13.3719 144.405 13.1453 143.545 13.1453C141.25 13.1453 139.787 14.8144 139.787 17.5575V24.3739H136.575V10.4022H139.443L139.471 12.5521C140.591 10.8554 141.996 10.1204 143.775 10.1204C145.152 10.1204 146.5 10.5736 147.361 11.3362Z" fill="#000555"/>
<path id="Vector_8" d="M161.953 18.3485H151.247C151.491 20.3288 153.117 21.596 155.476 21.596C156.994 21.596 158.51 21.0458 159.324 20.1927L161.167 22.0082C159.84 23.4671 157.698 24.3739 155.394 24.3739C150.977 24.3739 148.132 21.5404 148.132 17.1925C148.132 12.8445 150.923 10.1204 155.07 10.1204C159.785 10.1204 162.387 13.2567 161.953 18.3466V18.3485ZM151.274 15.954H159.052C158.835 14.0274 157.372 12.7909 155.149 12.7909C152.926 12.7909 151.653 13.9469 151.274 15.954Z" fill="#000555"/>
</g>
<path id="Vector_9" d="M16.7898 13.1599C13.2862 9.65625 13.8756 4.7099 10.917 1.75133C8.64992 -0.515744 4.97483 -0.515744 2.70582 1.75133C0.438746 4.01841 0.438746 7.6935 2.70582 9.96058C5.66439 12.9191 10.6127 12.3297 14.1144 15.8334C17.6181 19.3371 17.0306 24.2834 19.9872 27.242C22.2543 29.5091 25.9294 29.5091 28.1965 27.242C30.4636 24.9749 30.4636 21.2998 28.1965 19.0327C25.2379 16.0742 20.2896 16.6617 16.7879 13.1599H16.7898Z" fill="#000555"/>
<path id="Vector_10" d="M24.9459 9.95865C27.682 9.95865 29.9 7.74064 29.9 5.00459C29.9 2.26854 27.682 0.0505371 24.9459 0.0505371C22.2099 0.0505371 19.9919 2.26854 19.9919 5.00459C19.9919 7.74064 22.2099 9.95865 24.9459 9.95865Z" fill="#000555"/>
<path id="Vector_11" d="M7.09757 28.8116C9.76046 28.1831 11.4097 25.5149 10.7812 22.852C10.1527 20.1891 7.48447 18.5399 4.82158 19.1684C2.1587 19.7969 0.509498 22.4651 1.138 25.128C1.76649 27.7909 4.43469 29.4401 7.09757 28.8116Z" fill="#000555"/>
</g>
</svg>
