<?xml version="1.0" encoding="UTF-8"?><svg id="a" xmlns="http://www.w3.org/2000/svg" viewBox="0 0 1000 269.43"><defs><style>.b{fill:#00d0f5;}.c{fill:#000555;}</style></defs><g><path class="c" d="M371.22,83.43v100.47h-15.21l-54.25-71.76,.14,32.01v39.76h-16.79V83.43h15.21l54.25,71.76-.14-30v-41.76h16.79Z"/><path class="c" d="M460.2,154.47h-56.69c1.29,10.33,9.9,16.94,22.39,16.94,8.04,0,16.07-2.87,20.38-7.32l9.76,9.47c-7.03,7.61-18.37,12.34-30.57,12.34-23.39,0-38.46-14.78-38.46-37.46s14.78-36.89,36.74-36.89c24.97,0,38.75,16.36,36.45,42.91Zm-56.55-12.49h41.19c-1.15-10.05-8.9-16.5-20.67-16.5s-18.51,6.03-20.52,16.5Z"/><path class="c" d="M545.73,112.99v70.9h-14.35l-.14-9.47c-5.45,6.89-14.93,11.05-25.83,11.05-20.81,0-35.16-15.21-35.16-37.03s14.35-37.03,35.16-37.03c11.05,0,20.38,4.16,25.83,11.05l.14-9.47h14.35Zm-16.07,35.45c0-13.2-8.9-22.39-21.67-22.39s-21.67,9.19-21.67,22.39,8.9,22.39,21.67,22.39,21.67-9.19,21.67-22.39Z"/><path class="c" d="M619.21,117.73l-7.18,13.06c-4.02-2.73-7.61-3.88-11.91-3.88-11.48,0-18.8,8.47-18.8,22.39v34.59h-16.07V112.99h14.35l.14,10.91c5.6-8.61,12.63-12.34,21.53-12.34,6.89,0,13.63,2.3,17.94,6.17Z"/><path class="c" d="M623.52,175.14l7.46-11.63c6.32,5.02,15.64,7.89,24.97,7.89s14.21-2.87,14.21-8.04-4.59-7.46-15.5-8.61c-18.51-1.72-28.99-9.47-28.99-21.82s12.34-21.67,30.71-21.67c10.76,0,20.24,2.73,28.13,8.18l-7.03,11.48c-6.32-4.02-13.06-6.03-20.38-6.03-10.19,0-15.64,2.87-15.64,8.04,0,4.59,4.16,7.03,14.5,8.18,20.95,2.3,30.14,9.04,30.14,22.39s-12.2,22.1-30.57,22.1c-11.91,0-22.53-3.44-32.01-10.48Z"/><path class="c" d="M767.9,112.99v70.9h-14.35l-.14-9.19c-6.03,7.03-14.35,10.62-24.11,10.62-18.08,0-29.85-12.92-29.85-33.15v-39.18h16.07v38.18c0,12.49,6.32,19.66,16.65,19.66,11.77,0,19.66-8.61,19.66-20.52v-37.32h16.07Z"/><path class="c" d="M841.38,117.73l-7.18,13.06c-4.02-2.73-7.61-3.88-11.91-3.88-11.48,0-18.8,8.47-18.8,22.39v34.59h-16.07V112.99h14.35l.14,10.91c5.6-8.61,12.63-12.34,21.53-12.34,6.89,0,13.63,2.3,17.94,6.17Z"/><path class="c" d="M917.58,154.47h-56.69c1.29,10.33,9.9,16.94,22.39,16.94,8.04,0,16.07-2.87,20.38-7.32l9.76,9.47c-7.03,7.61-18.37,12.34-30.57,12.34-23.39,0-38.46-14.78-38.46-37.46s14.78-36.89,36.74-36.89c24.97,0,38.75,16.36,36.45,42.91Zm-56.55-12.49h41.19c-1.15-10.05-8.9-16.5-20.67-16.5s-18.51,6.03-20.52,16.5Z"/></g><g><path class="b" d="M164.11,127.78c-18.19-18.19-15.13-43.87-30.49-59.23-11.77-11.77-30.85-11.77-42.63,0-11.77,11.77-11.77,30.85,0,42.62,15.36,15.36,41.05,12.3,59.23,30.49,18.19,18.19,15.14,43.87,30.49,59.23,11.77,11.77,30.85,11.77,42.62,0,11.77-11.77,11.77-30.85,0-42.62-15.36-15.36-41.05-12.31-59.23-30.49Z"/><circle class="b" cx="206.45" cy="85.44" r="25.72"/><circle class="b" cx="107.89" cy="184" r="25.72" transform="translate(-39.39 29.71) rotate(-13.28)"/></g></svg>