<svg width="1024" height="239" viewBox="0 0 1024 239" fill="none" xmlns="http://www.w3.org/2000/svg">
<path d="M414.683 0C408.084 0 402.735 5.34903 402.735 11.9474V13.9386C402.735 20.537 408.084 25.886 414.683 25.886C421.281 25.886 426.63 20.537 426.63 13.9386V11.9474C426.63 5.34903 421.281 0 414.683 0Z" fill="#FFA945"/>
<path fill-rule="evenodd" clip-rule="evenodd" d="M366.893 119.203C366.893 79.7459 334.939 47.7896 295.486 47.7896C255.478 47.7896 223.525 79.7459 223.525 119.203C223.525 119.293 223.525 119.384 223.525 119.474L223.525 227.001C223.525 233.599 228.874 238.948 235.472 238.948C242.07 238.948 247.419 233.599 247.419 227.001V172.942C260.123 184.293 276.939 191.158 295.486 191.158C334.939 191.158 366.893 159.213 366.893 119.203ZM342.998 119.339C342.998 146.206 321.94 167.264 295.345 167.264C268.466 167.264 247.419 146.206 247.419 119.339C247.419 92.7431 268.466 71.6844 295.345 71.6844C321.94 71.6844 342.998 92.7431 342.998 119.339Z" fill="#FFA945"/>
<path fill-rule="evenodd" clip-rule="evenodd" d="M1024 119.203C1024 79.7459 992.046 47.7896 952.593 47.7896C912.585 47.7896 880.631 79.7459 880.631 119.203C880.631 159.213 912.585 191.158 952.593 191.158C992.046 191.158 1024 159.213 1024 119.203ZM1000.11 119.339C1000.11 146.206 979.047 167.264 952.451 167.264C925.573 167.264 904.526 146.206 904.526 119.339C904.526 92.7431 925.573 71.6844 952.451 71.6844C979.047 71.6844 1000.11 92.7431 1000.11 119.339Z" fill="#FFA945"/>
<path d="M844.789 119.474C844.789 79.8673 812.835 47.7896 773.382 47.7896C748.209 47.7896 726.224 60.4891 713.382 79.773C700.587 60.4891 678.732 47.7896 653.908 47.7896C613.9 47.7896 581.946 79.8673 581.946 119.474V179.211C581.946 185.809 587.295 191.158 593.894 191.158C600.492 191.158 605.841 185.809 605.841 179.211L605.841 119.474C605.913 92.8417 626.934 71.7751 653.766 71.7751C680.316 71.7751 701.348 92.8417 701.42 119.474V179.211C701.42 185.809 706.769 191.158 713.368 191.158C719.966 191.158 725.315 185.809 725.315 179.211L725.315 119.474C725.387 92.8417 746.408 71.7751 773.24 71.7751C799.79 71.7751 820.822 92.8417 820.894 119.474L820.894 179.211C820.894 185.809 826.243 191.158 832.842 191.158C839.44 191.158 844.789 185.809 844.789 179.211V119.474Z" fill="#FFA945"/>
<path d="M462.472 89.5212C462.472 66.258 481.018 47.7896 504.373 47.7896C513.062 47.7896 521.063 50.8409 527.476 54.4597C533.96 58.1181 539.572 62.7766 543.721 67.0468C548.319 71.7791 548.211 79.343 543.478 83.9412C538.746 88.5393 531.182 88.4305 526.584 83.6982C523.763 80.7955 519.927 77.6363 515.734 75.2702C511.47 72.8644 507.566 71.6844 504.373 71.6844C494.13 71.6844 486.367 79.5394 486.367 89.5212C486.367 93.0668 487.835 95.8015 491.869 98.9545C495.66 101.918 500.292 104.178 505.883 106.906L505.884 106.906L505.91 106.919C506.343 107.13 506.782 107.344 507.226 107.562L507.68 107.784C508.642 107.989 509.593 108.316 510.514 108.774C511.408 109.218 512.386 109.691 513.426 110.194C519.019 112.901 526.433 116.488 532.419 121.167C540.105 127.175 547.1 136.181 547.1 149.427C547.1 172.69 528.554 191.158 505.199 191.158C496.511 191.158 488.51 188.107 482.096 184.488C475.613 180.83 470 176.171 465.851 171.901C461.253 167.169 461.362 159.605 466.094 155.007C470.827 150.409 478.39 150.517 482.989 155.25C485.809 158.152 489.645 161.312 493.839 163.678C498.102 166.084 502.006 167.264 505.199 167.264C515.442 167.264 523.205 159.409 523.205 149.427C523.205 145.881 521.738 143.146 517.704 139.993C513.913 137.03 509.28 134.77 503.689 132.042L503.688 132.041C503.1 131.754 502.501 131.462 501.892 131.164C500.93 130.959 499.979 130.631 499.058 130.174C498.166 129.731 497.19 129.259 496.151 128.756L496.146 128.753C490.553 126.047 483.139 122.459 477.153 117.781C469.468 111.773 462.472 102.767 462.472 89.5212Z" fill="#FFA945"/>
<path d="M402.735 59.737C402.735 53.1386 408.084 47.7896 414.683 47.7896C421.281 47.7896 426.63 53.1386 426.63 59.737V179.211C426.63 185.809 421.281 191.158 414.683 191.158C408.084 191.158 402.735 185.809 402.735 179.211V59.737Z" fill="#FFA945"/>
<path d="M109.604 67.8196C125.459 84.251 141.391 100.764 158.436 84.443C163.274 79.8157 164.838 71.3862 163.511 65.5752C154.662 26.8194 102.679 25.2404 79.7946 45.0149L79.824 45.1651C89.887 47.3846 99.7304 57.5864 109.604 67.8196Z" fill="#FFA945"/>
<path d="M146.289 171.352C125.5 160.185 136.281 139.929 147.009 119.773C153.691 107.22 160.351 94.7062 159.352 84.4499L159.486 84.3755C185.364 100.029 199.926 149.956 165.802 170.348C160.685 173.406 152.185 174.523 146.289 171.352Z" fill="#FFA945"/>
<path d="M59.8799 186.656C64.077 163.433 86.6725 167.427 109.157 171.402C123.16 173.877 137.12 176.345 146.566 172.225L146.678 172.33C139.787 201.778 96.8039 231.056 66.8649 204.903C62.3758 200.982 58.6864 193.243 59.8799 186.656Z" fill="#FFA945"/>
<path d="M79.5346 46.0339C89.7889 67.2882 69.1611 77.3384 48.6348 87.3391C35.8512 93.5674 23.1069 99.7766 17.8864 108.661L17.7345 108.643C5.9994 80.7681 23.5648 31.817 63.1582 35.3773C69.0949 35.911 76.6284 40.0034 79.5346 46.0339Z" fill="#FFA945"/>
<path d="M48.3584 151.356C45.1902 128.744 42.0063 106.02 18.6234 109.205C11.9901 110.105 5.76996 116.006 3.42784 121.487C-12.1933 158.042 28.9339 189.875 59.0707 187.328L59.1352 187.189C52.2986 179.478 50.3316 165.439 48.3584 151.356Z" fill="#FFA945"/>
</svg>
