<?xml version="1.0" encoding="utf-8"?>
<!-- Generator: Adobe Illustrator 21.0.2, SVG Export Plug-In . SVG Version: 6.00 Build 0)  -->
<svg version="1.1" id="Layer_1" xmlns="http://www.w3.org/2000/svg" xmlns:xlink="http://www.w3.org/1999/xlink" x="0px" y="0px"
	 viewBox="0 0 1887.9 756.8" style="enable-background:new 0 0 1887.9 756.8;" xml:space="preserve">
<style type="text/css">
	.st0{fill:#0DB14B;}
</style>
<g>
	<g>
		<g>
			<g>
				<path class="st0" d="M1545,340.1l-113.9-113.9c-8.8-8.8-8.8-23,0-31.7L1545,80.6c6.2-6.2,16.9-1.8,16.9,7v245.6
					C1561.9,341.9,1551.3,346.4,1545,340.1z"/>
			</g>
			<g>
				<g>
					<path class="st0" d="M1596,77.6c-5.7-0.4-10.5,4.2-10.5,9.9l0,53.2c0,4.8,3.5,9.1,8.2,9.7c29.6,4,52.4,29.3,52.4,59.9
						s-22.8,55.9-52.4,59.9c-4.8,0.6-8.2,4.9-8.2,9.7l0,53.2c0,5.7,4.8,10.3,10.5,9.9c68.8-5.4,123-62.7,123-132.7
						C1719.1,140.3,1664.9,83,1596,77.6z"/>
				</g>
			</g>
		</g>
	</g>
	<g>
		<g>
			<path class="st0" d="M193.3,616.8c-7.3-3.9-13-12.4-13-23.6c0-15.2,11.8-27.6,27.6-27.6c5.6,0,10.7,1.7,14.7,3.9
				c28.8,19.1,58.6,28.7,85.7,28.7c29.3,0,46.2-12.4,46.2-32.1v-1.1c0-23.1-31.6-30.9-66.5-41.6c-44-12.4-93-30.4-93-87.2v-1.1
				c0-56.3,46.8-90.6,106-90.6c31.6,0,64.8,9,93.6,24.2c9.6,5.1,16.4,14.1,16.4,25.9c0,15.8-12.4,27.6-28.2,27.6
				c-5.6,0-9-1.1-13.5-3.4c-24.2-12.4-49.1-20.2-69.9-20.2c-26.5,0-41.7,12.4-41.7,29.3v1.1c0,21.9,32.1,30.9,67.1,42.2
				c43.4,13.5,92.5,33.2,92.5,86.6v1.1c0,62.4-48.5,93.4-110.5,93.4C268.9,652.3,227.7,640.4,193.3,616.8"/>
		</g>
		<g>
			<path class="st0" d="M603.8,499.8v-1.1c0-85,67.7-155.3,159-155.3c91.3,0,158.4,69.2,158.4,154.2v1.1
				c0,84.4-67.7,154.7-159.6,154.7C670.9,653.4,603.8,584.2,603.8,499.8 M853,499.8v-1.1c0-52.3-37.8-95.6-91.3-95.6
				c-54.7,0-89.6,42.8-89.6,94.5v1.1c0,51.8,37.8,95.1,90.8,95.1C818,593.7,853,551,853,499.8"/>
		</g>
		<g>
			<path class="st0" d="M1016.5,615.4l0-143.2c0-33.5,24.6-62.9,58-66.6c39.5-4.3,72.8,26.4,72.8,64.8v144.9c0,18.8,15.3,34,34.1,34
				l0,0c18.8,0,34.1-15.2,34.1-34V477.3c0-73.6-59.8-133.3-133.6-133.3h0c-73.8,0-133.6,59.7-133.6,133.3v138.1
				c0,18.8,15.3,34,34.1,34h0C1001.2,649.4,1016.5,634.2,1016.5,615.4z"/>
		</g>
		<g>
			<path class="st0" d="M573.9,411.5c17.1,0,31-13.9,31-30.9v0c0-17.1-13.9-30.9-31-30.9h-52.4v-50.4c0-18.8-15.3-34-34.1-34
				c-18.8,0-34.1,15.2-34.1,34v81.3v0v165.1v0.8v3.5h0.2c1.7,54.7,43.9,99.4,101.8,103.2c1.5,0.2,3.1,0.4,4.7,0.4h13.3
				c17.5,0,31.7-14.2,31.7-31.6v0c0-17.5-14.2-31.6-31.7-31.6h-9.3c-24.3,0-41.7-19.4-42.5-43V411.5H573.9z"/>
		</g>
		<g>
			<path class="st0" d="M1356.4,493.2c0,16.2,13.1,29.3,29.3,29.3h76.2h18.3h16.9c16.2,0,29.3-13.1,29.3-29.3
				c0-85-56.8-149.8-135.8-149.8c-89.8,0-151.4,70.3-151.4,155.3v1.1c0,84.4,66,153.6,155.3,153.6c38.4,0,72.5-12.7,99-33.8
				c15.1-12,15.8-34.6,1.4-47.4c-11.8-10.4-29.4-10.1-41.2,0.3c-14.9,13.2-34.6,21.2-58.1,21.2c-52.1,0-89.3-43.3-89.3-95.1v-1.1
				c0-51.8,29.4-94.5,83.2-94.5c35.5,0,60.5,25.5,70.2,60.9h-74C1369.5,463.9,1356.4,477,1356.4,493.2z"/>
		</g>
	</g>
</g>
</svg>
