<?xml version="1.0" encoding="utf-8"?>
<svg width="109px" height="37px" viewBox="0 0 109 37" version="1.1" xmlns:xlink="http://www.w3.org/1999/xlink" xmlns="http://www.w3.org/2000/svg">
  <desc>Created with Lunacy</desc>
  <g id="Branding/Logo/X-Team">
    <path d="M10.4235 0L28.2995 17.2718L8.16242 37L0 29.1761L11.4321 17.3389L2.02398 8.17848L10.4235 0ZM29.5093 16.0942L21.1096 7.91574L29.2393 0L37.6388 8.17848L29.5093 16.0942ZM104.06 12.5075C104.06 11.1918 105.151 10.0956 106.537 10.0956C107.922 10.0956 109 11.1788 109 12.4944C109 13.81 107.908 14.9062 106.523 14.9062C105.138 14.9062 104.06 13.8233 104.06 12.5075ZM104.264 12.5075C104.264 13.7302 105.233 14.7205 106.523 14.7205C107.819 14.7205 108.795 13.7167 108.795 12.4944C108.795 11.2718 107.826 10.2817 106.537 10.2817C105.24 10.2817 104.264 11.2849 104.264 12.5075ZM106.701 11.2186C107.232 11.2186 107.621 11.4908 107.621 11.9229C107.621 12.3216 107.342 12.5541 106.939 12.6271L107.772 13.6505L107.39 13.6505L106.598 12.6737L105.874 12.6737L105.874 13.6505L105.581 13.6505L105.581 11.2186L106.701 11.2186ZM54.0211 12.0416L55.6269 13.5277L50.6113 18.1779L52.7948 22.7748L50.5494 23.7263L48.8681 19.8387L44.8805 23.8004L43.1863 22.4478L47.9611 17.9164L45.6273 13.2771L47.7958 12.1169L49.6893 16.2406L54.0211 12.0416ZM95.1985 20.1723L99.7537 12.1074L99.8769 12.8956L102.033 23.3272L99.6147 23.3583L98.5888 18.1657L95.0688 24.1134L92.0024 18.1247L90.4671 23.4562L88.1194 23.4562L91.4311 12.2129L95.1985 20.1723ZM84.4136 12.2309L84.4136 12.2344L84.414 12.2343L84.4243 12.2191L87.3943 23.4137L85.0177 23.4137L84.6039 21.6588L79.9671 21.6588L78.6293 23.4269L76.1082 23.4269L84.4136 12.2309ZM60.5701 12.8899L69.3747 12.9108L69.3747 12.9109L68.7431 15.0394L65.5097 15.0316L63.0175 23.396L60.6794 23.3903L63.172 15.026L59.938 15.0182L60.5701 12.8899ZM76.1939 19.1514L71.2605 19.1398L70.5956 21.3585L75.6802 21.333L75.0655 23.3866L67.6743 23.4062L70.7979 12.9136L78.7372 12.9324L78.1228 14.9862L72.5064 14.9727L71.874 17.1161L76.8076 17.128L76.1939 19.1514ZM83.5025 16.986L81.5084 19.6212L84.1234 19.6212L83.5025 16.986ZM59.1178 19.1432L54.4423 19.1334L55.1058 17.1526L59.7815 17.1626L59.1178 19.1432ZM21.0413 26.6949L29.2395 34.6776L37.6388 26.4993L29.4404 18.5167L21.0413 26.6949Z" id="Combined-Shape" fill="#000000" fill-rule="evenodd" stroke="none" />
  </g>
</svg>