<?xml version="1.0" encoding="iso-8859-1"?>
<!-- Generator: Adobe Illustrator 18.1.0, SVG Export Plug-In . SVG Version: 6.00 Build 0)  -->
<!DOCTYPE svg PUBLIC "-//W3C//DTD SVG 1.1//EN" "http://www.w3.org/Graphics/SVG/1.1/DTD/svg11.dtd">
<svg version="1.1" id="Layer_1" xmlns="http://www.w3.org/2000/svg" xmlns:xlink="http://www.w3.org/1999/xlink" x="0px" y="0px"
	 viewBox="166.666 76.667 458.668 458.668" style="enable-background:new 166.666 76.667 458.668 458.668;" xml:space="preserve">
<g id="Layer_3">
	<path style="display:none;fill:#40677D;stroke:#B3AD9F;stroke-width:20;stroke-miterlimit:10;" d="M225.672,126.352h340.656
		c22.507,0,40.752,18.245,40.752,40.752v179.454c0,14.559-7.767,28.013-20.376,35.292l-170.328,98.339
		c-12.609,7.28-28.143,7.28-40.752,0L205.296,381.85c-12.609-7.28-20.376-20.733-20.376-35.292V167.104
		C184.92,144.597,203.166,126.352,225.672,126.352z"/>
	<g style="display:none;">
		<path style="display:inline;fill:#918977;" d="M396,498.147c-9.334,0-18.542-2.467-26.625-7.134l-170.328-98.339
			c-16.423-9.481-26.626-27.152-26.626-46.117V167.104c0-29.363,23.889-53.252,53.252-53.252h340.656
			c29.363,0,53.252,23.889,53.252,53.252v179.454c0,18.964-10.202,36.636-26.626,46.117l-170.328,98.339
			C414.542,495.681,405.335,498.147,396,498.147z"/>
		<path style="display:inline;fill:#B3AD9F;" d="M566.328,126.352c22.507,0,40.752,18.245,40.752,40.752v179.454
			c0,14.559-7.767,28.013-20.376,35.292l-170.328,98.339c-6.304,3.64-13.34,5.46-20.376,5.46s-14.072-1.82-20.376-5.46
			L205.296,381.85c-12.609-7.28-20.376-20.733-20.376-35.292V167.104c0-22.507,18.245-40.752,40.752-40.752L566.328,126.352
			 M566.328,101.352H225.672c-36.256,0-65.752,29.496-65.752,65.752v179.454c0,23.416,12.597,45.235,32.876,56.943l170.328,98.339
			c9.982,5.763,21.35,8.809,32.876,8.809s22.894-3.046,32.876-8.809l170.328-98.34c20.279-11.708,32.876-33.527,32.876-56.943
			V167.104C632.08,130.848,602.583,101.352,566.328,101.352L566.328,101.352z"/>
	</g>
	<path style="display:none;fill:#F07334;" d="M225.672,126.352h340.656c22.507,0,40.752,18.245,40.752,40.752v179.454
		c0,14.559-7.767,28.013-20.376,35.292l-170.328,98.339c-12.609,7.28-28.143,7.28-40.752,0L205.296,381.85
		c-12.609-7.28-20.376-20.733-20.376-35.292V167.104C184.92,144.597,203.166,126.352,225.672,126.352z"/>
	<path style="display:none;fill:#40677D;" d="M225.672,126.352h340.656c22.507,0,40.752,18.245,40.752,40.752v179.454
		c0,14.559-7.767,28.013-20.376,35.292l-170.328,98.339c-12.609,7.28-28.143,7.28-40.752,0L205.296,381.85
		c-12.609-7.28-20.376-20.733-20.376-35.292V167.104C184.92,144.597,203.166,126.352,225.672,126.352z"/>
	<g>
		<path style="fill:#F07334;" d="M396,522.833c-57.918,0-112.37-22.555-153.324-63.509C201.721,418.37,179.167,363.918,179.167,306
			s22.555-112.37,63.509-153.324C283.63,111.721,338.082,89.167,396,89.167s112.37,22.555,153.324,63.509
			S612.833,248.082,612.833,306c0,57.919-22.555,112.37-63.509,153.324S453.919,522.833,396,522.833z"/>
		<g>
			<path style="fill:#B3AD9F;" d="M396,101.667c112.85,0,204.333,91.483,204.333,204.333S508.85,510.333,396,510.333
				S191.667,418.85,191.667,306S283.15,101.667,396,101.667 M396,76.667c-30.949,0-60.985,6.067-89.275,18.032
				c-27.312,11.552-51.835,28.084-72.889,49.138c-21.053,21.054-37.586,45.577-49.138,72.889
				c-11.965,28.289-18.032,58.326-18.032,89.275s6.067,60.985,18.032,89.275c11.552,27.312,28.084,51.835,49.138,72.889
				c21.054,21.053,45.577,37.586,72.889,49.138c28.289,11.965,58.326,18.032,89.275,18.032s60.985-6.067,89.275-18.032
				c27.312-11.552,51.835-28.084,72.889-49.138c21.053-21.054,37.586-45.577,49.138-72.889
				c11.965-28.289,18.032-58.326,18.032-89.275s-6.067-60.985-18.032-89.275c-11.552-27.312-28.084-51.835-49.138-72.889
				c-21.054-21.053-45.577-37.586-72.889-49.138C456.985,82.734,426.949,76.667,396,76.667L396,76.667z"/>
		</g>
	</g>
	<g style="display:none;">
		<path style="display:inline;fill:#40677D;" d="M396,522.833c-57.918,0-112.37-22.555-153.324-63.509
			C201.721,418.37,179.167,363.918,179.167,306s22.555-112.37,63.509-153.324C283.63,111.721,338.082,89.167,396,89.167
			s112.37,22.555,153.324,63.509S612.833,248.082,612.833,306c0,57.919-22.555,112.37-63.509,153.324S453.919,522.833,396,522.833z"
			/>
		<g style="display:inline;">
			<path style="fill:#B3AD9F;" d="M396,101.667c112.85,0,204.333,91.483,204.333,204.333S508.85,510.333,396,510.333
				S191.667,418.85,191.667,306S283.15,101.667,396,101.667 M396,76.667c-30.949,0-60.985,6.067-89.275,18.032
				c-27.312,11.552-51.835,28.084-72.889,49.138c-21.053,21.054-37.586,45.577-49.138,72.889
				c-11.965,28.289-18.032,58.326-18.032,89.275s6.067,60.985,18.032,89.275c11.552,27.312,28.084,51.835,49.138,72.889
				c21.054,21.053,45.577,37.586,72.889,49.138c28.289,11.965,58.326,18.032,89.275,18.032s60.985-6.067,89.275-18.032
				c27.312-11.552,51.835-28.084,72.889-49.138c21.053-21.054,37.586-45.577,49.138-72.889
				c11.965-28.289,18.032-58.326,18.032-89.275s-6.067-60.985-18.032-89.275c-11.552-27.312-28.084-51.835-49.138-72.889
				c-21.054-21.053-45.577-37.586-72.889-49.138C456.985,82.734,426.949,76.667,396,76.667L396,76.667z"/>
		</g>
	</g>
</g>
</svg>
