<?xml version="1.0" encoding="utf-8"?>
<!-- Generator: Adobe Illustrator 18.0.0, SVG Export Plug-In . SVG Version: 6.00 Build 0)  -->
<!DOCTYPE svg PUBLIC "-//W3C//DTD SVG 1.1//EN" "http://www.w3.org/Graphics/SVG/1.1/DTD/svg11.dtd">
<svg version="1.1" id="Layer_1" xmlns="http://www.w3.org/2000/svg" xmlns:xlink="http://www.w3.org/1999/xlink" x="0px" y="0px"
	 viewBox="0 0 1152 864" enable-background="new 0 0 1152 864" xml:space="preserve">
<g id="Bottom_Scene_14_">
	<polygon id="Bottom_Shape_28_" fill="none" stroke="#3F647D" stroke-width="35" stroke-miterlimit="10" points="914,695.9 
		576,830.2 238,695.9 238,421.3 914,421.3 	"/>
	<g>
		<defs>
			<polygon id="Bottom_Shape_27_" points="914,695.9 576,830.2 238,695.9 238,421.3 914,421.3 			"/>
		</defs>
		<clipPath id="Bottom_Shape_1_">
			<use xlink:href="#Bottom_Shape_27_"  overflow="visible"/>
		</clipPath>
		<g id="Scene_14_" clip-path="url(#Bottom_Shape_1_)">
			<rect id="Sky_14_" x="160.6" y="382.6" fill="#ECE8D5" width="845.9" height="381.4"/>
			<ellipse id="Sun_42_" fill="#3F647D" cx="576.3" cy="529.8" rx="97.7" ry="94"/>
			<ellipse id="Sun_41_" fill="#FBB670" cx="576.3" cy="529.8" rx="83.7" ry="80.6"/>
			<ellipse id="Sun_40_" fill="#F27323" cx="576.3" cy="529.8" rx="48.1" ry="46.3"/>
			<g id="Mountains_14_">
				<polygon fill="#3F647D" stroke="#3F647D" stroke-width="27" stroke-miterlimit="10" points="1059.1,770.5 877.3,688 877.3,688 
					714,613.8 676.2,633.5 575.7,567.2 463.7,643.7 405.1,612.9 405.1,612.9 405.1,612.9 405.1,612.9 160,753.5 				"/>
				<polygon fill="#B2AD9F" points="1059.1,770.5 579.3,907.4 160,753.5 405.1,612.9 463.7,643.7 575.7,567.2 676.2,633.5 
					714,613.8 				"/>
				<polygon fill="#FFFFFF" points="405.1,634.4 385.1,675.2 463.7,643.7 405.1,612.9 417.2,629 				"/>
				<polygon fill="#FFFFFF" points="688.6,649.3 761.5,668.2 754.7,683.8 785.1,705 814.1,674.8 877.3,688 714,613.8 				"/>
				<g>
					<polygon fill="#FFFFFF" points="552.2,628.8 534.6,644.7 534.6,669.3 606.1,620.3 676.2,633.5 575.7,567.2 534.6,621.2 					
						"/>
				</g>
			</g>
			<path fill="#3F647D" d="M854.4,706.5v11.4h-24v-17.8h-24.8v32.5h-13v-15.9h-43.6v32.9h-16.2v-12.6h-49v-30.6h-48.4v60.6h-26.4
				v-31h-32v6.3h-34.7v-24.1H537v-8.5h-17.5v-27.9h-51.1v55.1h-16.7v-28.3v-6.9c0-5.8,0-10.7,0-13.9c0-15.5-18.2-16.7-18.2-16.7
				v-15.5c-30.1,0-29.6,23.9-29.6,23.9v22.2l0-10v43.7h-5.4v-37.5l-10.5-0.1h-32.2v11.1h-48.4v8.2h-13.7v-9.8h-18.1v-15.3h-32.7
				v15.1v142.7h653.1V719.6v-13.2H854.4z"/>
		</g>
		<use xlink:href="#Bottom_Shape_27_"  overflow="visible" fill="none" stroke="#3F647D" stroke-width="2" stroke-miterlimit="10"/>
	</g>
	<path fill="#3F647D" d="M920.7,582.2H804.4c-4,0-7.2,3.2-7.2,7.2l0,0c0,4,3.2,7.2,7.2,7.2h116.4c4,0,7.2-3.2,7.2-7.2l0,0
		C927.9,585.5,924.7,582.2,920.7,582.2z"/>
	<path fill="#3F647D" d="M920.7,611h-74c-4,0-7.2,3.2-7.2,7.2l0,0c0,4,3.2,7.2,7.2,7.2h74c4,0,7.2-3.2,7.2-7.2l0,0
		C927.9,614.2,924.7,611,920.7,611z"/>
	<path fill="#3F647D" d="M920.7,639.8h-30.1c-4,0-7.2,3.2-7.2,7.2v0c0,4,3.2,7.2,7.2,7.2h30.1c4,0,7.2-3.2,7.2-7.2v0
		C927.9,643,924.7,639.8,920.7,639.8z"/>
	<path fill="#3F647D" d="M231.2,582.2h116.4c4,0,7.2,3.2,7.2,7.2l0,0c0,4-3.2,7.2-7.2,7.2H231.2c-4,0-7.2-3.2-7.2-7.2l0,0
		C224,585.5,227.2,582.2,231.2,582.2z"/>
	<path fill="#3F647D" d="M231.2,611h74c4,0,7.2,3.2,7.2,7.2l0,0c0,4-3.2,7.2-7.2,7.2h-74c-4,0-7.2-3.2-7.2-7.2l0,0
		C224,614.2,227.2,611,231.2,611z"/>
	<path fill="#3F647D" d="M231.2,639.8h30.1c4,0,7.2,3.2,7.2,7.2v0c0,4-3.2,7.2-7.2,7.2h-30.1c-4,0-7.2-3.2-7.2-7.2v0
		C224,643,227.2,639.8,231.2,639.8z"/>
</g>
<g id="Clouds_14_">
	<g id="clouds_Stroke_13_">
		<path fill="none" stroke="#3F647D" stroke-width="28" stroke-miterlimit="10" d="M447.6,81.6c-36.4,0-65.8,29.5-65.8,65.8
			c0,5.6,0.7,11,2,16.2c-0.4,0-0.8,0-1.2,0c-30.8,0-56.7,21.2-63.8,49.7c-3.1-0.3-6.3-0.5-9.5-0.5c-50.2,0-90.8,40.7-90.8,90.8
			s40.7,90.8,90.8,90.8s90.8-40.7,90.8-90.8c0-1.4,0-2.8-0.1-4.2c29.1-4.1,51.4-29,51.4-59.2c0-7.3-1.3-14.3-3.7-20.8
			c-0.3-1.9-0.7-3.9-1.1-5.7c2.8,0.4,5.7,0.6,8.6,0.6c32.8,0,59.4-26.6,59.4-59.4c0-4.4-0.5-8.7-1.4-12.9
			C510.5,108.3,482.1,81.6,447.6,81.6z"/>
		<path fill="none" stroke="#3F647D" stroke-width="28" stroke-miterlimit="10" d="M885,209c0.7-3.7,1-7.5,1-11.5
			c0-36.4-29.5-65.8-65.8-65.8c-5.9,0-11.6,0.8-17,2.2c-11.9-17.2-31.7-28.5-54.2-28.5c-7.6,0-14.9,1.3-21.6,3.7
			c-1.5-35-30.4-63-65.8-63c-36.4,0-65.8,29.5-65.8,65.8c0,8.4,1.6,16.4,4.4,23.7c6.6,26.7,30.7,46.5,59.4,46.5
			c6.9,0,13.6-1.2,19.8-3.3c-0.1,1.8-0.2,3.6-0.2,5.4c0,36.4,29.5,65.8,65.8,65.8c6.6,0,13-1,19-2.8c0.3,0.3,0.6,0.7,0.9,1
			c-7.7,12.7-12.2,27.7-12.2,43.7c0,32.6,18.5,60.8,45.6,74.8c15.1,11.1,33.7,17.7,53.9,17.7c50.2,0,90.8-40.7,90.8-90.8
			C943,255.1,918.9,222.2,885,209z"/>
	</g>
	<g id="Clouds_Left_13_">
		<circle fill="#FFFFFF" cx="447.6" cy="147.4" r="65.8"/>
		<circle fill="#FFFFFF" cx="309.2" cy="303.7" r="90.8"/>
		<circle fill="#FFFFFF" cx="382.6" cy="229.4" r="65.8"/>
		<circle fill="#ECE8D5" cx="391.6" cy="240.3" r="59.8"/>
		<circle fill="#ECE8D5" cx="455.2" cy="155" r="59.4"/>
		<circle fill="#ECE8D5" cx="310.1" cy="302.5" r="73"/>
	</g>
	<g id="Clouds_Right_14_">
		<circle fill="#FFFFFF" cx="820.2" cy="197.5" r="65.8"/>
		<circle fill="#FFFFFF" cx="749" cy="171.3" r="65.8"/>
		<circle fill="#FFFFFF" cx="661.6" cy="112" r="65.8"/>
		<circle fill="#ECE8D5" cx="659.6" cy="121" r="61.2"/>
		<circle fill="#FFFFFF" cx="852.1" cy="293.7" r="90.8"/>
		<circle fill="#ECE8D5" cx="811.2" cy="207.3" r="61.9"/>
		<circle fill="#ECE8D5" cx="745" cy="184.3" r="65.8"/>
		<circle fill="#ECE8D5" cx="836.8" cy="292" r="84.1"/>
	</g>
</g>
<g id="Banner_15_">
	<path id="Right_Banner_27_" fill="#4AC2EB" stroke="#3F647D" stroke-width="15" stroke-miterlimit="10" d="M862.9,383
		c88.6,2.4,176.4,27.6,256.9,74.8c-22.3,13.9-43.4,29.2-63.2,45.6c11.6,30.6,20.8,61.5,27.7,92.3c-69.5-42-145.5-63-221.4-63V383z"
		/>
	<path id="Right_Banner_26_" fill="#4AC2EB" stroke="#3F647D" stroke-width="15" stroke-miterlimit="10" d="M289.1,383
		c-88.6,2.4-176.4,27.6-256.9,74.8c22.3,13.9,43.4,29.2,63.2,45.6c-11.6,30.6-20.8,61.5-27.7,92.3c69.5-42,145.5-63,221.4-63V383z"
		/>
	<g id="Main_Banner_24_">
		<path fill="#4AC2EB" d="M938.4,573.8c-237.3-64.4-487.5-64.4-724.8,0c-12.9,3.5-26.4-3.7-30.1-16.4
			c-15.6-53.7-31.2-107.4-46.8-161.1c-3.7-12.7,5.4-26.5,20.5-30.6c274.3-74.5,563.5-74.5,837.8,0c15,4.1,24.2,17.9,20.5,30.6
			c-15.6,53.7-31.2,107.4-46.8,161.1C964.8,570.2,951.3,577.4,938.4,573.8z"/>
		<path fill="none" stroke="#3F647D" stroke-width="15" stroke-miterlimit="10" d="M938.4,573.8c-237.3-64.4-487.5-64.4-724.8,0
			c-12.9,3.5-26.4-3.7-30.1-16.4c-15.6-53.7-31.2-107.4-46.8-161.1c-3.7-12.7,5.4-26.5,20.5-30.6c274.3-74.5,563.5-74.5,837.8,0
			c15,4.1,24.2,17.9,20.5,30.6c-15.6,53.7-31.2,107.4-46.8,161.1C964.8,570.2,951.3,577.4,938.4,573.8z"/>
	</g>
	<g id="Mid_Line_24_">
		<path fill="#3F647D" d="M910,488.7c-218.3-62.2-449.7-62.2-668.1,0c-3.3,0.9-5.2,4.4-4.3,7.7c0,0,0,0,0,0c1,3.3,4.4,5.2,7.7,4.3
			c216.1-61.6,445.1-61.6,661.3,0c3.3,0.9,6.7-1,7.7-4.3c0,0,0,0,0,0C915.3,493.1,913.3,489.7,910,488.7z"/>
	</g>
	<g id="Denver_x2C_CO_2015_26_">
		<g>
			<path fill="#FFFFFF" d="M722.2,475c-6.6-0.8-11.9,3.1-12.6,9.5c0,0,0,0.1,0,0.1c2.2,0.2,4.4,0.5,6.6,0.7c0.3-2.8,2.2-4.4,5.1-4.1
				c2.2,0.2,3.9,1.8,3.6,4c-0.3,2.4-3,4.2-4.8,5.4c-4.2,3-8.3,6-12.4,9c-0.2,1.7-0.3,3.3-0.5,5c7.3,0.8,14.6,1.6,21.9,2.5
				c0.3-2.2,0.5-4.4,0.8-6.5c-3.5-0.4-7.1-0.8-10.6-1.2c1.6-1.1,3.2-2.3,4.8-3.4c3.7-2.6,7.2-5.2,7.8-9.9
				C732.4,480.3,728.1,475.7,722.2,475z"/>
			<path fill="#FFFFFF" d="M657.5,469.3c-9.1-0.6-17.2,6.1-17.7,15c-0.4,8.8,6.9,16.3,15.7,16.8c8.9,0.6,17-5.8,17.6-14.8
				C673.8,477.4,666.6,469.9,657.5,469.3z M656.1,494.8c-5.5-0.3-9.7-4.7-9.4-10.2c0.3-5.3,4.9-9.3,10.4-9c5.5,0.3,9.6,4.9,9.2,10.2
				C665.9,491,661.5,495.1,656.1,494.8z"/>
			<path fill="#FFFFFF" d="M400.9,479.6c1.4,10.1,2.8,20.2,4.2,30.3c2.2-0.3,4.4-0.6,6.7-0.9c-0.9-6.5-1.7-12.9-2.6-19.4
				c6.2,5.7,12.3,11.5,18.3,17.4c1.9-0.2,3.9-0.5,5.8-0.7c-1.2-10.1-2.3-20.3-3.5-30.4c-2.3,0.3-4.5,0.5-6.8,0.8
				c0.8,6.5,1.6,13,2.4,19.4c-6.1-5.8-12.2-11.6-18.5-17.4C404.9,479.1,402.9,479.3,400.9,479.6z"/>
			<path fill="#FFFFFF" d="M516.8,493.2c-5.6,0.3-11.2,0.6-16.8,0.9c-0.1-1.9-0.2-3.9-0.4-5.8c4.6-0.3,9.2-0.5,13.8-0.8
				c-0.1-1.9-0.2-3.9-0.3-5.8c-4.6,0.2-9.3,0.5-13.9,0.8c-0.1-2.1-0.3-4.2-0.4-6.3c5.7-0.3,11.3-0.7,17-0.9
				c-0.1-2.1-0.2-4.2-0.3-6.4c-8,0.4-16,0.8-23.9,1.4c0.7,10.2,1.4,20.4,2,30.6c7.8-0.5,15.6-1,23.4-1.3
				C517,497.4,516.9,495.3,516.8,493.2z"/>
			<path fill="#FFFFFF" d="M552.8,488.6c4-1.9,5.9-5.8,5.8-10.1c-0.1-6.9-4.7-10.9-11.8-10.7c-5.2,0.1-10.3,0.3-15.5,0.5
				c0.4,10.2,0.7,20.4,1.1,30.6c2.2-0.1,4.4-0.2,6.6-0.2c-0.1-2.9-0.2-5.8-0.3-8.6c1.9-0.1,3.7-0.1,5.6-0.2c2.2,2.8,4.3,5.7,6.4,8.5
				c2.6-0.1,5.3-0.1,7.9-0.1c-2.3-3.1-4.6-6.1-6.9-9.2C552.2,488.9,552.5,488.7,552.8,488.6z M546.8,483.9c-2.7,0.1-5.4,0.1-8.1,0.2
				c-0.1-3.4-0.2-6.8-0.3-10.3c2.7-0.1,5.4-0.2,8.1-0.2c3.4-0.1,5.6,1.7,5.6,5C552.2,482,550,483.9,546.8,483.9z"/>
			<path fill="#FFFFFF" d="M451.7,473.6c-2.5,0.2-5,0.5-7.4,0.8c5.3,9.7,10.5,19.5,15.6,29.2c2.4-0.2,4.8-0.4,7.1-0.7
				c3.3-10.5,6.6-21.1,10.1-31.6c-2.5,0.2-5,0.4-7.4,0.6c-2.4,8-4.7,15.9-6.9,23.9C459.2,488.4,455.5,481,451.7,473.6z"/>
			<path fill="#FFFFFF" d="M577.6,490c-2.4,0-4.5,2-4.4,4.4c0,2.4,1.5,3,2.9,4.6c-0.8,1.5-1.8,2.8-2.9,4.1c0.7,0.7,1.4,1.3,2.1,2
				c2.5-2.4,6.8-6.6,6.8-10.3C582,492.2,580.3,490,577.6,490z"/>
			<path fill="#FFFFFF" d="M611.9,492.8c-5.4-0.1-9.7-4.5-9.6-9.8c0.1-5.3,4.6-9.5,10.1-9.4c3.4,0.1,6.4,1.8,8.2,4.6
				c2.1-0.8,4.2-1.6,6.3-2.5c-2.9-5.1-8.3-8.3-14.3-8.5c-9.1-0.3-17,6.7-17.1,15.6c-0.1,8.9,7.4,16,16.2,16.3
				c5.8,0.2,11.4-2.7,14.6-7.5c-2-1-4.1-1.9-6.1-2.9C618.3,491.4,615.2,492.9,611.9,492.8z"/>
			<path fill="#FFFFFF" d="M760.6,480c-9-1.3-14.2,6.3-15.2,14c-1,7.7,1.9,16.3,10.7,17.6c8.8,1.3,14.1-6.1,15.3-13.8
				C772.6,490,769.6,481.3,760.6,480z M757,505.2c-4.8-0.7-5.5-6.6-4.9-10.4c0.5-3.8,2.8-9.3,7.6-8.6c4.9,0.7,5.5,6.6,5,10.4
				C764.2,500.4,761.8,505.9,757,505.2z"/>
			<path fill="#FFFFFF" d="M331.7,491.2c-4.8,0.9-9.6,1.9-14.4,2.9c2.1,10,4.1,20,6.2,30c4.7-1,9.4-1.9,14.1-2.8
				c9.1-1.8,13.2-9,11.7-17.8C347.6,494.7,341,489.4,331.7,491.2z M335.8,515.1c-2.3,0.5-4.6,0.9-7,1.4c-1.2-5.9-2.4-11.7-3.5-17.6
				c2.3-0.5,4.7-0.9,7-1.4c5.5-1.1,9.2,2,10.1,7.1C343.4,509.8,341.2,514.1,335.8,515.1z"/>
			<path fill="#FFFFFF" d="M786.4,493.8c1.6-0.3,3.1-0.5,4.7-0.8c-1.3,7.6-2.6,15.2-3.9,22.8c2.2,0.4,4.4,0.8,6.6,1.1
				c1.8-10.1,3.5-20.1,5.3-30.2c-1.6-0.3-3.1-0.5-4.7-0.8c-2.3,0.3-4.6,0.7-6.9,1.1C787.2,489.2,786.8,491.5,786.4,493.8z"/>
			<path fill="#FFFFFF" d="M388.9,505.9c-5.5,0.8-11.1,1.7-16.6,2.6c-0.3-1.9-0.6-3.8-0.9-5.7c4.6-0.8,9.1-1.5,13.7-2.2
				c-0.3-1.9-0.6-3.8-0.9-5.8c-4.6,0.7-9.2,1.4-13.8,2.2c-0.3-2.1-0.7-4.1-1-6.2c5.6-0.9,11.2-1.8,16.9-2.7c-0.3-2.1-0.6-4.2-1-6.3
				c-7.9,1.2-15.8,2.5-23.7,3.8c1.7,10.1,3.4,20.1,5.2,30.2c7.7-1.3,15.4-2.6,23.2-3.7C389.6,510.1,389.3,508,388.9,505.9z"/>
			<path fill="#FFFFFF" d="M825.6,502.6c-2.4-0.5-3.1-0.4-5.4,0.2c0.5-1.7,1.1-3.4,1.6-5.1c4,0.8,8.1,1.6,12.1,2.4
				c0.4-2.2,0.9-4.4,1.3-6.5c-5.7-1.2-11.3-2.3-17-3.4c-2,5-4,10.1-5.9,15.1c1.8,1.3,3.6,2.5,5.5,3.8c1.7-1,3.5-1.6,5.5-1.2
				c2.5,0.5,3.8,2.5,3.3,4.9c-0.5,2.7-3.2,3.7-5.8,3.2c-2.4-0.5-4-1.9-5.1-3.9c-2.1,0.7-4.2,1.4-6.3,2.2c2.1,4.2,5.6,7.1,10.2,8
				c6.2,1.2,12.4-1.7,13.8-8.1C834.5,508.8,831.3,503.8,825.6,502.6z"/>
		</g>
	</g>
	<g id="Gophercon_27_" display="none">
		<g display="inline">
			<path fill="#FFFFFF" d="M681,384.4c1.1-13-7.1-21.3-20.7-22.2c-9.9-0.6-19.8-1.2-29.7-1.6c-0.8,19.2-1.6,38.4-2.4,57.5
				c4.2,0.2,8.3,0.4,12.5,0.6c0.3-5.4,0.6-10.8,0.8-16.2c3.5,0.2,7,0.4,10.5,0.6c3.6,5.6,7.2,11.3,10.6,17c5,0.3,9.9,0.7,14.9,1.1
				c-3.7-6.1-7.5-12.2-11.3-18.3c0.6-0.2,1.2-0.4,1.8-0.7C676.1,399.3,680.3,392.4,681,384.4z M657.5,392.5
				c-5.1-0.3-10.2-0.6-15.3-0.9c0.3-6.4,0.7-12.8,1-19.3c5.2,0.3,10.4,0.6,15.6,0.9c6.5,0.4,10.4,4.1,9.9,10.4
				C668.2,389.8,663.7,392.9,657.5,392.5z"/>
			<path fill="#FFFFFF" d="M510.5,384.8c-9.6,0.5-19.3,1.1-28.9,1.8c-0.6-7.8-1.2-15.7-1.7-23.5c-4.4,0.3-8.7,0.7-13.1,1
				c1.6,19.1,3.2,38.2,4.8,57.4c4.2-0.3,8.3-0.7,12.5-1c-0.6-7.5-1.1-15-1.7-22.5c9.5-0.7,19.1-1.3,28.6-1.8
				c0.4,7.5,0.8,15,1.1,22.5c4.2-0.2,8.4-0.4,12.6-0.6c-0.8-19.2-1.6-38.4-2.4-57.5c-4.4,0.2-8.8,0.4-13.2,0.6
				C509.7,369.1,510.1,376.9,510.5,384.8z"/>
			<path fill="#FFFFFF" d="M555.4,417.3c14.7-0.2,29.3-0.2,44,0c0.1-4,0.1-7.9,0.2-11.9c-10.6-0.2-21.1-0.3-31.7-0.2
				c0-3.6,0-7.3-0.1-10.9c8.8-0.1,17.5,0,26.3,0.1c0.1-3.7,0.1-7.3,0.2-11c-8.8-0.1-17.7-0.2-26.5-0.1c0-3.9-0.1-7.9-0.1-11.8
				c10.8-0.1,21.7,0,32.5,0.2c0.1-4,0.1-8,0.2-12c-15.3-0.3-30.7-0.3-46-0.1C554.8,378.9,555.1,398.1,555.4,417.3z"/>
			<path fill="#FFFFFF" d="M414.9,369.5c-8.8,1.1-17.7,2.3-26.5,3.6c2.7,19,5.5,38,8.2,57c4.2-0.6,8.3-1.2,12.5-1.7
				c-0.6-4.5-1.2-9.1-1.8-13.6c4.3-0.6,8.6-1.1,13-1.7c13.8-1.7,21.7-11,20.3-24.6C439.2,375,428.9,367.7,414.9,369.5z M418.1,402.1
				c-4.1,0.5-8.1,1-12.2,1.6c-1-7.2-1.9-14.3-2.9-21.5c4.1-0.6,8.3-1.1,12.4-1.6c6.8-0.8,11.4,2.9,12.2,9.3
				C428.3,396.6,425.2,401.2,418.1,402.1z"/>
			<path fill="#FFFFFF" d="M250.7,436.8c4.9-1.3,9.8-2.6,14.8-3.8c0.3,1.2,0.6,2.4,0.9,3.6c-0.1,0.2-0.1,0.3-0.2,0.5
				c-2.4,5.5-6.2,9.4-12.3,11c-9.9,2.6-20.1-2.9-22.8-12.5c-2.7-9.6,3.4-19.7,13.6-22.4c5.1-1.3,10.6-0.7,14.9,2.1
				c2.9-3.1,5.8-6.2,8.8-9.2c-7.6-5.1-17.5-6.8-26.8-4.4c-17.2,4.5-27.9,21.5-23.2,37.5c4.7,16,22.2,24.7,38.5,20.4
				c4.7-1.3,11.7-4.6,13.3-12.2c0.4-0.1,0.9-0.2,1.3-0.3c0.6,2.4,1.2,4.8,1.8,7.2c3-0.7,6-1.5,9-2.2c-2.5-10.5-5-20.9-7.6-31.4
				c-8.8,2.1-17.7,4.4-26.5,6.7C249,430.5,249.9,433.6,250.7,436.8z"/>
			<path fill="#FFFFFF" d="M327.4,382.1c-17.2,3.3-29.2,19.6-25.5,35.8c3.6,16.3,20.6,26.1,36.9,23c16.4-3.2,28.3-18.5,25.6-35.1
				C361.7,389.3,344.8,378.8,327.4,382.1z M336.9,429.2c-10.2,2-20.1-3.8-22.2-14c-2.1-9.7,4.6-19.4,15-21.4
				c10.4-2,20.1,4.3,21.8,14.2C353.2,417.7,346.9,427.3,336.9,429.2z"/>
			<path fill="#FFFFFF" d="M735.8,416.5c-10.1-1.3-17.4-10.2-16.3-20.1c1.1-9.9,10.4-17,20.9-15.7c6.4,0.8,11.9,4.6,14.7,10.2
				c4.2-1.1,8.3-2.2,12.5-3.3c-4.4-10.1-14.2-17.3-25.7-18.7c-17.4-2.2-33.7,9.5-35.3,26.1c-1.6,16.6,11.3,31.2,27.8,33.3
				c10.9,1.4,21.9-2.8,28.9-11.2c-3.6-2.2-7.3-4.4-10.9-6.6C748.1,415.1,742,417.3,735.8,416.5z"/>
			<path fill="#FFFFFF" d="M928.9,407.9c-3.3,11.8-6.6,23.6-9.9,35.4c-6.5-14.6-13.3-29.1-20.4-43.5c-3.8-1-7.5-1.9-11.3-2.8
				c-4.6,18.6-9.1,37.3-13.7,55.9c4.1,1,8.2,2,12.3,3.1c3-11.9,6.1-23.7,9.1-35.6c6.9,14.4,13.6,28.9,19.9,43.3c3.5,1,7.1,2,10.6,3
				c5.4-18.4,10.7-36.9,16.1-55.3C937.4,410.3,933.2,409.1,928.9,407.9z"/>
			<path fill="#FFFFFF" d="M827.2,382.6c-17.2-3.4-34.4,7.3-37.1,23.7c-2.7,16.4,9.3,31.9,25.6,35.1c16.4,3.2,33.2-6.5,36.9-22.9
				C856.4,402.1,844.6,386,827.2,382.6z M818.4,429.8c-10.2-2-17.2-11.1-15.4-21.2c1.7-9.8,11.6-16.3,21.9-14.3
				c10.4,2,17,11.6,14.9,21.4C837.8,425.3,828.4,431.8,818.4,429.8z"/>
		</g>
	</g>
	<g id="Right_Shade_Lines_13_">
		<path fill="#3F647D" d="M987.8,469.9l-29.2-8.7c-3.8-1.1-7.8,1-8.9,4.8l0,0c-1.1,3.8,1,7.8,4.8,8.9l29.2,8.7
			c3.8,1.1,7.8-1,8.9-4.8l0,0C993.8,475,991.6,471,987.8,469.9z"/>
		<path fill="#3F647D" d="M996,442.3l-29.2-8.7c-3.8-1.1-7.8,1-8.9,4.8l0,0c-1.1,3.8,1,7.8,4.8,8.9l29.2,8.7c3.8,1.1,7.8-1,8.9-4.8
			l0,0C1002,447.4,999.8,443.4,996,442.3z"/>
		<path fill="#3F647D" d="M1004.2,414.7l-29.2-8.7c-3.8-1.1-7.8,1-8.9,4.8l0,0c-1.1,3.8,1,7.8,4.8,8.9l29.2,8.7
			c3.8,1.1,7.8-1,8.9-4.8l0,0C1010.2,419.9,1008,415.9,1004.2,414.7z"/>
		<path fill="#3F647D" d="M979.7,497.5l-29.3-8.7c-3.8-1.1-7.8,1-8.9,4.8v0c-1.1,3.8,1,7.8,4.8,8.9l29.3,8.7c3.8,1.1,7.8-1,8.9-4.8
			l0,0C985.6,502.6,983.5,498.6,979.7,497.5z"/>
		<path fill="#3F647D" d="M971.5,525l-28.8-8.6c-3.8-1.1-7.8,1-8.9,4.8l0,0c-1.1,3.8,1,7.8,4.8,8.9l28.8,8.6c3.8,1.1,7.8-1,8.9-4.8
			l0,0C977.4,530.2,975.3,526.2,971.5,525z"/>
	</g>
	<g id="Left_Shade_Lines_13_">
		<path fill="#3F647D" d="M164.2,469.9l29.2-8.7c3.8-1.1,7.8,1,8.9,4.8l0,0c1.1,3.8-1,7.8-4.8,8.9l-29.2,8.7c-3.8,1.1-7.8-1-8.9-4.8
			l0,0C158.2,475,160.4,471,164.2,469.9z"/>
		<path fill="#3F647D" d="M156,442.3l29.2-8.7c3.8-1.1,7.8,1,8.9,4.8l0,0c1.1,3.8-1,7.8-4.8,8.9l-29.2,8.7c-3.8,1.1-7.8-1-8.9-4.8h0
			C150,447.4,152.2,443.4,156,442.3z"/>
		<path fill="#3F647D" d="M147.8,414.7l29.2-8.7c3.8-1.1,7.8,1,8.9,4.8l0,0c1.1,3.8-1,7.8-4.8,8.9l-29.2,8.7c-3.8,1.1-7.8-1-8.9-4.8
			l0,0C141.8,419.9,144,415.9,147.8,414.7z"/>
		<path fill="#3F647D" d="M172.3,497.5l29.3-8.7c3.8-1.1,7.8,1,8.9,4.8l0,0c1.1,3.8-1,7.8-4.8,8.9l-29.3,8.7c-3.8,1.1-7.8-1-8.9-4.8
			l0,0C166.4,502.6,168.5,498.6,172.3,497.5z"/>
		<path fill="#3F647D" d="M180.5,525l28.8-8.6c3.8-1.1,7.8,1,8.9,4.8l0,0c1.1,3.8-1,7.8-4.8,8.9l-28.8,8.6c-3.8,1.1-7.8-1-8.9-4.8h0
			C174.6,530.2,176.7,526.2,180.5,525z"/>
	</g>
</g>
<g id="Plane_14_">
	<g id="PLANE_GROUP_14_">
		<path fill="none" stroke="#3F647D" stroke-width="20" stroke-miterlimit="10" d="M406.8,128.3c0-0.2,0.1-0.4,0.2-0.7
			c0,0,0-0.1,0-0.1c0.1-0.2,0.1-0.4,0.2-0.6c0-0.1,0-0.1,0.1-0.2c0.1-0.2,0.1-0.3,0.2-0.5c0-0.1,0.1-0.1,0.1-0.2
			c0.1-0.2,0.1-0.3,0.2-0.4c0-0.1,0.1-0.2,0.1-0.3c0.1-0.1,0.2-0.3,0.2-0.4c0.1-0.1,0.1-0.2,0.2-0.3c0.1-0.1,0.2-0.2,0.2-0.3
			c0.1-0.1,0.2-0.2,0.3-0.3c0.1-0.1,0.1-0.2,0.2-0.2c0.2-0.2,0.4-0.4,0.6-0.5c0,0,0,0,0,0c0.4-0.4,0.9-0.7,1.4-1
			c0.9-0.7,1.9-1.3,3-1.8c5-2.7,10.8-3.8,16.2-2.1c1.8,0.6,3.6,1.5,5.3,2.8c0.6,0.4,1.3,1.1,2.2,1.9c0.5,0.5,1,1,1.6,1.5
			c0.7,0.7,1.4,1.4,2.2,2.3c4.2,4.4,9.9,10.5,15.7,17c0.4,0.4,0.7,0.8,1.1,1.2c2.7,3,5.4,6.1,8,9.1c2.7-1.5,6.8-1.7,6.8-1.7l8,1
			c-0.5-1.5-1-2.9-1.6-4.4c-0.4-1.2-0.8-2.4-1.2-3.5c-1.2-3.4-2.3-7-3.4-10.8c-0.2-0.8-0.4-1.5-0.6-2.3c-0.4-1.5-0.8-3.1-1.2-4.8
			c-0.2-0.8-0.4-1.6-0.6-2.5c-0.3-1.3-0.6-2.6-0.8-3.9c-0.9,0.2-1.7,0.3-2.5,0.4c-0.3,0-1,0-1.4-1.2c-2.4-8.8-3.3-17.7-3.6-21.1
			c-0.1-1,0.3-1.6,0.3-1.6s0.8-1.4,3-2.1c-0.5-0.7-1.1-1.3-1.9-1.6c-7.7-2.6-15.5-10.5-12-20.7c3.5-10.1,12.9-11.6,22.4-8.2
			c3.2,1.2,7.2-1,10.3-2.7c0.7-0.6,1.4-1.2,2.1-1.8c0,0,0,0,0.1,0c2.2-1.8,4.5-3.4,6.9-5c0,0,0,0,0,0c0.8-0.5,1.6-1,2.5-1.5
			c0,0,0,0,0,0c2.5-1.5,5.1-2.8,7.9-4.1c0,0,0.1,0,0.1,0c2.7-1.2,5.5-2.3,8.4-3.3c0,0,0.1,0,0.1,0c0.9-0.3,1.9-0.6,2.9-0.9
			c0,0,0.1,0,0.1,0c1.9-0.6,3.9-1.1,5.9-1.6c0,0,0,0,0,0c1-0.2,2-0.4,3-0.6c0.1,0,0.1,0,0.2,0c5.7-1.1,11.5-1.8,17.4-1.9
			c4.8-0.1,9.1,0.2,13.1,0.8c2.5-0.1,5.1-0.6,6.2-2.2c4-6.3,11.1-9.1,19.8-3.4c7.1,4.6,8.3,11.3,6.7,16.3c2.4,3.3,6.3,9.8,10.9,20.9
			c1.5,3.9,3.7,10.8,1,14.5l-0.1,0.1c2.1,9.7,4.1,23.5,5.6,35.9c2.2-0.9,4.4-1.4,6.6-1.4c0.5,0,1,0,1,0c2.1,0.2,5.4-0.1,5.6,3.5
			c-0.8,0.1-1.4,0.1-1.8,0.2c6.7-0.6,13-1,19-1.3c0.4-0.2,0.7-0.4,1.1-0.6c0.3-0.2,0.5-0.3,0.7-0.4c0.2-0.1,0.4-0.2,0.5-0.3
			c0.1-0.1,0.2-0.1,0.2-0.1l0,0l0,0l0,0c1.4-0.3,1.8-0.6,2.4-1.1c0,0,0.1-0.1,0.1-0.1c0,0,0,0,0,0c0.1,0,0.2-0.1,0.3-0.2
			c0,0,0,0,0,0c0.2-0.1,0.6-0.3,1-0.5c0,0,0,0,0,0c0,0,0,0,0,0c0.2-0.1,0.4-0.2,0.6-0.3c0,0,0,0,0,0c0,0,0,0,0,0
			c0.3-0.2,0.7-0.4,1.2-0.6c0,0,0,0,0,0l0,0c0.4-0.2,0.9-0.4,1.4-0.7c0,0,0,0,0,0c1.7-0.8,3.8-1.9,6.2-3c0,0,0,0,0,0c0,0,0,0,0,0
			c0.3-0.1,0.5-0.3,0.8-0.4c0,0,0,0,0,0c0,0,0,0,0,0c0.6-0.3,1.2-0.6,1.8-0.9c0,0,0,0,0.1,0c0,0,0,0,0,0c0.7-0.3,1.3-0.6,2-1l0,0
			l0,0c0.7-0.3,1.3-0.6,2-0.9c0,0,0,0,0,0c0,0,0,0,0,0c0.8-0.4,1.6-0.7,2.4-1.1c0,0,0,0,0.1,0c0.8-0.4,1.7-0.8,2.5-1.2l48.6-18.4
			c4.1-1.9,9.1-3.3,14.4-4.1c0.1,0,0.2,0,0.3,0c1.9-0.3,3.8-0.5,5.8-0.6c0.2,0,0.4,0,0.6,0c0.6,0,1.2-0.1,1.8-0.1c0.2,0,0.4,0,0.5,0
			c1.1,0,2.2-0.1,3.3,0c0.2,0,0.4,0,0.6,0c0.6,0,1.1,0,1.7,0c0.3,0,0.5,0,0.8,0c3.2,0.2,6.4,0.5,9.3,1.1c0,0,0.1,0,0.1,0
			c0.8,0.2,1.6,0.4,2.4,0.6c0.1,0,0.2,0.1,0.3,0.1c0.9,0.2,1.7,0.5,2.5,0.8l3.8,1.3c0.5,0.2,1,0.4,1.4,0.5l0,0
			c0.1,0.1,0.2,0.1,0.4,0.2c0,0,0,0,0,0c0.4,0.2,0.7,0.3,1.1,0.5l0,0c0.1,0,0.2,0.1,0.2,0.1l0,0c0.9,0.4,1.7,0.9,2.4,1.5
			c0.1,0,0.1,0.1,0.2,0.1l0,0c0.7,0.5,1.4,1.1,2,1.7c0,0,0,0,0.1,0.1l0,0c0.3,0.3,0.5,0.5,0.7,0.8l0,0c0,0,0,0,0,0
			c0.3,0.3,0.5,0.7,0.7,1c0,0,0,0,0,0.1l0,0c0.2,0.3,0.4,0.6,0.5,0.9l0,0c0,0,0,0,0,0.1c0.3,0.7,0.6,1.4,0.7,2.1l0,0c0,0,0,0,0,0
			c0.4,1.8,0.3,3.8-0.4,5.8v0v0c-0.9,2.6-2.9,5.3-5.9,7.8l-29.1,23.4c0.8,0.3,1.2,0.5,1.2,0.5l0,0c0.8,0.2,1.6,0.4,2.4,0.7
			c47.9,14.7,78.2,73.9,55.6,127.9c-5.8,14-13,25.7-21.2,35.3l0,0c0,0,0,0,0,0c0,0,0,0,0,0l0,0c0,0,0,0,0,0l0,0l0,0
			c-0.6,0.7-1.2,1.4-1.8,2.1c-0.1,0.1-0.2,0.3-0.4,0.4c-0.5,0.5-1,1.1-1.4,1.6c-0.2,0.2-0.4,0.5-0.6,0.7c-0.4,0.4-0.8,0.8-1.2,1.3
			c-0.3,0.3-0.5,0.5-0.8,0.8c-0.4,0.4-0.7,0.7-1.1,1.1c-0.3,0.3-0.6,0.5-0.8,0.8c-0.4,0.3-0.7,0.7-1.1,1c-0.3,0.3-0.6,0.5-0.9,0.8
			c-0.3,0.3-0.7,0.6-1,0.9c-0.3,0.3-0.6,0.5-0.9,0.8c-0.3,0.3-0.7,0.6-1,0.9c-0.3,0.3-0.6,0.5-0.9,0.8c-0.3,0.3-0.7,0.6-1,0.9
			c-0.3,0.3-0.6,0.5-1,0.8c-0.3,0.3-0.7,0.6-1,0.8c-0.3,0.3-0.7,0.5-1,0.7c-0.3,0.3-0.7,0.5-1,0.8c-0.3,0.2-0.7,0.5-1,0.7
			c-0.3,0.2-0.7,0.5-1,0.7c-0.3,0.2-0.7,0.5-1,0.7c-0.3,0.2-0.7,0.5-1,0.7c-0.3,0.2-0.7,0.5-1,0.7c-0.3,0.2-0.7,0.5-1,0.7
			c-0.4,0.2-0.7,0.4-1.1,0.7c-0.3,0.2-0.7,0.4-1,0.6c-0.4,0.2-0.7,0.4-1.1,0.6c-0.3,0.2-0.7,0.4-1,0.6c-0.4,0.2-0.7,0.4-1.1,0.6
			c-0.3,0.2-0.7,0.4-1,0.6c-0.4,0.2-0.7,0.4-1.1,0.6c-0.3,0.2-0.7,0.4-1,0.6c-0.4,0.2-0.7,0.4-1.1,0.6c-0.4,0.2-0.7,0.4-1.1,0.5
			c-0.4,0.2-0.7,0.4-1.1,0.5c-0.4,0.2-0.7,0.3-1.1,0.5c-0.4,0.2-0.8,0.3-1.1,0.5c-0.4,0.2-0.7,0.3-1.1,0.5c-0.4,0.2-0.8,0.3-1.1,0.5
			c-0.4,0.2-0.7,0.3-1.1,0.5c-0.4,0.2-0.8,0.3-1.1,0.5c-0.4,0.1-0.7,0.3-1.1,0.4c-0.4,0.2-0.8,0.3-1.2,0.4c-0.4,0.1-0.7,0.3-1.1,0.4
			c-0.4,0.1-0.8,0.3-1.2,0.4c-0.4,0.1-0.7,0.3-1.1,0.4c-0.4,0.1-0.8,0.3-1.2,0.4c-0.4,0.1-0.7,0.2-1.1,0.4c-0.4,0.1-0.8,0.3-1.2,0.4
			c-0.4,0.1-0.7,0.2-1.1,0.3c-0.4,0.1-0.8,0.2-1.2,0.4c-0.3,0.1-0.7,0.2-1,0.3c-0.4,0.1-0.8,0.2-1.2,0.3c-0.3,0.1-0.7,0.2-1,0.3
			c-0.4,0.1-0.8,0.2-1.2,0.3c-0.3,0.1-0.7,0.2-1,0.3c-0.4,0.1-0.8,0.2-1.2,0.3c-0.3,0.1-0.7,0.2-1,0.2c-0.4,0.1-0.8,0.2-1.2,0.3
			c-0.3,0.1-0.7,0.1-1,0.2c-0.4,0.1-0.8,0.2-1.2,0.3c-0.3,0.1-0.7,0.1-1,0.2c-0.4,0.1-0.8,0.2-1.3,0.2c-0.3,0.1-0.7,0.1-1,0.2
			c-0.4,0.1-0.9,0.1-1.3,0.2c-0.3,0.1-0.7,0.1-1,0.2c-0.4,0.1-0.9,0.1-1.3,0.2c-0.3,0-0.7,0.1-1,0.1c-0.4,0.1-0.9,0.1-1.3,0.2
			c-0.3,0-0.6,0.1-1,0.1c-0.4,0.1-0.9,0.1-1.3,0.2c-0.3,0-0.6,0.1-1,0.1c-0.4,0-0.9,0.1-1.3,0.1c-0.3,0-0.6,0.1-0.9,0.1
			c-0.4,0-0.9,0.1-1.3,0.1c-0.3,0-0.6,0-0.9,0.1c-0.5,0-0.9,0.1-1.4,0.1c-0.3,0-0.6,0-0.9,0.1c-0.5,0-0.9,0.1-1.4,0.1
			c-0.3,0-0.6,0-0.9,0c-0.5,0-0.9,0-1.4,0.1c-0.3,0-0.6,0-0.8,0c-0.5,0-0.9,0-1.4,0c-0.3,0-0.5,0-0.8,0c-0.5,0-1,0-1.4,0
			c-0.3,0-0.5,0-0.8,0c-0.5,0-1,0-1.4,0c-0.3,0-0.5,0-0.8,0c-0.5,0-1,0-1.5,0c-0.2,0-0.5,0-0.7,0c-0.5,0-1,0-1.5,0
			c-0.2,0-0.5,0-0.7,0c-0.5,0-1,0-1.5-0.1c-0.2,0-0.4,0-0.6,0c-0.5,0-1-0.1-1.5-0.1c-0.2,0-0.4,0-0.6,0c-0.5,0-1-0.1-1.5-0.1
			c-0.2,0-0.4,0-0.6,0c-0.5,0-1.1-0.1-1.6-0.1c-0.2,0-0.4,0-0.5-0.1c-0.5-0.1-1.1-0.1-1.6-0.2c-0.2,0-0.3,0-0.5-0.1
			c-0.5-0.1-1.1-0.1-1.6-0.2c-0.1,0-0.3,0-0.4-0.1c-0.6-0.1-1.1-0.1-1.7-0.2c-0.1,0-0.2,0-0.4-0.1c-0.6-0.1-1.2-0.2-1.7-0.2
			c-0.1,0-0.2,0-0.3,0c-0.6-0.1-1.2-0.2-1.8-0.3c-0.1,0-0.2,0-0.2,0c-0.6-0.1-1.2-0.2-1.8-0.3c-0.1,0-0.1,0-0.2,0
			c-0.6-0.1-1.3-0.2-1.9-0.3c0,0-0.1,0-0.1,0c-4.5-0.8-8.9-1.9-13.1-3c0,0,0,0,0,0c0,0,0,0,0,0c0,0-0.1,0-0.1,0
			c-0.2-0.1-0.5-0.1-0.7-0.2l-4.3-1.2c-5.6-1.4-11.3-2.9-17.1-4.6l-0.2,0l0,0c-7.2-2.1-14.5-4.5-21.8-7.1c0,0-0.1,0-0.1,0
			c-7.3-2.6-14.7-5.3-22-8.2c0,0-0.1,0-0.1-0.1c-2.4-1-4.8-1.9-7.2-2.9c-0.1,0-0.1-0.1-0.2-0.1c-7.2-3-14.3-6-21.4-9.2
			c-0.2-0.1-0.4-0.2-0.6-0.3c-2.2-1-4.4-2-6.6-3c-0.2-0.1-0.4-0.2-0.6-0.3c-4.5-2.1-8.9-4.1-13.3-6.2c-0.2-0.1-0.4-0.2-0.6-0.3
			c-2.1-1-4.1-2-6.1-3c-0.3-0.2-0.7-0.3-1-0.5c-1.3-0.6-2.5-1.2-3.8-1.8l-79.9,40l-3.1,1.5c-4.9,3-12.8,5.7-21.8,6.9
			c-0.2,0-0.3,0-0.5,0.1c-1.2,0.1-2.4,0.3-3.6,0.4c-0.1,0-0.2,0-0.3,0c-10.7,0.8-22.4-0.5-32.2-5.6c-1.1-0.6-2.1-1.2-3-2
			c-0.3-0.2-0.6-0.5-0.9-0.8c-0.5-0.5-1.1-1.1-1.5-1.7c-0.5-0.6-0.9-1.2-1.2-1.8c-0.2-0.3-0.4-0.6-0.5-1c-1.3-2.6-1.9-5.6-1.9-8.6
			c0,0,0,0,0,0c0-3,0.8-6,2.1-8.9c0.2-0.5,0.5-0.9,0.7-1.3c1.1-2,2.6-3.8,4.3-5.4l69.7-50.1c-9.4-5.9-14.2-9.7-14.8-10.1
			c0,0-0.1,0-0.1,0l0,0c0,0,0,0,0,0c-7.6-5.4-14.5-14.7-12.5-28.4c0.1-1.1,0.3-2.2,0.6-3.3c0,0,0,0,0,0c0,0,0-0.1,0-0.1
			c0-0.1,0-0.1,0-0.2c0,0,0,0,0,0c0.3-1.3,0.6-2.5,0.9-3.7c0.1-0.5,0.3-0.9,0.4-1.4c0-0.1,0-0.2,0.1-0.2c0,0,0.4-1.3,0.9-2.4
			c2.4-6.1,5.8-10.3,9.8-13.3l-13.5-44.9C409.6,143.4,405.5,134.9,406.8,128.3"/>
		<g id="Plane_Group_2_13_">
			<path id="Right_Wing_13_" fill="#FFFFFF" d="M758.4,91.3c-12.5-4.4-32.6-3.3-44.6,2.3L665.3,112c-12,5.6-22.3,10.6-22.8,11
				c-0.5,0.5-1,0.8-2.4,1.1h0c0,0-1.5,0.9-3.4,1.9c-1.9,1.1-7.6,9.7-12.6,19.1c0,0,0,0-1,6c-1.4,7.9-17.1,17.8-21,22.2
				c-0.5,0.6-0.5,0.6-0.5,0.6c-0.9,0.5,8.7,4.3,21.3,8.5l20.6,6.8c12.6,4.1,31.2,0.6,41.4-7.8l81.7-65.5c10.2-8.5,8.3-18.9-4.2-23.3
				L758.4,91.3z"/>
			<path id="Right_Wing_Lighitng_13_" fill="#ECE8D5" d="M602,173.5c-0.5,0.6-0.5,0.6-0.5,0.6c0,0,0,0,0,0c0,0,0,0,0,0.1
				c0,0,0,0,0,0c0,0,0,0,0,0.1c0,0,0,0,0,0c0,0,0,0,0.1,0.1c0,0,0,0,0,0c0,0,0.1,0.1,0.1,0.1c0,0,0,0,0.1,0c0,0,0.1,0.1,0.1,0.1
				c0,0,0.1,0,0.1,0c0.1,0,0.1,0.1,0.2,0.1c0,0,0.1,0,0.1,0.1c0.1,0,0.2,0.1,0.3,0.1c0,0,0.1,0,0.1,0c0.1,0.1,0.2,0.1,0.3,0.2
				c0,0,0,0,0.1,0c1.2,0.6,3,1.3,5.2,2.2c6.1-5,14.6-11.7,15.6-17.4c1-6,1-6,1-6c5.1-9.5,10.7-18.1,12.6-19.1
				c1.9-1.1,3.4-1.9,3.4-1.9l0,0c1.4-0.3,1.8-0.6,2.4-1.1c0.5-0.5,10.8-5.4,22.8-11l48.6-18.4c12-5.6,32-6.7,44.6-2.3l3.8,1.3
				c4.6,1.6,7.7,4,9.4,6.8c0,0,0,0,0,0c0.7-2,0.8-3.9,0.4-5.7c0,0,0,0,0-0.1c-0.2-0.7-0.4-1.4-0.7-2.1c0,0,0-0.1,0-0.1
				c-0.2-0.3-0.3-0.6-0.5-0.9c0,0,0-0.1-0.1-0.1c-0.2-0.3-0.4-0.6-0.7-0.9c0,0,0,0,0,0c-0.2-0.3-0.5-0.6-0.7-0.8
				c-0.1-0.1-0.1-0.1-0.2-0.2c-0.6-0.6-1.2-1.1-1.9-1.6c-0.1-0.1-0.2-0.1-0.2-0.2c-0.3-0.2-0.6-0.4-0.9-0.6c-0.1,0-0.2-0.1-0.2-0.1
				c-0.4-0.2-0.8-0.5-1.2-0.7c-0.1,0-0.2-0.1-0.2-0.1c-0.3-0.2-0.7-0.3-1.1-0.5c-0.1-0.1-0.2-0.1-0.4-0.2c-0.5-0.2-0.9-0.4-1.4-0.5
				l-3.8-1.3c-3.3-1.1-7.1-1.9-11.1-2.3c-10.8-1.1-23.3,0.3-32.1,4c-0.4,0.2-0.9,0.4-1.3,0.6L665.3,112c-1.7,0.8-3.4,1.6-5,2.3
				c-0.7,0.3-1.4,0.6-2,1c-0.7,0.3-1.4,0.7-2.1,1c-0.3,0.1-0.6,0.3-0.9,0.4c-0.3,0.2-0.7,0.3-1,0.5c-0.3,0.1-0.6,0.3-0.9,0.4
				c-0.3,0.1-0.5,0.3-0.8,0.4c-2.8,1.3-5.1,2.5-6.8,3.3c-0.4,0.2-0.8,0.4-1.2,0.6c-0.2,0.1-0.4,0.2-0.6,0.3
				c-0.8,0.4-1.4,0.7-1.5,0.8c-0.5,0.5-1,0.8-2.4,1.1l0,0c0,0-0.6,0.3-1.5,0.9c-0.4,0.2-0.8,0.4-1.2,0.7c-0.2,0.1-0.5,0.3-0.7,0.4
				c-0.7,0.4-1.9,1.9-3.5,4c-0.3,0.4-0.5,0.7-0.8,1.1c-2.5,3.6-5.5,8.6-8.3,14c0,0,0,0-0.3,1.5c0,0.1-0.1,0.3-0.1,0.5
				c-0.2,0.9-0.4,2.2-0.7,4.1C621.6,159.2,605.9,169,602,173.5z"/>
			<path id="Back_Fin_13_" fill="#FFFFFF" d="M465.1,187.4l-41.1,3.5l-14.3-47.5c0,0-7-14.3,0.1-20c7.1-5.7,17.6-8.4,25.8-2.2
				c8.1,6.3,50.4,55.5,50.4,55.5L465.1,187.4z"/>
			<path id="Back_Fin_Lighitng_13_" fill="#ECE8D5" d="M429.4,128.4c7,5.3,38.8,42.1,47.9,52.7l8.5-4.4c0,0-42.2-49.3-50.4-55.5
				c-8.1-6.3-18.7-3.6-25.8,2.2c-1.6,1.3-2.5,3.1-2.9,5C413.7,124.2,422.4,123,429.4,128.4z"/>
		</g>
		<g id="Main_Gopher_Group_13_">
			<g id="Right_Ear_13_">
				<path fill="#4AC2EB" d="M582.9,36.8c8.7,5.7,8.6,14.4,5.2,19.4c-3.4,5,22,23-16.7,0.9c-38.7-22.1-12.4-10.6-8.4-16.9
					C567.1,34,574.2,31.2,582.9,36.8z"/>
				<path fill="#3F647D" d="M578.6,42.9c4.1,2.8,3.1,6,1.6,8.3c-1.5,2.3,1,5.5-7.3,1.3c-8.3-4.3-3.4-4.8-1.9-7.2
					C572.5,43,574.5,40.1,578.6,42.9z"/>
			</g>
			<path id="Goggle_Strap_Back_13_" fill="#3F647D" d="M464.5,97.9c0,0,1-1.8,4-2.4s2.8,3.9,2.8,3.9l-5.9,1.2l-0.9-1.4l-0.1-0.5
				C464.3,98.7,464.3,98.1,464.5,97.9z"/>
			<path id="Gopher_Body_13_" fill="#4AC2EB" d="M622.8,183.6l-12.5-30.1c0,0-5.8-60.5-11.6-74.6c-5.8-14.1-15.1-37.9-54.9-37.1
				c-5.9,0.1-11.7,0.7-17.4,1.9c-0.1,0-0.1,0-0.2,0c-1,0.2-2,0.4-3,0.6c0,0,0,0,0,0c-2,0.5-4,1-5.9,1.6c0,0-0.1,0-0.1,0
				c-1,0.3-1.9,0.6-2.9,0.9c0,0-0.1,0-0.1,0c-2.9,1-5.7,2.1-8.4,3.3c0,0-0.1,0-0.1,0c-2.7,1.2-5.4,2.6-7.9,4.1c0,0,0,0,0,0
				c-0.8,0.5-1.7,1-2.5,1.5c0,0,0,0,0,0c-2.4,1.6-4.7,3.2-6.9,5c0,0,0,0-0.1,0c-0.7,0.6-1.4,1.2-2.1,1.8c-3.1,1.7-7,3.9-10.3,2.7
				c-9.5-3.4-18.9-1.9-22.4,8.2c-3.5,10.1,4.3,18,12,20.7c1.8,0.6,2.7,2.9,3.3,5.3c0,0.1,0,0.2,0,0.2c0,0.9,0.1,1.7,0.1,2.6l0,0l0,0
				c0.7,8.7,1.9,16.2,3.4,22.9c0.2,0.8,0.4,1.7,0.6,2.5c0.4,1.6,0.8,3.2,1.2,4.8c0.2,0.8,0.4,1.5,0.6,2.3c1.1,3.8,2.2,7.3,3.4,10.8
				c0.4,1.2,0.8,2.4,1.2,3.5c0.9,2.4,1.7,4.8,2.6,7.3c0.5,1.4,1,2.8,1.5,4.3c0.2,0.6,0.4,1.2,0.6,1.8c1.5,4.5,2.9,9,4.2,14
				c6,24,14.7,43.8,14.7,43.8l29.8,2.9l13.7,1.4l6-1.8l31.8-9.4L622.8,183.6z"/>
			<path id="Left_Ear_Hole_13_" fill="#3F647D" d="M470.7,86.1c1.2-3.9,2.9-7.6,5.1-11.1c-1-0.1-2.1-0.2-3-0.5
				c-3.5-1.3-8.1-2.7-9.6,2.1c-1.5,4.9,2.2,7.2,5.8,8.5C469.6,85.3,470.2,85.7,470.7,86.1z"/>
			<path id="Goggle_Strap_13_" fill="#3F647D" d="M465.8,99.1L465.8,99.1c0,0-1.6,0.2-1.4-1.3c0,0-0.4,0.6-0.3,1.6
				c0.3,3.4,1.2,12.3,3.6,21.1c0.3,1.1,1.1,1.2,1.4,1.2c11-1.6,27.6-8.3,27.6-8.3c-3.3-6.4-7.2-22.5-7.2-22.5
				C479.8,96,471.8,97.7,465.8,99.1z"/>
			<path id="Goggle_Fill_13_" fill="#B2AD9F" d="M598.2,75c-7-17.2-12.5-22.8-12.7-23.1c-0.5-0.4-1-0.8-1.5-1
				c-2.6-1.4-7.3-0.9-7.3-0.9c-85.5,20.9-80.4,26.9-84.8,31.7c-1.8,2-2.3,9.3-2.3,9.3s3.9,16.1,7.2,22.5c1.1,2.7,0.3,4.4,4.5,7.3
				c5.6,3.9,83.6-16.3,98.3-33.6C601.6,84.2,599,77,598.2,75z"/>
			<g id="Goggle_Border_13_">
				<path fill="#3F647D" d="M506.9,123.6C506.9,123.6,506.9,123.6,506.9,123.6c-3.8,0.3-5.8,0.1-7.1-0.8c-3.5-2.4-4.2-4.4-4.8-6.7
					c-0.1-0.5-0.3-1-0.5-1.6c-3.4-6.6-7.2-22.3-7.4-23l-0.1-0.4l0-0.4c0.1-1.9,0.7-8.3,2.9-10.8c0.4-0.4,0.7-0.9,1.1-1.4
					c4.5-6.7,14.1-13.6,85-31l0.3-0.1c0,0,0.1,0,0.3,0c1.6-0.1,5.6-0.3,8.4,1.2c0.6,0.3,1.2,0.7,1.9,1.3l0.2,0.2
					c0.6,0.6,6.2,6.5,13.3,23.9c1.5,3.9,3.7,10.8,1,14.5l-0.1,0.1C588.1,104.5,526.1,122,506.9,123.6z M502.5,118.6
					c0.2,0.1,1.2,0.2,4,0c19-1.6,78.8-18.7,91-33c0.7-1.1,0.3-4.9-1.6-9.7c-6.3-15.6-11.4-21.4-12.1-22.2c-0.4-0.3-0.7-0.5-1-0.7
					c-1.2-0.7-3.7-0.8-5.6-0.6l-0.1,0c-74.7,18.3-79.2,25-81.9,28.9c-0.4,0.6-0.9,1.3-1.5,2c-0.6,0.7-1.4,4.1-1.6,7.4
					c0.6,2.4,4.1,16.1,6.9,21.6l0.1,0.2c0.4,0.9,0.6,1.7,0.7,2.3C500.1,116.3,500.3,117.1,502.5,118.6z"/>
			</g>
			<g id="Left_Eye_13_">
				<g>
					<g>
						<g>
							<g>
								<circle fill="#ECE8D5" cx="524.2" cy="92.8" r="20.4"/>
							</g>
							<g>
								<g>
									<circle fill="#3F647D" cx="524" cy="103.9" r="6.1"/>
									<circle fill="#FDFEFF" cx="521.6" cy="102.8" r="1.8"/>
								</g>
							</g>
						</g>
					</g>
				</g>
			</g>
			<g id="Right_Eye_13_">
				<g>
					<g>
						<g>
							<g>
								<circle fill="#ECE8D5" cx="570.8" cy="76.8" r="19.1"/>
							</g>
							<g>
								<g>
									<circle fill="#3F647D" cx="570.6" cy="87.1" r="5.7"/>
									<circle fill="#FDFEFF" cx="568.5" cy="86.2" r="1.8"/>
								</g>
							</g>
						</g>
					</g>
				</g>
			</g>
			<g id="Mouth_13_">
				<g>
					<g>
						<g>
							<path fill="#FFFFFF" d="M565.6,120.8c0.7,2.5-0.7,5-3.2,5.8l0,0c-2.5,0.7-5-0.7-5.8-3.2l-3.9-13.7c-0.7-2.5,0.7-5,3.2-5.8
								l0,0c2.5-0.7,5,0.7,5.8,3.2L565.6,120.8z"/>
						</g>
						<g>
							<path fill="#FFFFFF" d="M575.2,118c0.7,2.5-0.7,5-3.2,5.8l0,0c-2.5,0.7-5-0.7-5.8-3.2l-3.9-13.7c-0.7-2.5,0.7-5,3.2-5.8l0,0
								c2.5-0.7,5,0.7,5.8,3.2L575.2,118z"/>
						</g>
						<path fill="#FBB670" d="M578.1,105.9c-2.7,4.9-11.7,2-15.4,3.1c-3.8,1.1-9.9,8.3-14.7,5.6c-4.9-2.7-1.9-13.8,11.3-17.6
							C572.4,93.2,580.8,101,578.1,105.9z"/>
						
							<ellipse transform="matrix(0.9611 -0.2764 0.2764 0.9611 -5.1131 158.3571)" fill="#3F647D" cx="559.3" cy="97.3" rx="8.7" ry="4.9"/>
					</g>
				</g>
			</g>
		</g>
		<g id="Plane_Group_1_13_">
			<path id="Plane_Body_13_" fill="#FFFFFF" d="M700.4,129.8C700.4,129.8,700.4,129.8,700.4,129.8c-17.7-3.5-46.7-6.6-86.6-2.4
				c-0.9,1.4-2.2,2.5-3.9,3c-12.1,3.8-15.8,24.4-16.3,33.8s-17.5,23-21.6,28.7s-20.4,7.1-49.7,9.6c-16.8,1.4-27-12.6-32.6-24.8
				c-1.6-4.9-1.8-10.5,1.2-16.2c0,0-0.8-3.4-7-0.9c-17.1,6.6-35,14.4-53.7,23.6c-8.5,4.1-15.8,10.3-19,25.2
				c-3.2,14.9,3.6,25.1,11.7,30.8l0,0c0.1,0,79.9,62.9,258.7,100.1l21.3-123.7l14.2-65c4.5,0.9,13.3,2.7,13.3,2.7l8.6-11.9l-0.2-2.4
				C738.6,139.8,720.5,132.8,700.4,129.8z"/>
			<g id="Plane_body_Lighitng_13_">
				<path fill="#ECE8D5" d="M700.4,129.8C700.4,129.8,700.4,129.8,700.4,129.8c-17.7-3.5-46.7-6.6-86.6-2.4c-0.9,1.4-2.2,2.5-3.9,3
					c-7.2,2.2-11.4,10.4-13.7,18.6c39.5-4.1,68.4-1,85.9,2.5c0,0,0,0,0,0c13.6,2,26.2,5.9,33,8.1l1.8-8.2c4.5,0.9,13.3,2.7,13.3,2.7
					l8.6-11.9l-0.2-2.4C738.6,139.8,720.5,132.8,700.4,129.8z"/>
				<path fill="#FFFFFF" d="M698.6,173.1l-14.2,65l-17,99c4.6,1,9.3,2,14.1,3l21.3-123.7l8.9-40.7
					C710,175.4,702.6,173.9,698.6,173.1z"/>
			</g>
			<path id="Plane_Body_Lighting_Back_13_" fill="#ECE8D5" d="M490.8,161.5c0,0-0.8-3.4-7-0.9c-3.9,1.5-7.9,3.1-11.9,4.8l0.7-2.1
				l-14.8-8.9l3,8c0,0-1.4,8.3-7.3,10.9c-0.1,0.1-0.2,0.1-0.3,0.2c-7.6,3.4-15.3,7-23.2,10.8c-8.5,4.1-15.8,10.3-19,25.2
				c-1.3,6.3-0.9,11.7,0.6,16.3c0.1-1,0.3-2,0.5-3c1-4.8,2.5-8.7,4.3-11.9c7.2,4.6,28.9,18.1,19.9,10.9
				c-17.3-13.8-2.9-25.1-2.1-25.7c17.6-8.5,34.5-15.8,50.7-22.1c1.6-0.6,2.8-0.9,3.7-0.9C488.3,169.3,488.8,165.4,490.8,161.5z"/>
			
				<ellipse id="Propeller_Dark_13_" transform="matrix(0.9562 0.2927 -0.2927 0.9562 101.4683 -197.2093)" fill="#3F647D" cx="709.8" cy="240.5" rx="81.3" ry="95.1"/>
			<path id="Light_Orange_Accent_13_" fill="#FBB670" d="M740.9,140.5c-31.1-9.5-64.3,1.3-88.4,25.4l0,0l0,0c-1.6,1.6-3.2,3.3-4.7,5
				c0,0,0,0,0,0c-2.3,2.6-4.4,5.3-6.5,8.1c0,0.1-0.1,0.1-0.1,0.2c-1.3,1.8-2.6,3.7-3.9,5.7c-0.1,0.1-0.1,0.2-0.2,0.4
				c-0.6,0.9-1.1,1.8-1.7,2.7c0,0.1-0.1,0.1-0.1,0.2c-0.6,1-1.2,2-1.7,3c-0.1,0.1-0.1,0.2-0.2,0.3c-0.5,0.9-1,1.8-1.4,2.7
				c-0.1,0.2-0.2,0.4-0.3,0.6c-1,2-2,4-2.9,6.1c-0.1,0.2-0.2,0.5-0.3,0.7c-0.4,0.8-0.7,1.7-1.1,2.6c-0.1,0.2-0.2,0.4-0.3,0.6
				c-0.4,1-0.8,2.1-1.2,3.1c-0.1,0.2-0.2,0.5-0.3,0.7c-0.3,0.9-0.6,1.7-0.9,2.6c-0.1,0.3-0.2,0.6-0.3,0.9c-0.4,1.1-0.7,2.1-1,3.2
				c0,0,0,0,0,0c-0.2,0.5-0.3,1-0.5,1.5l0,0c0,0-9.5,44.4,12.2,60.6c12.8,9.5-9.7,4.6-30.4-1.1c-1.9,2.6-4.6,5-8.1,4.8
				c-118.6-12.3-176.4-72.9-176.4-72.9l0,0c-2.3-1.6-4.8-4.3-6.7-6.6c-0.9,2.3-1.7,5.2-2.4,8.1c0,0.2-0.1,0.8-0.2,1
				c-3.2,14.9,4,25.1,12.1,30.8l0,0c0,0,25.3,19.9,79.3,44c34.6,17.5,75.9,36,114.4,47.4l0,0l0.2,0.1c5.7,1.7,11.3,3.2,16.9,4.6
				l4.5,1.2c0.2,0.1,0.5,0.1,0.7,0.2c39.7,11,98.5,9.9,136.5-35.2l0,0l0,0c8.1-9.7,15.3-21.3,21.2-35.3
				C819.1,214.3,788.8,155.1,740.9,140.5z M778.8,260.1L778.8,260.1c-0.3,1-0.6,2-1,3c-0.1,0.2-0.1,0.3-0.2,0.5
				c-0.3,1-0.7,1.9-1,2.8c-0.1,0.2-0.1,0.3-0.2,0.5c-0.4,1-0.8,1.9-1.2,2.9c0,0,0,0,0,0c-0.4,1-0.9,2-1.3,3c0,0,0,0.1-0.1,0.1
				c-0.5,1-0.9,1.9-1.4,2.8c0,0.1-0.1,0.1-0.1,0.2c-1.5,2.9-3.2,5.7-5,8.4l0,0c-17.9,26.7-48.3,40.4-76.5,31.8
				c-35.8-11-54.4-53.8-41.6-95.6c4.7-15.5,13.1-28.7,23.6-38.6c1.7-1.6,3.4-3,5.1-4.4c0,0,0.1-0.1,0.1-0.1c1.8-1.4,3.6-2.7,5.4-3.9
				c0,0,0,0,0,0c0.6-0.4,1.2-0.8,1.8-1.1c0.1,0,0.1-0.1,0.2-0.1c0.6-0.4,1.2-0.7,1.8-1.1l0,0c1.3-0.7,2.5-1.4,3.8-2.1
				c0.1,0,0.1-0.1,0.2-0.1c0.6-0.3,1.1-0.6,1.7-0.8c0.1,0,0.2-0.1,0.3-0.1c0.6-0.3,1.2-0.6,1.8-0.8c0,0,0,0,0.1,0
				c1.3-0.5,2.6-1.1,3.9-1.5c0.1,0,0.2-0.1,0.3-0.1c0.5-0.2,1.1-0.4,1.6-0.5c0.1,0,0.2-0.1,0.4-0.1c0.6-0.2,1.2-0.4,1.8-0.5
				c0,0,0.1,0,0.1,0c0.7-0.2,1.4-0.4,2-0.5c0,0,0.1,0,0.1,0c0.6-0.1,1.2-0.3,1.8-0.4c0.2,0,0.3-0.1,0.5-0.1c0.5-0.1,1-0.2,1.5-0.3
				c0.2,0,0.3-0.1,0.5-0.1c0.6-0.1,1.2-0.2,1.8-0.3c0.1,0,0.1,0,0.2,0c0.7-0.1,1.3-0.2,2-0.2c0.1,0,0.2,0,0.3,0
				c0.5-0.1,1.1-0.1,1.6-0.1c0.2,0,0.4,0,0.6,0c0.5,0,1-0.1,1.4-0.1c0.2,0,0.4,0,0.6,0c0.6,0,1.1,0,1.7,0c0.1,0,0.2,0,0.2,0
				c0.7,0,1.3,0,2,0c0.2,0,0.3,0,0.5,0c0.5,0,1,0,1.5,0.1c0.2,0,0.4,0,0.7,0.1c0.5,0,0.9,0.1,1.4,0.1c0.2,0,0.4,0,0.6,0.1
				c0.6,0.1,1.2,0.1,1.7,0.2c0.1,0,0.1,0,0.2,0c0.6,0.1,1.3,0.2,1.9,0.3c0.2,0,0.4,0.1,0.6,0.1c0.5,0.1,0.9,0.2,1.4,0.3
				c0.2,0.1,0.5,0.1,0.7,0.2c0.4,0.1,0.9,0.2,1.3,0.3c0.2,0.1,0.4,0.1,0.6,0.2c0.6,0.2,1.3,0.3,1.9,0.5c0,0,0,0,0,0
				c25.7,7.9,42.6,32.2,45.3,60.8c0.1,0.6,0.1,1.3,0.2,1.9C783.4,237.8,782.2,249,778.8,260.1z"/>
			<g id="Dark_Orange_Accent_13_">
				<path fill="#F27323" d="M749.4,150c-28.2-8.6-58.6,5.1-76.5,31.8c17.9-16.9,41.8-24.2,64.3-17.3c35.8,11,54.4,53.8,41.6,95.6
					c-2.7,8.9-6.6,17-11.4,24.1c10.5-9.9,18.9-23.1,23.6-38.6C803.8,203.8,785.2,161,749.4,150z"/>
				<path fill="#F27323" d="M691.1,328.7c-47.9-14.7-72.8-71.9-55.6-127.9c4-13,9.8-24.7,17.1-35c-13,13-23.3,29.8-29.3,49.4
					c-0.2,0.5-0.3,1-0.5,1.5l0,0c0,0-9.5,44.4,12.2,60.6c12.4,9.2-8.3,4.9-28.5-0.6c-0.3,1.7-0.5,3.4-0.8,5.1l0,0
					c0,0-5.6,10.5-13.7,9.7c-117.9-11.9-170.8-70.1-170.8-70.2l0,0c-3.9-2.8-7.9-6.9-10.2-11.8c-3.5,15.3,3.7,26,11.9,31.8l0,0
					c0,0,25.3,19.9,79.3,44c39.8,20.1,88.7,41.7,131.8,52.1l4.3,1.2c0,0,0,0,0,0c0.3,0.1,0.6,0.2,0.8,0.2c0,0,0,0-0.1,0
					c0,0,0.1,0,0.1,0c0.5,0.1,1,0.3,1.5,0.4c39.6,10.5,97.4,8.8,134.9-35.7l0,0l0,0c0,0,0,0,0,0l0,0
					C751.3,327.8,722.2,338.3,691.1,328.7z"/>
			</g>
			<path id="Left_Wing_13_" fill="#FFFFFF" d="M585.4,236.7C551.1,213,505.8,211,490.7,216c-0.2,0.1-0.5,0.2-0.7,0.2
				c-2.3,0.8-4.1,1.6-5.5,2.2c-1.6,0.8-3,1.7-4.3,2.6l-112.2,80.6c-9.9,8.8-9.7,25.3,1.9,31.4c19.7,10.4,47.1,5.2,58.4-1.7
				l152.1-76.1C595,246.3,586.1,237.4,585.4,236.7z"/>
			<path id="Left_Wing_Lighting_13_" fill="#ECE8D5" d="M394,292.7l82.8-59.5c12.7-8.7,31.1-10.3,36.5-11c0.5-0.1-10.7-0.9-11.2-0.9
				c-4.5,0-9.2,0.2-9.2,0.2c-6.3,0.2-11.5,1-15.1,2.2c-0.2,0.1-0.5,0.2-0.7,0.2c-1,0.3-1.9,0.7-2.7,1l-106.6,76.6
				c-9.9,8.8-9.7,25.3,1.9,31.4c19.7,10.4,47.1,5.2,58.4-1.7l4-2c-11.7,1.5-25.2,0.6-36.3-5.2C384.3,318.1,384.2,301.6,394,292.7z"
				/>
			<path id="Seat_Border_13_" fill="#3F647D" d="M613.7,123.2c-8.8,0.1-16.8,6.9-23.1,19.7c-4.1,8.3-3.7,13.5-3.3,18.1
				c0.3,3.6,0.6,7-1.7,13.3c-2.2,6.1-7.6,10.9-11.8,13.8c-4.5,3.2-8.8,5.1-10,5.6c-16.3,4-28.6,5.9-37.4,5.9
				c-13.6,0-17.7-4.4-23.5-10.5c-1.1-1.2-2.3-2.4-3.5-3.6c-3.3-3.3-5-7-4.8-11.1l0.1-2.5l-10.4-5.8l-0.3,3.4
				c-0.5,5.7-1.4,13.2,6.5,21c1.1,1.1,2.2,2.3,3.2,3.3c5.3,5.6,10.8,11.4,22.2,13.5c3,0.6,6.5,0.9,10.3,0.9c2.4,0,5.1-0.1,7.8-0.4
				c9-0.8,19.8-2.7,33.3-6l0.8-0.2c0.9-0.4,23-9,29.5-27.1c3.2-8.9,2.7-14.3,2.4-18.6c-0.3-3.8-0.5-5.3,2.1-10.4
				c2.1-4.3,4.3-7.5,6.4-9.6c0.1-0.3,0.3-0.7,0.6-1c3.7-5.3,5.6-6,5.6-6h0c1.4-1.2,2.5-1.6,3.3-1.8c0.3-0.1,1.2-0.2,2.5-0.3
				c-0.2-3.6-3.6-3.3-5.6-3.5C614.7,123.2,614.2,123.2,613.7,123.2z"/>
		</g>
		<g id="Gopher_Hand_26_">
			<path id="Gopher_Hand_Stroke_13_" fill="#3F647D" d="M488.5,178.1c-1.3-5.2-2.8-10.1-4.4-14.8c-0.2-0.6-0.4-1.3-0.7-1.9
				c-0.5-1.5-1.1-3-1.6-4.5c-0.9-2.5-1.8-5.1-2.7-7.7c-0.1-0.3-0.2-0.6-0.3-0.9l-6.3-0.8l-0.4,0c-12.5,0.4-14.3,7.7-14.6,9.1
				c-1.2,7.5,1.3,13.3,6.9,16.1c3.1,1.5,15.9,5.7,24.5,7.3C488.8,179.3,488.6,178.7,488.5,178.1z"/>
			<path id="Gopher_Hand_27_" fill="#FBB670" d="M489.6,154.5l-16.5-2c0,0-8.3,0.3-9,4.4s0.1,8.1,3.8,9.9c3.7,1.8,25.2,8.5,27.7,6.6
				C498.1,171.6,492.9,154.9,489.6,154.5z"/>
		</g>
		<g id="Propeller_13_">
			
				<ellipse transform="matrix(0.9857 0.1686 -0.1686 0.9857 49.912 -117.345)" fill="#B2AD9F" cx="715.9" cy="235.2" rx="34.1" ry="39.5"/>
			<g>
				<path fill="#3F647D" d="M611.5,179.9c0,0-0.3,0.4-0.8,1c-0.3,0.3-0.6,0.7-1,1.2c-0.3,0.5-0.7,1.1-1.2,1.7
					c-0.5,0.6-0.9,1.4-1.4,2.2c-0.2,0.4-0.5,0.8-0.7,1.3c-0.2,0.4-0.5,0.9-0.7,1.4c-0.5,0.9-1,2-1.5,3.1c-0.5,1.1-1,2.3-1.5,3.5
					c-0.5,1.2-0.9,2.5-1.4,3.9c-0.4,1.4-0.9,2.7-1.3,4.2c-0.9,2.9-1.6,6-2.3,9.2c-0.6,3.2-1.2,6.6-1.6,10c-0.4,3.4-0.7,6.9-0.9,10.4
					c-0.2,3.5-0.2,7-0.1,10.4c0.1,3.4,0.3,6.8,0.6,10c0.3,3.2,0.8,6.3,1.3,9.1c0.3,1.4,0.5,2.8,0.9,4.1c0.2,0.7,0.3,1.3,0.5,1.9
					c0.2,0.6,0.3,1.2,0.5,1.8c0.6,2.4,1.4,4.5,2.1,6.4c0.3,0.9,0.7,1.8,1,2.5c0.3,0.8,0.6,1.5,1,2.1c0.3,0.6,0.6,1.2,0.8,1.6
					c0.3,0.5,0.5,0.8,0.7,1.1c0.4,0.6,0.5,1,0.5,1l0.2,0.3c2,3.6,0.8,8.2-2.8,10.3c-3.6,2-8.2,0.8-10.3-2.8
					c-0.2-0.3-0.3-0.6-0.4-0.9c0,0-0.2-0.5-0.6-1.4c-0.2-0.4-0.4-1-0.7-1.6c-0.2-0.6-0.5-1.4-0.8-2.2c-0.3-0.8-0.6-1.8-0.8-2.8
					c-0.3-1-0.6-2.1-0.8-3.3c-0.5-2.3-1.1-4.9-1.4-7.8c-0.1-0.7-0.2-1.4-0.3-2.2c-0.1-0.7-0.1-1.5-0.2-2.3c-0.2-1.5-0.2-3.1-0.3-4.7
					c-0.1-3.2-0.2-6.6-0.1-10.1c0.1-3.5,0.4-7.1,0.7-10.7c0.4-3.6,0.9-7.2,1.6-10.9c0.7-3.6,1.4-7.2,2.4-10.7
					c0.9-3.5,1.9-6.9,3-10.1c1.1-3.2,2.3-6.3,3.6-9.2c0.6-1.4,1.3-2.8,1.9-4.1c0.7-1.3,1.3-2.6,2-3.8c0.7-1.2,1.3-2.3,2-3.4
					c0.7-1,1.3-2,2-2.9c0.3-0.4,0.6-0.9,0.9-1.3c0.3-0.4,0.6-0.8,0.9-1.2c0.6-0.7,1.1-1.4,1.7-2c0.5-0.6,1-1.1,1.4-1.6
					c0.4-0.4,0.8-0.8,1.1-1.1C611.2,180.2,611.5,179.9,611.5,179.9z"/>
			</g>
			<g>
				<path fill="#3F647D" d="M844.7,181.3c0,0,0.1,0.4,0.4,1.2c0.1,0.4,0.3,0.9,0.5,1.4c0.2,0.6,0.5,1.4,0.7,2.3
					c0.1,0.4,0.3,0.9,0.4,1.4c0.1,0.5,0.2,0.9,0.4,1.4c0.3,1,0.6,2,0.8,3.2c0.5,2.3,1,4.8,1.4,7.6c0.1,0.7,0.2,1.4,0.3,2.1
					c0.1,0.7,0.2,1.5,0.2,2.2c0.2,1.5,0.3,3,0.4,4.6c0.1,1.6,0.2,3.2,0.3,4.8c0,1.7,0.1,3.3,0.1,5c0,3.4-0.1,6.9-0.3,10.5
					c-0.3,3.6-0.6,7.2-1,10.7c-0.5,3.6-1,7.1-1.7,10.6c-0.7,3.5-1.5,6.9-2.4,10.1c-0.9,3.2-1.9,6.3-2.9,9.2c-1,2.9-2.2,5.6-3.3,8
					c-1.2,2.4-2.3,4.6-3.5,6.4c-0.6,0.9-1.1,1.8-1.7,2.5c-0.6,0.8-1,1.5-1.5,2.1c-0.5,0.6-0.9,1.1-1.3,1.6c-0.4,0.4-0.8,0.8-1,1.1
					c-0.6,0.6-0.9,0.9-0.9,0.9s0.3-0.4,0.7-1c0.2-0.3,0.5-0.8,0.9-1.2c0.3-0.5,0.7-1.1,1.1-1.8c0.4-0.6,0.8-1.4,1.2-2.2
					c0.4-0.8,0.8-1.7,1.3-2.7c0.9-1.9,1.7-4.2,2.5-6.6c0.8-2.5,1.5-5.2,2.2-8.1c0.7-2.9,1.2-6,1.6-9.2c0.4-3.2,0.8-6.5,1-9.9
					c0.2-3.4,0.3-6.8,0.3-10.3c0-3.4-0.2-6.9-0.4-10.2c-0.3-3.4-0.6-6.7-1-9.8c-0.2-1.6-0.5-3.1-0.7-4.6c-0.3-1.5-0.5-3-0.8-4.4
					c-0.3-1.4-0.6-2.8-0.9-4.1c-0.2-0.7-0.3-1.3-0.5-1.9c-0.2-0.6-0.3-1.2-0.5-1.8c-0.7-2.4-1.4-4.5-2.1-6.4c-0.3-0.9-0.7-1.8-1-2.5
					c-0.2-0.4-0.3-0.8-0.5-1.1c-0.2-0.3-0.3-0.6-0.4-0.9c-0.3-0.6-0.5-1.1-0.7-1.6c-0.3-0.5-0.5-1-0.7-1.3c-0.4-0.7-0.6-1.1-0.6-1.1
					l0,0c-1.9-3.7-0.5-8.2,3.2-10.1s8.2-0.5,10.1,3.2C844.5,180.6,844.6,181,844.7,181.3z"/>
			</g>
			<g>
				<path fill="#3F647D" d="M822,177.4c0,0,0.2,0.3,0.5,1c0.2,0.3,0.3,0.7,0.6,1.2c0.2,0.6,0.5,1.2,0.8,1.9c0.2,0.4,0.3,0.7,0.5,1.1
					c0.1,0.4,0.3,0.8,0.4,1.2c0.3,0.8,0.7,1.7,0.9,2.7c0.6,1.9,1.3,4.1,1.8,6.4c0.3,1.2,0.6,2.4,0.8,3.7c0.3,1.3,0.5,2.6,0.7,3.9
					c0.5,2.7,0.8,5.5,1.1,8.5c0.3,2.9,0.5,6,0.6,9c0.1,3.1,0.1,6.2,0,9.3c-0.1,3.1-0.3,6.2-0.6,9.2c-0.3,3-0.7,6-1.2,8.8
					c-0.5,2.8-1.1,5.6-1.8,8.1c-0.6,2.6-1.4,4.9-2.2,7.1c-0.8,2.2-1.6,4.1-2.4,5.8c-0.8,1.7-1.6,3.1-2.3,4.2c-0.4,0.6-0.7,1.1-1,1.5
					c-0.3,0.4-0.6,0.8-0.8,1c-0.4,0.6-0.7,0.9-0.7,0.9s0.2-0.3,0.5-1c0.2-0.3,0.4-0.7,0.6-1.1c0.2-0.5,0.5-1,0.7-1.6
					c0.5-1.2,1.1-2.7,1.6-4.4c0.6-1.7,1-3.7,1.5-5.9c0.4-2.2,0.8-4.6,1-7.1c0.3-2.5,0.4-5.2,0.5-8c0-2.8,0-5.6-0.2-8.5
					c-0.2-2.9-0.4-5.8-0.8-8.8c-0.3-2.9-0.8-5.8-1.3-8.6c-0.6-2.8-1.1-5.6-1.8-8.2c-0.7-2.6-1.4-5.1-2.2-7.5
					c-0.4-1.2-0.8-2.3-1.2-3.4c-0.4-1.1-0.8-2.1-1.2-3.1c-0.8-1.9-1.6-3.7-2.4-5.1c-0.4-0.8-0.8-1.4-1.1-2c-0.2-0.3-0.3-0.6-0.5-0.9
					c-0.2-0.2-0.3-0.5-0.5-0.7c-0.3-0.5-0.5-0.9-0.8-1.2c-0.3-0.4-0.5-0.8-0.7-1.1c-0.4-0.6-0.6-0.9-0.6-0.9l0,0
					c-2.3-3.4-1.5-8.1,2-10.5c3.4-2.3,8.1-1.5,10.5,2C821.6,176.7,821.8,177,822,177.4z"/>
			</g>
			<g>
				<path fill="#3F647D" d="M620.3,194.3c0,0-0.2,0.3-0.6,0.9c-0.2,0.3-0.4,0.7-0.7,1.1c-0.2,0.5-0.5,1-0.8,1.6
					c-0.3,0.6-0.6,1.3-0.9,2c-0.3,0.7-0.6,1.5-1,2.4c-0.3,0.9-0.6,1.8-0.9,2.8c-0.3,1-0.6,2-0.9,3.1c-0.3,1.1-0.5,2.3-0.8,3.4
					c-0.2,1.2-0.5,2.4-0.7,3.7c-0.4,2.6-0.7,5.3-0.9,8.1c-0.4,5.6-0.4,11.6,0.1,17.5c0.2,3,0.6,5.9,1,8.8c0.5,2.9,1,5.7,1.6,8.4
					c0.6,2.7,1.3,5.2,2.1,7.6c0.8,2.3,1.5,4.5,2.4,6.5c0.8,2,1.7,3.7,2.4,5.1c0.4,0.7,0.8,1.4,1.1,2c0.3,0.6,0.7,1.2,1,1.6
					c0.6,1,1.2,1.7,1.5,2.1c0.4,0.5,0.5,0.7,0.5,0.7l0.2,0.2c2.5,3.3,1.9,8-1.5,10.5c-3.3,2.5-8,1.9-10.5-1.5
					c-0.2-0.3-0.4-0.6-0.6-1c0,0-0.2-0.4-0.6-1.1c-0.4-0.7-1-1.8-1.6-3.2c-0.3-0.7-0.7-1.5-1-2.3c-0.3-0.8-0.7-1.8-1-2.7
					c-0.7-2-1.4-4.2-2-6.6c-0.6-2.4-1.1-5-1.6-7.8c-0.4-2.8-0.8-5.7-1-8.7c-0.3-3-0.3-6.1-0.4-9.2c0-3.1,0.1-6.3,0.3-9.4
					c0.4-6.3,1.4-12.5,2.7-18.3c0.7-2.9,1.4-5.6,2.2-8.2c0.4-1.3,0.9-2.5,1.3-3.7c0.5-1.2,0.9-2.3,1.4-3.4c0.5-1.1,0.9-2.1,1.4-3
					c0.5-1,0.9-1.9,1.4-2.7c0.5-0.8,0.9-1.6,1.3-2.3c0.4-0.7,0.8-1.3,1.2-1.9c0.4-0.5,0.7-1,1.1-1.5c0.3-0.4,0.6-0.7,0.8-1
					C620.1,194.6,620.3,194.3,620.3,194.3z"/>
			</g>
			<path fill="#FFFFFF" stroke="#3F647D" stroke-width="8" stroke-miterlimit="10" d="M836.6,205.7L719,239.4l-109,58.5
				c-6,2.4-12.8-1.2-15.1-8l-3.4-9.9c-2.4-6.8,0.6-14.4,6.6-16.8l117.6-33.6l109-58.5c6-2.4,12.8,1.2,15.1,8l3.4,9.9
				C845.5,195.7,842.5,203.3,836.6,205.7z"/>
			<path fill="#B2AD9F" stroke="#3F647D" stroke-width="6" stroke-miterlimit="10" d="M742.1,226.2c3.2,11.9-2.6,24.2-13,27.6
				s-21.4-3.4-24.6-15.3c-3.2-11.9,2.6-24.2,13-27.6C727.9,207.5,738.9,214.4,742.1,226.2z"/>
			<path fill="#FFFFFF" d="M726.5,224.9c1.3,4.9-1.1,10-5.4,11.4s-8.9-1.4-10.2-6.3c-1.3-4.9,1.1-10,5.4-11.4
				C720.6,217.2,725.2,220,726.5,224.9z"/>
		</g>
		<polygon id="Color_Filler_13_" fill="#3F647D" points="511.2,297.9 500.8,305.8 521.6,305.8 511.2,297.9 500.8,305.8 521.6,305.8 
					"/>
	</g>
</g>
<g id="n4C1v9.tif_6_">
	<g>
		<g>
			<path fill="#FFFFFF" d="M897.9,446.9c3.1-12.7,6.4-26,9.7-39.3c1.4-5.5,2.8-6.3,8.6-4.8c4.7,1.3,5.4,2.4,4.3,6.9
				c-4.5,17.7-9.1,35.5-13.7,53.2c-0.6,2.5-0.4,5.9-4.4,6c-4.6,0.1-9-2.2-10.3-5.7c-3.9-10.3-7.8-20.7-11.9-31.1
				c-2.4-6.1-4.7-12.3-7.2-19c-2.2,10-4.4,19.6-6.5,29.2c-1,4.3-2,8.6-2.9,12.9c-0.6,2.8-2.2,4.1-5.1,3.3c-3-0.8-7.2-0.2-7-5.2
				c0-0.5,0.1-1.1,0.2-1.6c3.9-18.2,7.7-36.4,11.6-54.5c0.5-2.3,0.6-5.1,4.2-5.4c4.3-0.4,9.4,1.8,10.9,4.9c2.2,5,4.2,10.1,6.2,15.1
				C889.3,423.8,893.8,435.8,897.9,446.9z"/>
			<path fill="#FFFFFF" d="M318.7,418.5c-3.9-19.2,8.7-36.7,29.5-40.2c21.3-3.6,39.1,8.7,41.7,28.1c2.8,20.4-9.8,37.1-29.8,40.4
				C340,450.1,322.8,438.6,318.7,418.5z M350.6,389.3c-13.4,2.2-21.5,13.5-19.1,26.5c2.5,13.8,13.9,22.2,26.8,20.2
				c12.5-2,20.7-13.9,18.8-27.5C375.4,395.5,363.9,387.1,350.6,389.3z"/>
			<path fill="#FFFFFF" d="M795.7,447.6c-20.1-3.5-32.6-20.1-29.7-40.4c2.8-19.8,20.4-31.8,42-28c20.6,3.6,33.1,21.3,29.1,40.6
				C833.1,439.4,815.5,451,795.7,447.6z M778.9,409c-2.1,13.9,5.9,25.5,18.8,27.8c12.4,2.2,24.1-6.4,26.8-19.8
				c2.5-12.8-5.6-24.5-18.8-26.8C792.2,387.9,780.9,395.9,778.9,409z"/>
			<path fill="#FFFFFF" d="M292,433.3c-1.8,0.4-3.3,0.8-4.8,1c-4.6,0.9-6.1-0.1-7-4.3c-0.9-4,1.1-5.5,4.9-6.2
				c3.8-0.7,7.6-1.5,11.4-2.4c3.2-0.8,4.8,0.4,5.4,3.5c1.7,8.6,3.5,17.3,5.3,25.9c0.7,3.3-0.6,4.9-3.8,5.5c-3.2,0.7-5.6,0.5-6.1-3.3
				c-0.1-0.4-0.3-0.7-0.6-1.4c-4.6,5.2-9.7,9.1-16.5,10.8c-16.5,4.2-31.7-2.2-39.8-17.2c-7.6-14.2-5.1-31.4,7.2-41.9
				c11.7-10,25.6-12,40.2-8.1c3.2,0.8,4.6,2.6,3.1,5.8c-1.3,3-2,6.3-6.8,4.9c-8-2.4-16-1.7-23.5,2.3c-8.3,4.4-12.5,13-11.3,22.2
				c1.4,10.5,8.3,18.6,17.5,21c8.6,2.2,18.6-1,24.5-7.6C294.5,440.5,293.2,437.4,292,433.3z"/>
			<path fill="#FFFFFF" d="M659.4,402c4,8.2,7.8,16.2,11.5,24.2c1.8,3.8,0.7,5-3.6,5.2c-5.5,0.2-8.7-1.8-10.6-7.1
				c-2-5.5-5-10.7-7.4-16.2c-1.1-2.6-2.6-3.6-5.4-3.5c-2.6,0.1-5.3-0.2-8.4-0.4c-0.3,6.9-0.7,13.3-0.8,19.7
				c-0.1,3.8-1.5,5.5-5.5,5.2c-5.7-0.4-6.9-1-6.7-5.5c0.6-18.9,1.2-37.7,2-56.6c0.2-4.8,1.4-5.8,6.5-5.6c8,0.4,16.1,0.7,24,1.7
				c9.5,1.2,15.7,7.1,17.1,15.3c1.6,9.2-2.6,18.1-10.3,22.3C661,401.3,660.4,401.6,659.4,402z M636.1,394.1
				c5.2-0.1,9.9,0.2,14.5-0.2c4.8-0.4,7.7-3.9,8.2-9c0.6-5.8-1.1-9.4-6.3-10.7c-4.9-1.2-10.1-1.4-15.5-2
				C636.8,379.8,636.4,386.6,636.1,394.1z"/>
			<path fill="#FFFFFF" d="M490.3,391.8c11-0.7,21.4-1.2,32.2-1.6c-0.3-7.5-0.6-14.7-0.8-22c-0.2-5.9,3.9-8.7,9.9-6.4
				c1.2,0.5,2.5,2.4,2.6,3.7c0.7,19.7,1.3,39.3,1.9,59c0.1,3.5-1.9,4.5-5,4.5c-3.2,0-6.8,0.8-7-4c-0.3-6.3-0.5-12.7-0.8-19
				c-0.1-1.5-0.1-3-0.2-4.7c-10.7,0.4-21,0.9-31.9,1.6c0.1,1.8,0.2,3.7,0.3,5.5c0.3,5.4,0.7,10.7,1,16.1c0.3,5.7-4.4,9-9.6,6.4
				c-1.2-0.6-2.3-2.5-2.4-3.9c-1.5-19.2-2.9-38.4-4.2-57.7c-0.3-4.4,1.2-5.2,7-5.7c4.3-0.3,5.6,1.6,5.8,5.3
				C489.2,376.5,489.8,384,490.3,391.8z"/>
			<path fill="#FFFFFF" d="M424.4,413.4c0.7,6.3,1.3,12.1,2.1,17.9c0.5,3.6-0.7,5.4-4.5,5.7c-5.8,0.6-7.1,0.2-7.7-4.1
				c-2.4-18.8-4.6-37.7-7-56.5c-0.5-3.9,1-6,5.3-6.4c8.3-0.7,16.6-2.2,24.8-2.1c12.8,0.2,21.2,9,21.3,20.9
				c0.1,12.6-7.6,21.4-20.1,23C434.1,412.5,429.5,412.9,424.4,413.4z M420.9,379.9c0.9,7.9,1.7,15.2,2.6,22.8
				c4.7-0.5,9.3-0.7,13.7-1.6c6-1.2,9.3-6.3,8.7-12.5c-0.6-6.3-4.9-10.4-11.3-10.2C430.1,378.6,425.7,379.4,420.9,379.9z"/>
			<path fill="#FFFFFF" d="M572.7,399.3c0,6.3,0,11.9,0,17.9c1.3,0.1,2.5,0.3,3.7,0.3c6.7,0,13.4,0.1,20.2,0.2
				c5.6,0.1,6.6,1.3,6.2,6.7c-0.2,2.7-1.6,4-4.2,4c-11.2-0.2-22.5-0.3-33.7-0.1c-2.8,0-4-1.4-4.3-4c-0.1-0.8-0.1-1.6-0.1-2.5
				c-0.2-18-0.4-36.1-0.6-54.1c-0.1-6.2,0.8-7,7.2-7c9.8-0.1,19.6,0,29.3,0.1c5.1,0.1,6.1,1,6,5.4c-0.1,4.6-0.8,5.2-6.1,5.1
				c-7.7-0.1-15.3-0.2-23.3-0.1c0,5.9,0,11.6,0,17.8c5.9,0,11.9-0.1,17.9,0.1c4.7,0.1,6.1,1.7,5.6,6.2c-0.3,2.8-1.6,4.2-4.6,4.2
				C585.5,399.3,579.3,399.3,572.7,399.3z"/>
			<path fill="#FFFFFF" d="M722.3,437.3c-19.2-2.2-32.1-14.9-33.2-32.4c-1.2-18.9,10.5-34,29.4-36.7c11.3-1.6,21.7,1.1,30.8,7.7
				c3.9,2.8,4.1,4.5,1.4,7.9c-3.1,3.9-4.2,4-8.4,1.1c-8.7-6-18.3-8-28.1-3.4c-11.1,5.2-15.2,19.8-9.8,31.6
				c4.8,10.7,16.8,15.8,28.8,12.3c2.3-0.7,4.5-1.6,6.6-2.7c3.7-1.9,5.7-0.3,7.3,2.9c1.7,3.2,1.1,5.4-2.1,7.1
				C737.5,436.6,729.7,438.4,722.3,437.3z"/>
		</g>
	</g>
</g>
</svg>
