<?xml version="1.0" encoding="utf-8"?>
<!-- Generator: Adobe Illustrator 18.0.0, SVG Export Plug-In . SVG Version: 6.00 Build 0)  -->
<!DOCTYPE svg PUBLIC "-//W3C//DTD SVG 1.1//EN" "http://www.w3.org/Graphics/SVG/1.1/DTD/svg11.dtd">
<svg version="1.1" id="Layer_1" xmlns="http://www.w3.org/2000/svg" xmlns:xlink="http://www.w3.org/1999/xlink" x="0px" y="0px"
	 viewBox="0 0 1152 324" enable-background="new 0 0 1152 324" xml:space="preserve">
<g>
	<path id="Right_Banner_27_" fill="#4AC2EB" stroke="#3F647D" stroke-width="15" stroke-miterlimit="10" d="M862.9,92.1
		c88.6,2.4,176.4,27.6,256.9,74.8c-22.3,13.9-43.4,29.2-63.2,45.6c11.6,30.6,20.8,61.5,27.7,92.3c-69.5-42-145.5-63-221.4-63V92.1z"
		/>
	<path id="Right_Banner_26_" fill="#4AC2EB" stroke="#3F647D" stroke-width="15" stroke-miterlimit="10" d="M289.1,92.1
		c-88.6,2.4-176.4,27.6-256.9,74.8c22.3,13.9,43.4,29.2,63.2,45.6c-11.6,30.6-20.8,61.5-27.7,92.3c69.5-42,145.5-63,221.4-63V92.1z"
		/>
	<g id="Main_Banner_24_">
		<path fill="#4AC2EB" d="M938.4,283c-237.3-64.4-487.5-64.4-724.8,0c-12.9,3.5-26.4-3.7-30.1-16.4
			c-15.6-53.7-31.2-107.4-46.8-161.1c-3.7-12.7,5.4-26.5,20.5-30.6c274.3-74.5,563.5-74.5,837.8,0c15,4.1,24.2,17.9,20.5,30.6
			c-15.6,53.7-31.2,107.4-46.8,161.1C964.8,279.3,951.3,286.5,938.4,283z"/>
		<path fill="none" stroke="#3F647D" stroke-width="15" stroke-miterlimit="10" d="M938.4,283c-237.3-64.4-487.5-64.4-724.8,0
			c-12.9,3.5-26.4-3.7-30.1-16.4c-15.6-53.7-31.2-107.4-46.8-161.1c-3.7-12.7,5.4-26.5,20.5-30.6c274.3-74.5,563.5-74.5,837.8,0
			c15,4.1,24.2,17.9,20.5,30.6c-15.6,53.7-31.2,107.4-46.8,161.1C964.8,279.3,951.3,286.5,938.4,283z"/>
	</g>
	<g id="Mid_Line_24_">
		<path fill="#3F647D" d="M910,193.8c-218.3-62.2-449.7-62.2-668.1,0c-3.3,0.9-5.2,4.4-4.3,7.7l0,0c1,3.3,4.4,5.2,7.7,4.3
			c216.1-61.6,445.1-61.6,661.3,0c3.3,0.9,6.7-1,7.7-4.3l0,0C915.3,198.2,913.3,194.8,910,193.8z"/>
	</g>
	<g id="Denver_x2C_CO_2015_26_">
		<g>
			<path fill="#FFFFFF" d="M722.2,184.1c-6.6-0.8-11.9,3.1-12.6,9.5c0,0,0,0.1,0,0.1c2.2,0.2,4.4,0.5,6.6,0.7
				c0.3-2.8,2.2-4.4,5.1-4.1c2.2,0.2,3.9,1.8,3.6,4c-0.3,2.4-3,4.2-4.8,5.4c-4.2,3-8.3,6-12.4,9c-0.2,1.7-0.3,3.3-0.5,5
				c7.3,0.8,14.6,1.6,21.9,2.5c0.3-2.2,0.5-4.4,0.8-6.5c-3.5-0.4-7.1-0.8-10.6-1.2c1.6-1.1,3.2-2.3,4.8-3.4c3.7-2.6,7.2-5.2,7.8-9.9
				C732.4,189.4,728.1,184.8,722.2,184.1z"/>
			<path fill="#FFFFFF" d="M657.5,178.4c-9.1-0.6-17.2,6.1-17.7,15c-0.4,8.8,6.9,16.3,15.7,16.8c8.9,0.6,17-5.8,17.6-14.8
				C673.8,186.6,666.6,179,657.5,178.4z M656.1,203.9c-5.5-0.3-9.7-4.7-9.4-10.2c0.3-5.3,4.9-9.3,10.4-9c5.5,0.3,9.6,4.9,9.2,10.2
				C665.9,200.1,661.5,204.2,656.1,203.9z"/>
			<path fill="#FFFFFF" d="M400.9,188.7c1.4,10.1,2.8,20.2,4.2,30.3c2.2-0.3,4.4-0.6,6.7-0.9c-0.9-6.5-1.7-12.9-2.6-19.4
				c6.2,5.7,12.3,11.5,18.3,17.4c1.9-0.2,3.9-0.5,5.8-0.7c-1.2-10.1-2.3-20.3-3.5-30.4c-2.3,0.3-4.5,0.5-6.8,0.8
				c0.8,6.5,1.6,13,2.4,19.4c-6.1-5.8-12.2-11.6-18.5-17.4C404.9,188.2,402.9,188.4,400.9,188.7z"/>
			<path fill="#FFFFFF" d="M516.8,202.3c-5.6,0.3-11.2,0.6-16.8,0.9c-0.1-1.9-0.2-3.9-0.4-5.8c4.6-0.3,9.2-0.5,13.8-0.8
				c-0.1-1.9-0.2-3.9-0.3-5.8c-4.6,0.2-9.3,0.5-13.9,0.8c-0.1-2.1-0.3-4.2-0.4-6.3c5.7-0.3,11.3-0.7,17-0.9
				c-0.1-2.1-0.2-4.2-0.3-6.4c-8,0.4-16,0.8-23.9,1.4c0.7,10.2,1.4,20.4,2,30.6c7.8-0.5,15.6-1,23.4-1.3
				C517,206.5,516.9,204.4,516.8,202.3z"/>
			<path fill="#FFFFFF" d="M552.8,197.7c4-1.9,5.9-5.8,5.8-10.1c-0.1-6.9-4.7-10.9-11.8-10.7c-5.2,0.1-10.3,0.3-15.5,0.5
				c0.4,10.2,0.7,20.4,1.1,30.6c2.2-0.1,4.4-0.2,6.6-0.2c-0.1-2.9-0.2-5.8-0.3-8.6c1.9-0.1,3.7-0.1,5.6-0.2c2.2,2.8,4.3,5.7,6.4,8.5
				c2.6-0.1,5.3-0.1,7.9-0.1c-2.3-3.1-4.6-6.1-6.9-9.2C552.2,198,552.5,197.9,552.8,197.7z M546.8,193c-2.7,0.1-5.4,0.1-8.1,0.2
				c-0.1-3.4-0.2-6.8-0.3-10.3c2.7-0.1,5.4-0.2,8.1-0.2c3.4-0.1,5.6,1.7,5.6,5C552.2,191.1,550,193,546.8,193z"/>
			<path fill="#FFFFFF" d="M451.7,182.7c-2.5,0.2-5,0.5-7.4,0.8c5.3,9.7,10.5,19.5,15.6,29.2c2.4-0.2,4.8-0.4,7.1-0.7
				c3.3-10.5,6.6-21.1,10.1-31.6c-2.5,0.2-5,0.4-7.4,0.6c-2.4,8-4.7,15.9-6.9,23.9C459.2,197.5,455.5,190.1,451.7,182.7z"/>
			<path fill="#FFFFFF" d="M577.6,199.1c-2.4,0-4.5,2-4.4,4.4c0,2.4,1.5,3,2.9,4.6c-0.8,1.5-1.8,2.8-2.9,4.1c0.7,0.7,1.4,1.3,2.1,2
				c2.5-2.4,6.8-6.6,6.8-10.3C582,201.3,580.3,199.1,577.6,199.1z"/>
			<path fill="#FFFFFF" d="M611.9,201.9c-5.4-0.1-9.7-4.5-9.6-9.8c0.1-5.3,4.6-9.5,10.1-9.4c3.4,0.1,6.4,1.8,8.2,4.6
				c2.1-0.8,4.2-1.6,6.3-2.5c-2.9-5.1-8.3-8.3-14.3-8.5c-9.1-0.3-17,6.7-17.1,15.6c-0.1,8.9,7.4,16,16.2,16.3
				c5.8,0.2,11.4-2.7,14.6-7.5c-2-1-4.1-1.9-6.1-2.9C618.3,200.5,615.2,202,611.9,201.9z"/>
			<path fill="#FFFFFF" d="M760.6,189.1c-9-1.3-14.2,6.3-15.2,14c-1,7.7,1.9,16.3,10.7,17.6c8.8,1.3,14.1-6.1,15.3-13.8
				C772.6,199.1,769.6,190.4,760.6,189.1z M757,214.3c-4.8-0.7-5.5-6.6-4.9-10.4c0.5-3.8,2.8-9.3,7.6-8.6c4.9,0.7,5.5,6.6,5,10.4
				C764.2,209.5,761.8,215,757,214.3z"/>
			<path fill="#FFFFFF" d="M331.7,200.3c-4.8,0.9-9.6,1.9-14.4,2.9c2.1,10,4.1,20,6.2,30c4.7-1,9.4-1.9,14.1-2.8
				c9.1-1.8,13.2-9,11.7-17.8C347.6,203.8,341,198.5,331.7,200.3z M335.8,224.2c-2.3,0.5-4.6,0.9-7,1.4c-1.2-5.9-2.4-11.7-3.5-17.6
				c2.3-0.5,4.7-0.9,7-1.4c5.5-1.1,9.2,2,10.1,7.1C343.4,218.9,341.2,223.2,335.8,224.2z"/>
			<path fill="#FFFFFF" d="M786.4,202.9c1.6-0.3,3.1-0.5,4.7-0.8c-1.3,7.6-2.6,15.2-3.9,22.8c2.2,0.4,4.4,0.8,6.6,1.1
				c1.8-10.1,3.5-20.1,5.3-30.2c-1.6-0.3-3.1-0.5-4.7-0.8c-2.3,0.3-4.6,0.7-6.9,1.1C787.2,198.3,786.8,200.6,786.4,202.9z"/>
			<path fill="#FFFFFF" d="M388.9,215c-5.5,0.8-11.1,1.7-16.6,2.6c-0.3-1.9-0.6-3.8-0.9-5.7c4.6-0.8,9.1-1.5,13.7-2.2
				c-0.3-1.9-0.6-3.8-0.9-5.8c-4.6,0.7-9.2,1.4-13.8,2.2c-0.3-2.1-0.7-4.1-1-6.2c5.6-0.9,11.2-1.8,16.9-2.7c-0.3-2.1-0.6-4.2-1-6.3
				c-7.9,1.2-15.8,2.5-23.7,3.8c1.7,10.1,3.4,20.1,5.2,30.2c7.7-1.3,15.4-2.6,23.2-3.7C389.6,219.2,389.3,217.1,388.9,215z"/>
			<path fill="#FFFFFF" d="M825.6,211.7c-2.4-0.5-3.1-0.4-5.4,0.2c0.5-1.7,1.1-3.4,1.6-5.1c4,0.8,8.1,1.6,12.1,2.4
				c0.4-2.2,0.9-4.4,1.3-6.5c-5.7-1.2-11.3-2.3-17-3.4c-2,5-4,10.1-5.9,15.1c1.8,1.3,3.6,2.5,5.5,3.8c1.7-1,3.5-1.6,5.5-1.2
				c2.5,0.5,3.8,2.5,3.3,4.9c-0.5,2.7-3.2,3.7-5.8,3.2c-2.4-0.5-4-1.9-5.1-3.9c-2.1,0.7-4.2,1.4-6.3,2.2c2.1,4.2,5.6,7.1,10.2,8
				c6.2,1.2,12.4-1.7,13.8-8.1C834.5,217.9,831.3,212.9,825.6,211.7z"/>
		</g>
	</g>
	<g id="Right_Shade_Lines_13_">
		<path fill="#3F647D" d="M987.8,179l-29.2-8.7c-3.8-1.1-7.8,1-8.9,4.8v0c-1.1,3.8,1,7.8,4.8,8.9l29.2,8.7c3.8,1.1,7.8-1,8.9-4.8v0
			C993.8,184.1,991.6,180.1,987.8,179z"/>
		<path fill="#3F647D" d="M996,151.4l-29.2-8.7c-3.8-1.1-7.8,1-8.9,4.8v0c-1.1,3.8,1,7.8,4.8,8.9l29.2,8.7c3.8,1.1,7.8-1,8.9-4.8v0
			C1002,156.6,999.8,152.6,996,151.4z"/>
		<path fill="#3F647D" d="M1004.2,123.8l-29.2-8.7c-3.8-1.1-7.8,1-8.9,4.8v0c-1.1,3.8,1,7.8,4.8,8.9l29.2,8.7c3.8,1.1,7.8-1,8.9-4.8
			l0,0C1010.2,129,1008,125,1004.2,123.8z"/>
		<path fill="#3F647D" d="M979.7,206.6l-29.3-8.7c-3.8-1.1-7.8,1-8.9,4.8v0c-1.1,3.8,1,7.8,4.8,8.9l29.3,8.7c3.8,1.1,7.8-1,8.9-4.8
			v0C985.6,211.7,983.5,207.7,979.7,206.6z"/>
		<path fill="#3F647D" d="M971.5,234.1l-28.8-8.6c-3.8-1.1-7.8,1-8.9,4.8v0c-1.1,3.8,1,7.8,4.8,8.9l28.8,8.6c3.8,1.1,7.8-1,8.9-4.8
			v0C977.4,239.3,975.3,235.3,971.5,234.1z"/>
	</g>
	<g id="Left_Shade_Lines_13_">
		<path fill="#3F647D" d="M164.2,179l29.2-8.7c3.8-1.1,7.8,1,8.9,4.8v0c1.1,3.8-1,7.8-4.8,8.9l-29.2,8.7c-3.8,1.1-7.8-1-8.9-4.8v0
			C158.2,184.1,160.4,180.1,164.2,179z"/>
		<path fill="#3F647D" d="M156,151.4l29.2-8.7c3.8-1.1,7.8,1,8.9,4.8v0c1.1,3.8-1,7.8-4.8,8.9l-29.2,8.7c-3.8,1.1-7.8-1-8.9-4.8l0,0
			C150,156.6,152.2,152.6,156,151.4z"/>
		<path fill="#3F647D" d="M147.8,123.8l29.2-8.7c3.8-1.1,7.8,1,8.9,4.8v0c1.1,3.8-1,7.8-4.8,8.9l-29.2,8.7c-3.8,1.1-7.8-1-8.9-4.8
			l0,0C141.8,129,144,125,147.8,123.8z"/>
		<path fill="#3F647D" d="M172.3,206.6l29.3-8.7c3.8-1.1,7.8,1,8.9,4.8l0,0c1.1,3.8-1,7.8-4.8,8.9l-29.3,8.7c-3.8,1.1-7.8-1-8.9-4.8
			v0C166.4,211.7,168.5,207.7,172.3,206.6z"/>
		<path fill="#3F647D" d="M180.5,234.1l28.8-8.6c3.8-1.1,7.8,1,8.9,4.8v0c1.1,3.8-1,7.8-4.8,8.9l-28.8,8.6c-3.8,1.1-7.8-1-8.9-4.8
			l0,0C174.6,239.3,176.7,235.3,180.5,234.1z"/>
	</g>
	<g id="n4C1v9.tif_6_">
		<g>
			<g>
				<path fill="#FFFFFF" d="M897.9,144c3.1-12.7,6.4-26,9.7-39.3c1.4-5.5,2.8-6.3,8.6-4.8c4.7,1.3,5.4,2.4,4.3,6.9
					c-4.5,17.7-9.1,35.5-13.7,53.2c-0.6,2.5-0.4,5.9-4.4,6c-4.6,0.1-9-2.2-10.3-5.7c-3.9-10.3-7.8-20.7-11.9-31.1
					c-2.4-6.1-4.7-12.3-7.2-19c-2.2,10-4.4,19.6-6.5,29.2c-1,4.3-2,8.6-2.9,12.9c-0.6,2.8-2.2,4.1-5.1,3.3c-3-0.8-7.2-0.2-7-5.2
					c0-0.5,0.1-1.1,0.2-1.6c3.9-18.2,7.7-36.4,11.6-54.5c0.5-2.3,0.6-5.1,4.2-5.4c4.3-0.4,9.4,1.8,10.9,4.9c2.2,5,4.2,10.1,6.2,15.1
					C889.3,120.9,893.8,132.9,897.9,144z"/>
				<path fill="#FFFFFF" d="M318.7,115.6c-3.9-19.2,8.7-36.7,29.5-40.2c21.3-3.6,39.1,8.7,41.7,28.1c2.8,20.4-9.8,37.1-29.8,40.4
					C340,147.2,322.8,135.7,318.7,115.6z M350.6,86.4c-13.4,2.2-21.5,13.5-19.1,26.5c2.5,13.8,13.9,22.2,26.8,20.2
					c12.5-2,20.7-13.9,18.8-27.5C375.4,92.6,363.9,84.2,350.6,86.4z"/>
				<path fill="#FFFFFF" d="M795.7,144.7c-20.1-3.5-32.6-20.1-29.7-40.4c2.8-19.8,20.4-31.8,42-28c20.6,3.6,33.1,21.3,29.1,40.6
					C833.1,136.5,815.5,148.1,795.7,144.7z M778.9,106.1c-2.1,13.9,5.9,25.5,18.8,27.8c12.4,2.2,24.1-6.4,26.8-19.8
					c2.5-12.8-5.6-24.5-18.8-26.8C792.2,85,780.9,93,778.9,106.1z"/>
				<path fill="#FFFFFF" d="M292,130.4c-1.8,0.4-3.3,0.8-4.8,1c-4.6,0.9-6.1-0.1-7-4.3c-0.9-4,1.1-5.5,4.9-6.2
					c3.8-0.7,7.6-1.5,11.4-2.4c3.2-0.8,4.8,0.4,5.4,3.5c1.7,8.6,3.5,17.3,5.3,25.9c0.7,3.3-0.6,4.9-3.8,5.5
					c-3.2,0.7-5.6,0.5-6.1-3.3c-0.1-0.4-0.3-0.7-0.6-1.4c-4.6,5.2-9.7,9.1-16.5,10.8c-16.5,4.2-31.7-2.2-39.8-17.2
					c-7.6-14.2-5.1-31.4,7.2-41.9c11.7-10,25.6-12,40.2-8.1c3.2,0.8,4.6,2.6,3.1,5.8c-1.3,3-2,6.3-6.8,4.9c-8-2.4-16-1.7-23.5,2.3
					c-8.3,4.4-12.5,13-11.3,22.2c1.4,10.5,8.3,18.6,17.5,21c8.6,2.2,18.6-1,24.5-7.6C294.5,137.6,293.2,134.5,292,130.4z"/>
				<path fill="#FFFFFF" d="M659.4,99.1c4,8.2,7.8,16.2,11.5,24.2c1.8,3.8,0.7,5-3.6,5.2c-5.5,0.2-8.7-1.8-10.6-7.1
					c-2-5.5-5-10.7-7.4-16.2c-1.1-2.6-2.6-3.6-5.4-3.5c-2.6,0.1-5.3-0.2-8.4-0.4c-0.3,6.9-0.7,13.3-0.8,19.7
					c-0.1,3.8-1.5,5.5-5.5,5.2c-5.7-0.4-6.9-1-6.7-5.5c0.6-18.9,1.2-37.7,2-56.6c0.2-4.8,1.4-5.8,6.5-5.6c8,0.4,16.1,0.7,24,1.7
					c9.5,1.2,15.7,7.1,17.1,15.3c1.6,9.2-2.6,18.1-10.3,22.3C661,98.4,660.4,98.7,659.4,99.1z M636.1,91.2c5.2-0.1,9.9,0.2,14.5-0.2
					c4.8-0.4,7.7-3.9,8.2-9c0.6-5.8-1.1-9.4-6.3-10.7c-4.9-1.2-10.1-1.4-15.5-2C636.8,76.9,636.4,83.7,636.1,91.2z"/>
				<path fill="#FFFFFF" d="M490.3,88.9c11-0.7,21.4-1.2,32.2-1.6c-0.3-7.5-0.6-14.7-0.8-22c-0.2-5.9,3.9-8.7,9.9-6.4
					c1.2,0.5,2.5,2.4,2.6,3.7c0.7,19.7,1.3,39.3,1.9,59c0.1,3.5-1.9,4.5-5,4.5c-3.2,0-6.8,0.8-7-4c-0.3-6.3-0.5-12.7-0.8-19
					c-0.1-1.5-0.1-3-0.2-4.7c-10.7,0.4-21,0.9-31.9,1.6c0.1,1.8,0.2,3.7,0.3,5.5c0.3,5.4,0.7,10.7,1,16.1c0.3,5.7-4.4,9-9.6,6.4
					c-1.2-0.6-2.3-2.5-2.4-3.9c-1.5-19.2-2.9-38.4-4.2-57.7c-0.3-4.4,1.2-5.2,7-5.7c4.3-0.3,5.6,1.6,5.8,5.3
					C489.2,73.6,489.8,81.1,490.3,88.9z"/>
				<path fill="#FFFFFF" d="M424.4,110.5c0.7,6.3,1.3,12.1,2.1,17.9c0.5,3.6-0.7,5.4-4.5,5.7c-5.8,0.6-7.1,0.2-7.7-4.1
					c-2.4-18.8-4.6-37.7-7-56.5c-0.5-3.9,1-6,5.3-6.4c8.3-0.7,16.6-2.2,24.8-2.1c12.8,0.2,21.2,9,21.3,20.9
					c0.1,12.6-7.6,21.4-20.1,23C434.1,109.6,429.5,110,424.4,110.5z M420.9,77c0.9,7.9,1.7,15.2,2.6,22.8c4.7-0.5,9.3-0.7,13.7-1.6
					c6-1.2,9.3-6.3,8.7-12.5c-0.6-6.3-4.9-10.4-11.3-10.2C430.1,75.7,425.7,76.5,420.9,77z"/>
				<path fill="#FFFFFF" d="M572.7,96.4c0,6.3,0,11.9,0,17.9c1.3,0.1,2.5,0.3,3.7,0.3c6.7,0,13.4,0.1,20.2,0.2
					c5.6,0.1,6.6,1.3,6.2,6.7c-0.2,2.7-1.6,4-4.2,4c-11.2-0.2-22.5-0.3-33.7-0.1c-2.8,0-4-1.4-4.3-4c-0.1-0.8-0.1-1.6-0.1-2.5
					c-0.2-18-0.4-36.1-0.6-54.1c-0.1-6.2,0.8-7,7.2-7c9.8-0.1,19.6,0,29.3,0.1c5.1,0.1,6.1,1,6,5.4c-0.1,4.6-0.8,5.2-6.1,5.1
					c-7.7-0.1-15.3-0.2-23.3-0.1c0,5.9,0,11.6,0,17.8c5.9,0,11.9-0.1,17.9,0.1c4.7,0.1,6.1,1.7,5.6,6.2c-0.3,2.8-1.6,4.2-4.6,4.2
					C585.5,96.4,579.3,96.4,572.7,96.4z"/>
				<path fill="#FFFFFF" d="M722.3,134.4c-19.2-2.2-32.1-14.9-33.2-32.4c-1.2-18.9,10.5-34,29.4-36.7c11.3-1.6,21.7,1.1,30.8,7.7
					c3.9,2.8,4.1,4.5,1.4,7.9c-3.1,3.9-4.2,4-8.4,1.1c-8.7-6-18.3-8-28.1-3.4c-11.1,5.2-15.2,19.8-9.8,31.6
					c4.8,10.7,16.8,15.8,28.8,12.3c2.3-0.7,4.5-1.6,6.6-2.7c3.7-1.9,5.7-0.3,7.3,2.9c1.7,3.2,1.1,5.4-2.1,7.1
					C737.5,133.7,729.7,135.5,722.3,134.4z"/>
			</g>
		</g>
	</g>
</g>
</svg>
