<svg width="240" height="80" viewBox="0 0 240 80" fill="none" xmlns="http://www.w3.org/2000/svg">
<path fill-rule="evenodd" clip-rule="evenodd" d="M33.1404 22.0748C36.1891 22.0748 38.9555 23.3169 40.9315 25.2929C45.2223 29.5836 52.223 29.5836 56.5702 25.2929C60.861 21.0021 60.861 14.0014 56.5702 9.6542C50.5857 3.72618 42.2865 0 33.1404 0C14.8483 0 0 14.8483 0 33.1404C0 42.2865 3.72618 50.5857 9.71066 56.5702L33.1404 80L56.5702 56.5702C60.861 52.2795 60.861 45.2788 56.5702 40.9315C52.2795 36.6408 45.2788 36.6408 40.9315 40.9315L33.1404 48.7791L25.3493 40.9315C23.3733 38.9555 22.1313 36.1891 22.1313 33.1404C22.0748 27.043 27.043 22.0748 33.1404 22.0748ZM21.4537 44.8836L33.1968 56.6267L44.9399 44.8836C47.0853 42.7382 50.5856 42.7382 52.731 44.8836C54.8764 47.029 54.8764 50.5293 52.731 52.6747L33.1968 72.2089L13.6061 52.6747C8.63787 47.65 5.53271 40.7622 5.53271 33.1405C5.53271 17.897 17.8969 5.53284 33.1403 5.53284C40.7621 5.53284 47.6499 8.63799 52.6746 13.6062C54.8199 15.7516 54.8199 19.252 52.6746 21.3973C50.5292 23.5427 47.0288 23.5427 44.8835 21.3973C41.8912 18.4051 37.7134 16.542 33.1403 16.542C23.9943 16.542 16.5419 23.9379 16.5419 33.1405C16.5983 37.7135 18.405 41.8913 21.4537 44.8836Z" fill="#7350FF"/>
<path d="M182.244 4.62952C179.873 4.62952 177.953 6.49261 177.953 8.92027C177.953 11.2915 179.873 13.1546 182.244 13.1546C184.615 13.1546 186.535 11.2915 186.535 8.92027C186.478 6.54907 184.615 4.62952 182.244 4.62952Z" fill="#7350FF"/>
<path d="M179.139 48.8356H185.406V17.3889L179.139 17.9534V48.8356Z" fill="#7350FF"/>
<path d="M233.338 17.3889L224.305 38.1087L214.651 17.3889H202.117V14.6789C202.117 11.4609 203.641 10.1059 206.747 10.1059C207.706 10.1059 208.835 10.2752 209.965 10.5575L211.376 5.64575C209.513 5.02472 207.48 4.68597 205.222 4.68597C199.125 4.68597 195.85 8.58153 195.85 14.2837V17.4453L190.487 17.897V22.8652H195.85V48.892H202.117V22.8088H210.303L221.2 45.1659C220.296 47.1419 219.167 49.3437 217.417 50.6987C215.836 51.9407 213.86 52.0536 211.941 51.6585L210.473 56.7396C213.296 57.7558 216.852 57.6429 219.506 56.2315C222.385 54.6507 224.305 51.7149 225.603 48.7791L240 17.3324H233.338V17.3889Z" fill="#7350FF"/>
<path fill-rule="evenodd" clip-rule="evenodd" d="M148.596 20.4376C151.08 18.0099 154.467 16.542 158.306 16.542C167.17 16.5985 174.001 23.4863 174.001 33.1405C174.001 42.7947 167.17 49.6824 158.306 49.7389C154.467 49.7389 151.08 48.271 148.596 45.8434V48.892H142.724V6.04095L148.596 5.53284V20.4376ZM148.652 33.084C148.652 39.8588 153.056 44.0931 158.306 44.1496C163.557 44.1496 167.96 39.8588 167.96 33.084C167.96 26.3091 163.557 22.0748 158.306 22.0183C152.999 22.0748 148.652 26.3091 148.652 33.084Z" fill="#7350FF"/>
<path fill-rule="evenodd" clip-rule="evenodd" d="M121.044 16.542C124.884 16.542 128.271 18.0099 130.755 20.4375V17.897L136.627 17.3889V48.892H130.755V45.8433C128.271 48.271 124.884 49.7389 121.044 49.7389C112.124 49.6824 105.349 42.7946 105.349 33.1404C105.349 23.4862 112.181 16.5984 121.044 16.542ZM111.39 33.084C111.39 39.8588 115.794 44.0931 121.044 44.1496C126.295 44.1496 130.642 39.8588 130.699 33.084C130.699 26.3091 126.295 22.0748 121.044 22.0183C115.737 22.0748 111.39 26.3091 111.39 33.084Z" fill="#7350FF"/>
<path d="M89.6541 22.0748C93.098 22.1313 96.2032 24.1073 97.8969 27.2124L102.978 24.1073C100.268 19.4778 95.4128 16.542 89.6541 16.542C80.7339 16.5984 73.959 23.4862 73.959 33.1404C73.959 42.7946 80.7339 49.6824 89.6541 49.7389C95.4128 49.7389 100.268 46.8031 102.978 42.1736L97.8969 39.0685C96.2032 42.1736 93.098 44.2061 89.6541 44.2061C84.4036 44.1496 79.9999 39.9153 79.9999 33.1404C79.9999 26.3656 84.4036 22.1313 89.6541 22.0748Z" fill="#7350FF"/>
</svg>
