<?xml version="1.0" encoding="UTF-8"?>
<svg width="690px" height="225px" viewBox="0 0 690 225" version="1.1" xmlns="http://www.w3.org/2000/svg" xmlns:xlink="http://www.w3.org/1999/xlink">
    <!-- Generator: Sketch 51.1 (57501) - http://www.bohemiancoding.com/sketch -->
    <title>Artboard 5 Copy</title>
    <desc>Created with Sketch.</desc>
    <defs>
        <polygon id="path-1" points="0 101.671949 467.963658 101.671949 467.963658 0.0937400951 0 0.0937400951"></polygon>
    </defs>
    <g id="Artboard-5-Copy" stroke="none" stroke-width="1" fill="none" fill-rule="evenodd">
        <rect id="Rectangle-5-Copy" fill="#FFFFFF" fill-rule="nonzero" x="0" y="0" width="690" height="225"></rect>
        <g id="logo-copy-3" transform="translate(72.000000, 54.000000)">
            <g id="Group">
                <g id="Group-28" transform="translate(39.000000, 7.800000)">
                    <polygon id="Fill-1" fill="#143A7C" points="168.939174 57.7163534 168.939174 22.6503471 159.683009 22.6503471 159.683009 36.2844834 145.069691 36.2844834 145.069691 22.6503471 135.812042 22.6503471 135.812042 57.7163534 145.069691 57.7163534 145.069691 43.802439 159.683009 43.802439 159.683009 57.7163534"></polygon>
                    <g id="Group-27" transform="translate(0.000000, 0.627338)">
                        <path d="M192.343031,49.3550975 C191.411481,50.6595269 190.014156,51.3113811 188.151056,51.3113811 C186.287956,51.3113811 184.880248,50.6681799 183.930156,49.3832195 C182.978581,48.097538 182.503906,46.3366664 182.503906,44.1006046 C182.503906,41.8652639 182.969681,40.0870864 183.90123,38.7639089 C184.83278,37.4414525 186.230105,36.7795032 188.092463,36.7795032 C189.956305,36.7795032 191.36253,37.4414525 192.313364,38.7639089 C193.264197,40.0870864 193.740356,41.8472369 193.740356,44.0450816 C193.740356,46.2804223 193.274581,48.0499469 192.343031,49.3550975 M198.5724,33.7769358 C197.291519,32.599416 195.77775,31.7016743 194.031094,31.0844319 C192.284438,30.4671894 190.382029,30.1585681 188.325351,30.1585681 C186.267931,30.1585681 184.34698,30.4671894 182.561757,31.0844319 C180.776533,31.7016743 179.214555,32.60879 177.875823,33.8050578 C176.536349,35.0027678 175.488356,36.4701609 174.7311,38.2094002 C173.974587,39.9486395 173.59633,41.9229501 173.59633,44.1287266 C173.59633,46.3366664 173.964945,48.3008819 174.702175,50.0199311 C175.438663,51.7418645 176.448831,53.1897884 177.729712,54.3687504 C179.010593,55.5469913 180.534004,56.435359 182.299944,57.0338534 C184.065883,57.6316268 185.957909,57.9315951 187.976761,57.9315951 C189.994131,57.9315951 191.895798,57.6128788 193.682505,56.9768883 C195.466245,56.3408978 197.019322,55.4258502 198.339513,54.2281403 C199.658219,53.0311513 200.706213,51.5630372 201.483494,49.8237979 C202.259291,48.0845586 202.647931,46.1304382 202.647931,43.9614366 C202.647931,41.7542179 202.288216,39.8000975 201.57027,38.096912 C200.852324,36.3958899 199.853281,34.9558978 198.5724,33.7769358" id="Fill-2" fill="#143A7C"></path>
                        <path d="M208.527079,48.4491355 C208.371326,51.8533431 209.158248,54.2840959 210.885621,55.7435571 C212.61151,57.2022971 215.144347,57.9313067 218.482648,57.9313067 C219.840664,57.9313067 221.015485,57.8469406 222.004886,57.6789295 C222.995028,57.5101973 224.014096,57.2765681 225.061348,56.9773209 L224.014096,50.2446189 C223.392569,50.4328201 222.781424,50.5914572 222.17918,50.7212512 C221.577678,50.8539295 221.005843,50.9173843 220.462191,50.9173843 C219.336321,50.9173843 218.443339,50.6469802 217.783985,50.1040087 C217.12389,49.5624794 216.83241,48.6928597 216.911028,47.4951498 L217.201767,38.1254667 L224.421279,38.1254667 L224.595573,31.3372417 L217.842578,31.3372417 L217.900429,25.109294 L209.225741,25.109294 L209.109298,31.0560214 L205.034508,31.0560214 L204.859472,38.518454 L208.935003,38.518454 L208.527079,48.4491355 Z" id="Fill-4" fill="#143A7C"></path>
                        <path d="M238.219268,37.7611062 C239.111509,36.6578574 240.334539,36.106233 241.886875,36.106233 C243.2842,36.106233 244.32181,36.5460903 245.001931,37.4243629 C245.680568,38.3033566 246.020257,39.5284675 246.020257,41.0996957 L246.020257,41.603729 L236.646907,41.6606941 C236.801918,40.164458 237.326286,38.864355 238.219268,37.7611062 M236.7055,56.9771046 C238.5686,57.575599 240.644562,57.8748463 242.934869,57.8748463 C244.914413,57.8748463 246.825722,57.6873661 248.669538,57.3145689 C250.512612,56.9410507 252.113899,56.4168273 253.471915,55.7433407 L252.5997,49.0661616 C251.240942,49.8146403 249.794666,50.4225087 248.261614,50.889767 C246.728562,51.3577464 245.224435,51.5913756 243.749975,51.5913756 C241.538286,51.5913756 239.829455,51.1147433 238.626451,50.1600365 C237.423446,49.2067718 236.744067,47.8518669 236.589056,46.0931585 L236.589056,45.9806704 L253.763395,45.7001712 C253.957715,45.1384517 254.103085,44.4094422 254.200245,43.5124216 C254.296663,42.6139588 254.346356,41.8106783 254.346356,41.0996957 C254.346356,37.8447512 253.327287,35.2084913 251.289151,33.1880317 C249.251757,31.1682932 246.311738,30.1587845 242.469094,30.1587845 C240.334539,30.1587845 238.364638,30.4948067 236.560131,31.1682932 C234.755623,31.8417797 233.202546,32.7863914 231.902381,34.0021284 C230.602216,35.2178653 229.593532,36.6946323 228.875585,38.4345927 C228.156898,40.173832 227.797925,42.1092044 227.797925,44.2414311 C227.797925,46.4104326 228.156898,48.3465261 228.875585,50.0489905 C229.593532,51.7507338 230.611858,53.1813518 231.932048,54.3408447 C233.250755,55.5003376 234.8424,56.3800523 236.7055,56.9771046" id="Fill-6" fill="#143A7C"></path>
                        <mask id="mask-2" fill="white">
                            <use xlink:href="#path-1"></use>
                        </mask>
                        <g id="Clip-9"></g>
                        <polygon id="Fill-8" fill="#143A7C" mask="url(#mask-2)" points="259.410694 57.0891601 268.434713 57.0891601 268.434713 21.8890333 259.410694 21.8890333"></polygon>
                        <path d="M289.713064,54.4244176 C291.129672,55.6033796 292.817736,56.4823732 294.777996,57.0613986 C296.738255,57.641145 298.901736,57.9310182 301.269178,57.9310182 C303.714496,57.9310182 305.926927,57.6231181 307.906471,57.0058756 C309.886015,56.3886331 311.57482,55.4447425 312.971403,54.1720404 C314.368728,52.9015016 315.445647,51.3201783 316.203644,49.4309548 C316.959416,47.5431735 317.338414,45.3265808 317.338414,42.7826189 L317.338414,22.0227932 L308.139358,22.0227932 L308.139358,42.7263748 C308.139358,45.457817 307.586807,47.4205903 306.479479,48.6175792 C305.374376,49.8145681 303.714496,50.4130626 301.502807,50.4130626 C299.05823,50.4130626 297.271523,49.7395761 296.146395,48.3933241 C295.020525,47.0470721 294.458332,45.0460816 294.458332,42.3896315 L294.458332,22.0227932 L285.259276,22.0227932 L285.259276,43.5678724 C285.259276,46.0361212 285.647175,48.1690689 286.423713,49.9638312 C287.199511,51.7600357 288.295713,53.2461767 289.713064,54.4244176" id="Fill-10" fill="#143A7C" mask="url(#mask-2)"></path>
                        <path d="M362.257959,49.4307385 C361.22109,50.7589635 359.744406,51.4230761 357.826422,51.4230761 C356.214751,51.4230761 354.853027,51.0683059 353.740507,50.3566022 L353.740507,38.8546926 C354.353876,38.3319113 355.005813,37.9014279 355.697059,37.5646846 C356.387563,37.2279414 357.231594,37.0599303 358.229154,37.0599303 C360.071487,37.0599303 361.462136,37.6865468 362.401103,38.9390586 C363.341553,40.1930127 363.81252,41.9409049 363.81252,44.1848986 C363.81252,46.3553423 363.293344,48.1039556 362.257959,49.4307385 M369.575372,33.8338288 C368.566688,32.655588 367.354041,31.7491933 365.937433,31.1117607 C364.520824,30.4764913 362.977388,30.158496 361.30935,30.158496 C359.561952,30.158496 358.068209,30.5327353 356.825895,31.2812139 C355.583582,32.0296926 354.535588,32.8329731 353.681173,33.6924976 L353.740507,21.8891775 L344.716488,21.8891775 L344.716488,57.931523 L353.157547,56.8088051 C354.050529,57.1080523 355.069597,57.3604295 356.214751,57.5666577 C357.359163,57.7714437 358.378231,57.8752789 359.271214,57.8752789 C361.095746,57.8752789 362.831277,57.5471886 364.481515,56.8931712 C366.131011,56.2391537 367.576545,55.294542 368.819601,54.0600571 C370.060431,52.8255721 371.040932,51.3394311 371.758878,49.5987496 C372.476082,47.8602314 372.836539,45.9061109 372.836539,43.7363883 C372.836539,41.6416577 372.545059,39.7618082 371.96284,38.0968399 C371.380621,36.4340349 370.584799,35.0120697 369.575372,33.8338288" id="Fill-11" fill="#143A7C" mask="url(#mask-2)"></path>
                        <path d="M392.280715,50.4690903 C391.81494,50.9933138 391.222338,51.4144231 390.504392,51.7316973 C389.786446,52.0496926 388.981723,52.2083296 388.08874,52.2083296 C387.079314,52.2083296 386.264208,51.9566735 385.643422,51.450477 C385.022636,50.9457227 384.712614,50.2635832 384.712614,49.4033376 C384.712614,48.2438447 385.274065,47.374225 386.399935,46.7937575 C387.525805,46.2147322 389.517958,45.6234485 392.280715,46.4137496 L392.280715,50.4690903 Z M401.18829,49.2908494 L401.246141,41.5479176 C401.284709,39.7156593 401.100772,38.0968399 400.69359,36.695065 C400.285666,35.2925689 399.595904,34.1056751 398.626528,33.1322203 C397.655669,32.1594865 396.37553,31.421103 394.783885,30.9163487 C393.19224,30.4108732 391.232721,30.158496 388.903847,30.158496 C386.342084,30.158496 383.985026,30.4865864 381.829704,31.1398827 C379.675866,31.7946212 377.880259,32.4962298 376.444366,33.2447084 L378.308208,39.5844231 C379.899111,38.8373867 381.480373,38.2100491 383.052734,37.7052948 C384.624354,37.1998193 386.109197,36.9474422 387.506522,36.9474422 C389.175301,36.9474422 390.38869,37.2654374 391.145203,37.9014279 C391.902458,38.5381395 392.280715,39.5476482 392.280715,40.9313962 L392.280715,42.8033138 C389.285812,42.0130127 386.709958,41.8103899 384.654021,42.3331712 C382.595118,42.8581157 380.947105,43.5316022 379.704791,44.3529097 C378.462477,45.1771014 377.58062,46.1303661 377.056252,47.2148669 C376.532626,48.3008098 376.270072,49.4588605 376.270072,50.6933455 C376.270072,51.7035753 376.482934,52.648187 376.910141,53.5271807 C377.337349,54.4061743 377.919568,55.173401 378.656797,55.8281395 C379.394027,56.482878 380.267726,56.9970063 381.277152,57.3698035 C382.285095,57.7440428 383.372398,57.931523 384.537577,57.931523 C386.399935,57.931523 387.923346,57.5385357 389.107809,56.7532821 C390.290788,55.9673074 391.367707,55.0335119 392.338566,53.9475689 L392.512861,53.9475689 C393.133647,55.3695341 394.22095,56.4266339 395.774027,57.1181474 C397.325622,57.8089398 399.57662,57.9675769 402.527023,57.5947797 L403.39998,51.4230761 C402.46843,51.3488051 401.866927,51.1988209 401.596214,50.9738447 C401.323276,50.7495895 401.18829,50.1885911 401.18829,49.2908494 Z" id="Fill-12" fill="#143A7C" mask="url(#mask-2)"></path>
                        <path d="M425.464437,30.1588566 C423.728164,30.1588566 422.089793,30.5792448 420.546358,31.4214635 C419.003663,32.2629612 417.636006,33.338088 416.440418,34.6468439 L416.49901,30.3823906 L407.474991,30.3823906 L407.474991,57.0889437 L416.49901,57.0889437 L416.49901,39.4730166 C417.073071,38.9487932 417.771733,38.4901878 418.594998,38.0972005 C419.419004,37.7049342 420.328304,37.5088011 421.323638,37.5088011 C422.510326,37.5088011 423.439651,37.8080483 424.110129,38.4065428 C424.779866,39.0050372 425.115106,40.089538 425.115106,41.6607662 L425.115106,57.0889437 L434.138383,57.0889437 L434.138383,39.1355523 C434.138383,36.3305602 433.376678,34.1334366 431.853267,32.5434604 C430.329115,30.9534842 428.199752,30.1588566 425.464437,30.1588566" id="Fill-13" fill="#143A7C" mask="url(#mask-2)"></path>
                        <path d="M457.659425,49.3550975 C456.727133,50.6595269 455.329809,51.3113811 453.46745,51.3113811 C451.603609,51.3113811 450.196642,50.6681799 449.24655,49.3832195 C448.294233,48.097538 447.8203,46.3366664 447.8203,44.1006046 C447.8203,41.8652639 448.285333,40.0870864 449.217625,38.7639089 C450.149175,37.4414525 451.5465,36.7795032 453.410341,36.7795032 C455.271958,36.7795032 456.678924,37.4414525 457.6305,38.7639089 C458.580591,40.0870864 459.056008,41.8472369 459.056008,44.0450816 C459.056008,46.2804223 458.590233,48.0499469 457.659425,49.3550975 M466.886664,38.096912 C466.168718,36.3958899 465.168934,34.9558978 463.888053,33.7769358 C462.607913,32.599416 461.094145,31.7016743 459.347488,31.0844319 C457.600832,30.4671894 455.699165,30.1585681 453.641745,30.1585681 C451.585067,30.1585681 449.663374,30.4671894 447.878151,31.0844319 C446.092927,31.7016743 444.53095,32.60879 443.191476,33.8050578 C441.852744,35.0027678 440.80475,36.4701609 440.047495,38.2094002 C439.290981,39.9486395 438.912725,41.9229501 438.912725,44.1287266 C438.912725,46.3366664 439.281339,48.3008819 440.019311,50.0199311 C440.755057,51.7418645 441.765225,53.1897884 443.046106,54.3687504 C444.326988,55.5469913 445.849656,56.435359 447.616338,57.0338534 C449.382278,57.6316268 451.274303,57.9315951 453.292414,57.9315951 C455.310525,57.9315951 457.212192,57.6128788 458.998157,56.9768883 C460.783381,56.3408978 462.335717,55.4258502 463.655907,54.2281403 C464.974614,53.0311513 466.022607,51.5630372 466.799888,49.8237979 C467.575685,48.0845586 467.964325,46.1304382 467.964325,43.9614366 C467.964325,41.7542179 467.60461,39.8000975 466.886664,38.096912" id="Fill-14" fill="#143A7C" mask="url(#mask-2)"></path>
                        <path d="M331.310847,34.1983336 L331.310847,30.3823906 L322.286828,30.3823906 L322.286828,57.0889437 L331.310847,57.0889437 L331.310847,41.8850214 C333.305224,37.5030325 339.247563,38.1700293 340.465402,38.3704889 L340.465402,30.5302116 C339.605795,30.2922559 338.729129,30.1588566 337.830955,30.1588566 C335.074872,30.1588566 332.90175,31.5051086 331.310847,34.1983336" id="Fill-15" fill="#143A7C" mask="url(#mask-2)"></path>
                        <path d="M104.124808,30.3813811 C99.5523518,30.3813811 95.7964849,31.0108819 95.9603962,34.3155808 C97.2664945,65.9478154 87.1418225,86.8785365 55.9512171,86.8785365 C25.0869509,86.8785365 14.9622789,66.4201212 15.942038,34.3155808 C16.1052076,31.0108819 12.3493407,30.3813811 7.77688431,30.3813811 C2.87808875,30.3813811 0.101980983,31.3252718 0.101980983,34.3155808 C-1.5311981,74.6036315 16.4322884,101.672166 55.9512171,101.672166 C95.1438067,101.672166 113.433632,75.0759374 111.800453,34.3155808 C111.800453,31.3252718 109.024345,30.3813811 104.124808,30.3813811" id="Fill-16" fill="#143A7C" mask="url(#mask-2)"></path>
                        <path d="M31.0559163,26.8625943 L31.2220526,50.2146941 C31.2220526,53.5727528 34.7072063,54.5317861 38.6900273,54.373149 C43.8358022,54.2130697 46.9886834,53.0932361 46.6571525,49.7344564 C46.1127594,44.1396149 45.6128672,38.7784025 45.2212602,33.4193534 C48.3185154,33.313355 51.5574314,33.2599952 55.9511429,33.2599952 C60.4353395,33.2599952 63.5429781,33.4907401 66.4963474,33.675336 C66.1069655,38.9492979 65.6152317,44.2290285 65.0797388,49.7344564 C64.7474662,53.0932361 67.9010891,54.2130697 73.0453807,54.373149 C77.0289433,54.5317861 80.514097,53.5727528 80.514097,50.2146941 L80.6802333,26.8625943 C81.1779005,17.425851 82.0078403,12.6278003 83.0031746,5.26992393 C83.3354472,2.07122345 80.6802333,0.471873217 75.3690637,0.152435816 C70.8878339,-0.167722662 67.2365439,0.792031696 67.2365439,4.15081141 C67.4227055,10.3506371 67.3767214,16.1279113 67.1705344,21.7321268 C59.2397515,22.0998764 51.9468133,22.1042029 44.5648735,21.6989572 C44.3586865,16.1048368 44.3141857,10.3383788 44.4996057,4.15081141 C44.4996057,0.792031696 40.8483157,-0.167722662 36.3670859,0.152435816 C31.0559163,0.471873217 28.4007024,2.07122345 28.732975,5.26992393 C29.7283094,12.6278003 30.5582491,17.425851 31.0559163,26.8625943" id="Fill-17" fill="#143A7C" mask="url(#mask-2)"></path>
                        <path d="M230.116861,94.2125452 C228.96429,94.2125452 228.040157,94.5319826 227.34372,95.1701363 C226.646541,95.8090111 226.298693,96.6743043 226.298693,97.7689002 C226.298693,98.8368162 226.646541,99.6977829 227.34372,100.348195 C228.040157,100.999328 228.96429,101.325255 230.116861,101.325255 C231.242731,101.325255 232.153514,100.999328 232.850693,100.348195 C233.54713,99.6977829 233.89572,98.8368162 233.89572,97.7689002 C233.89572,96.6743043 233.54713,95.8090111 232.850693,95.1701363 C232.153514,94.5319826 231.242731,94.2125452 230.116861,94.2125452" id="Fill-18" fill="#BBC933" mask="url(#mask-2)"></path>
                        <path d="M248.647584,86.5912591 C249.477524,86.5912591 250.322297,86.7261006 251.179679,86.9936204 C252.037061,87.2618613 252.841042,87.6094208 253.591622,88.0377409 L254.797594,83.5050468 C253.93947,83.0356252 252.921144,82.6642702 251.741873,82.3909818 C250.562602,82.1169723 249.315838,81.9806886 248.004548,81.9806886 C246.449245,81.9806886 245.036345,82.2092702 243.763622,82.6642702 C242.490158,83.1207124 241.404339,83.7725666 240.507648,84.6191117 C239.609473,85.4656569 238.919711,86.4939136 238.436877,87.7060452 C237.955527,88.9174556 237.714481,90.2781292 237.714481,91.7887868 C237.714481,93.3268455 237.947369,94.6889612 238.417594,95.8729707 C238.885594,97.0598645 239.562747,98.0556727 240.44683,98.8632797 C241.330912,99.6716078 242.395965,100.283082 243.642728,100.699143 C244.889492,101.116647 246.289042,101.32576 247.843603,101.32576 C249.210519,101.32576 250.49585,101.194524 251.702564,100.934936 C252.907793,100.673185 253.899419,100.308319 254.6767,99.8403399 L253.752567,95.2672655 C253.029429,95.7114493 252.258082,96.0489136 251.441492,96.2832639 C250.622678,96.5183352 249.74527,96.6358708 248.807787,96.6358708 C247.36077,96.6358708 246.201524,96.2039453 245.330792,95.3408154 C244.46006,94.4776854 244.024694,93.2215681 244.024694,91.5739057 C244.024694,90.0834382 244.419267,88.8799596 245.21064,87.964912 C246.000529,87.0498645 247.146424,86.5912591 248.647584,86.5912591" id="Fill-19" fill="#BBC933" mask="url(#mask-2)"></path>
                        <path d="M272.168478,95.3511989 C271.526183,96.2597567 270.559774,96.7133146 269.275185,96.7133146 C267.987629,96.7133146 267.01677,96.2662464 266.360383,95.370668 C265.703255,94.4758106 265.375432,93.2485365 265.375432,91.6924509 C265.375432,90.1356442 265.696579,88.8961117 266.339616,87.9745745 C266.983394,87.0530372 267.948319,86.5915475 269.233651,86.5915475 C270.520465,86.5915475 271.492066,87.0530372 272.148453,87.9745745 C272.804098,88.8961117 273.133403,90.1219437 273.133403,91.6527916 C273.133403,93.2103193 272.811514,94.442641 272.168478,95.3511989 M276.46948,84.5004223 C275.584655,83.679836 274.539629,83.0553827 273.333657,82.6263415 C272.127686,82.1951371 270.814912,81.980977 269.395337,81.980977 C267.97502,81.980977 266.648155,82.1951371 265.415483,82.6263415 C264.182069,83.0553827 263.104408,83.6870468 262.178792,84.5206125 C261.254659,85.3548994 260.531521,86.3773875 260.009378,87.5880769 C259.486494,88.7994873 259.225423,90.1738613 259.225423,91.7111989 C259.225423,93.2485365 259.479819,94.6156997 259.988611,95.8148518 C260.498145,97.0132829 261.194583,98.0227916 262.079407,98.843378 C262.963489,99.6646854 264.015191,100.28337 265.234513,100.699432 C266.453835,101.116215 267.759933,101.325327 269.154291,101.325327 C270.546424,101.325327 271.859939,101.103956 273.093353,100.660494 C274.325283,100.217752 275.39701,99.5788772 276.308535,98.7460325 C277.22006,97.9124667 277.943197,96.8892575 278.480174,95.677126 C279.014925,94.4664366 279.283413,93.1057631 279.283413,91.5943843 C279.283413,90.0570468 279.035692,88.6963732 278.54025,87.5102005 C278.043324,86.3247488 277.354304,85.3217298 276.46948,84.5004223" id="Fill-20" fill="#BBC933" mask="url(#mask-2)"></path>
                        <path d="M307.41852,81.980977 C306.132447,81.980977 304.945759,82.2730135 303.85994,82.8599707 C302.77412,83.4454857 301.803261,84.2343447 300.945138,85.2243843 C300.487521,84.1564683 299.789601,83.3481403 298.848409,82.8015634 C297.9087,82.2542655 296.847357,81.980977 295.665119,81.980977 C294.42948,81.980977 293.334761,82.221817 292.381702,82.7027758 C291.42716,83.1858978 290.534919,83.8427995 289.701271,84.6763653 L289.733163,82.1367298 L283.503794,82.8794398 L283.503794,100.739091 L289.733163,100.739091 L289.733163,88.1937821 C290.106228,87.8815555 290.545303,87.6212464 291.050387,87.4121339 C291.554729,87.2037425 292.113956,87.0999073 292.725842,87.0999073 C293.497189,87.0999073 294.11575,87.3140674 294.582266,87.7445507 C295.048041,88.174313 295.280187,88.9364921 295.280187,90.0303669 L295.280187,100.739091 L301.51104,100.739091 L301.51104,89.3273162 L301.51104,88.2731006 C301.883363,87.9594319 302.323179,87.6854223 302.828263,87.4517932 C303.333347,87.2174429 303.891832,87.0999073 304.503718,87.0999073 C305.275065,87.0999073 305.887693,87.3140674 306.340117,87.7445507 C306.792542,88.174313 307.018754,88.9364921 307.018754,90.0303669 L307.018754,100.739091 L313.248865,100.739091 L313.248865,88.2731006 C313.248865,86.3189802 312.732656,84.7816426 311.700238,83.6603669 C310.667819,82.5405333 309.240827,81.980977 307.41852,81.980977" id="Fill-21" fill="#BBC933" mask="url(#mask-2)"></path>
                        <path d="M148.839946,81.1007575 C147.559807,81.1007575 146.362735,81.4007258 145.249474,81.9999414 C144.135471,82.5991569 143.147553,83.3757575 142.284238,84.3290222 L142.322805,73.769561 L135.812339,73.769561 L135.812339,100.711906 L142.326513,100.711906 L142.326513,87.8832139 C142.740371,87.5017639 143.25213,87.1679049 143.861049,86.8823582 C144.467743,86.5960903 145.14638,86.4525959 145.89251,86.4525959 C146.693525,86.4525959 147.336561,86.6718035 147.820878,87.1066133 C148.303712,87.5428653 148.545499,88.3324453 148.545499,89.4760745 L148.545499,100.711906 L155.059674,100.711906 L155.059674,87.6380475 C155.059674,85.5952345 154.509347,83.9951632 153.409436,82.8371125 C152.309525,81.6797829 150.786856,81.1007575 148.839946,81.1007575" id="Fill-22" fill="#BBC933" mask="url(#mask-2)"></path>
                        <path d="M135.812339,100.71991 L142.243445,100.71991 L142.243445,88.0549025 C142.652111,87.6785 143.157195,87.3489675 143.757956,87.0663051 C144.357233,86.7843637 145.02697,86.6423114 145.7642,86.6423114 C146.55483,86.6423114 147.189708,86.8579136 147.66735,87.288397 C148.14425,87.7188803 148.383813,88.4983653 148.383813,89.6275729 L148.383813,100.71991 L154.814177,100.71991 L154.814177,87.8126204 C154.814177,85.7964873 154.271268,84.2158851 153.184707,83.0722559 C152.098887,81.9300689 150.595502,81.3589754 148.67381,81.3589754 C147.409987,81.3589754 146.22775,81.6538962 145.129322,82.245901 C144.02941,82.8379057 143.05336,83.6044113 142.201911,84.5454176 L142.240479,74.1207979 L135.812339,74.1207979 L135.812339,100.71991 Z" id="Fill-23" fill="#BBC933" mask="url(#mask-2)"></path>
                        <path d="M172.979698,94.8308693 C172.597732,95.181313 172.134183,95.4769548 171.588306,95.7185158 C171.04243,95.9600769 170.429061,96.0804968 169.748198,96.0804968 C168.930126,96.0804968 168.288572,95.8598471 167.825023,95.4163843 C167.360731,94.9722005 167.129327,94.1855048 167.129327,93.0555761 L167.129327,81.9639596 L160.698962,81.9639596 L160.698962,94.8712496 C160.698962,96.8881038 161.229263,98.4679849 162.290607,99.610893 C163.35121,100.75308 164.833828,101.325616 166.736236,101.325616 C168.004509,101.325616 169.175622,101.035742 170.250316,100.45888 C171.32501,99.879855 172.235051,99.2013209 172.979698,98.421836 L172.979698,100.71991 L179.410062,100.71991 L179.410062,81.9639596 L172.979698,81.9639596 L172.979698,94.8308693 Z" id="Fill-24" fill="#BBC933" mask="url(#mask-2)"></path>
                        <path d="M214.76609,95.2146268 C214.028119,96.1686125 212.975675,96.6459659 211.608759,96.6459659 C210.459897,96.6459659 209.489038,96.3914255 208.696924,95.8794604 L208.696924,87.6108629 C209.133773,87.2344604 209.598065,86.9251181 210.09054,86.682836 C210.583016,86.441275 211.184518,86.3201339 211.895789,86.3201339 C213.207821,86.3201339 214.198705,86.7708074 214.869184,87.6714334 C215.53892,88.5727805 215.87416,89.8288978 215.87416,91.4426696 C215.87416,93.0023605 215.504803,94.25992 214.76609,95.2146268 M221.682255,87.0664493 C221.267656,85.8701815 220.700271,84.8476933 219.981583,84.0011482 C219.261412,83.1538819 218.398096,82.5020277 217.38867,82.0441434 C216.378502,81.5877013 215.278591,81.3591197 214.089678,81.3591197 C212.845139,81.3591197 211.780087,81.6273605 210.896004,82.1652845 C210.009697,82.7039295 209.263567,83.2815127 208.654648,83.9001973 L208.693215,74.1209422 L202.265817,74.1209422 L202.265817,101.32576 L208.281583,100.518153 C208.917944,100.733034 209.644049,100.914746 210.459897,101.062567 C211.275003,101.209666 212.001849,101.28538 212.63821,101.28538 C213.937634,101.28538 215.175497,101.048866 216.35106,100.578723 C217.526623,100.10786 218.556816,99.4293257 219.442382,98.5416791 C220.327206,97.6547536 221.025126,96.5853954 221.537627,95.3350468 C222.048645,94.0854192 222.305266,92.6800388 222.305266,91.1203479 C222.305266,89.6140166 222.097596,88.2634382 221.682255,87.0664493" id="Fill-25" fill="#BBC933" mask="url(#mask-2)"></path>
                        <path d="M197.433328,82.0274865 C196.862235,81.8609176 196.280758,81.7664564 195.684447,81.7664564 C193.853981,81.7664564 192.411414,82.7139525 191.355261,84.6096656 L191.355261,81.9243724 L185.363971,81.9243724 L185.363971,100.719983 L191.355261,100.719983 L191.355261,90.0184691 C192.67916,86.935141 196.624897,87.4045626 197.433328,87.5458938 L197.433328,82.0274865 Z" id="Fill-26" fill="#BBC933" mask="url(#mask-2)"></path>
                    </g>
                </g>
            </g>
        </g>
    </g>
</svg>