<?xml version="1.0" encoding="utf-8"?>
<!-- Generator: Adobe Illustrator 23.0.1, SVG Export Plug-In . SVG Version: 6.00 Build 0)  -->
<svg version="1.1" id="Layer_1" xmlns="http://www.w3.org/2000/svg" xmlns:xlink="http://www.w3.org/1999/xlink" x="0px" y="0px"
	 viewBox="0 0 1474.02 453.54" style="enable-background:new 0 0 1474.02 453.54;" xml:space="preserve">
<style type="text/css">
	.st0{fill:#EE9122;}
	.st1{fill-rule:evenodd;clip-rule:evenodd;fill:#EE9122;}
</style>
<g>
	<path class="st0" d="M1072.73,121.16c-34.54,0-64.9,17.99-82.38,45.05c-17.48-27.06-47.84-45.05-82.38-45.05
		c-54.08,0-98.07,43.99-98.07,98.07v82.38c0,8.67,7.03,15.69,15.69,15.69s15.69-7.03,15.69-15.69v-82.38
		c0-36.77,29.92-66.69,66.69-66.69c36.77,0,66.69,29.92,66.69,66.69v82.38c0,8.67,7.03,15.69,15.69,15.69
		c8.67,0,15.69-7.03,15.69-15.69v-82.38c0-36.77,29.92-66.69,66.69-66.69c36.77,0,66.69,29.92,66.69,66.69v82.38
		c0,8.67,7.03,15.69,15.69,15.69c8.67,0,15.69-7.03,15.69-15.69v-82.38C1170.81,165.16,1126.81,121.16,1072.73,121.16z"/>
	<path class="st0" d="M607.2,80.58c0-8.24,7.49-15.34,16.08-15.34c7.86,0,15.72,7.48,15.72,15.34c0,8.6-7.48,16.08-15.72,16.08
		C614.31,96.66,607.2,89.55,607.2,80.58z M607.2,136.38c0-8.24,7.49-15.35,16.08-15.35c7.86,0,15.72,7.11,15.72,15.35v165.01
		c0,8.24-7.86,15.34-15.72,15.34c-8.59,0-16.08-7.1-16.08-15.34V136.38z"/>
	<path class="st0" d="M721.23,317.4c-29.06,0-59.26-17.2-59.26-33.24c0-8.42,6.12-15.3,15.3-15.3c14.15,0,22.18,16.82,47.78,16.82
		c19.5,0,27.53-10.32,27.53-20.26c0-9.56-8.42-20.64-29.45-30.97L699.81,223c-26.75-13.01-36.31-31.36-36.31-51.23
		c0-26.38,24.47-50.84,61.16-50.84c24.08,0,43.95,11.47,50.84,19.13c4.96,5.34,5.73,9.56,5.73,13.37c0,6.12-6.12,13.38-15.67,13.38
		c-14.52,0-19.5-13.76-42.44-13.76c-17.57,0-24.84,9.56-24.84,18.35c0,9.93,5.35,17.59,24.08,27.14l27.9,14.52
		c27.9,14.52,35.56,33.26,35.56,52.37C785.83,292.18,764.04,317.4,721.23,317.4z"/>
	<path class="st0" d="M1293.34,120.92c53.96,0,97.67,43.71,97.67,97.67c0,54.72-43.71,98.41-97.67,98.41
		c-54.72,0-98.43-43.69-98.43-98.41C1194.92,164.62,1238.62,120.92,1293.34,120.92z M1293.34,284.32
		c36.48,0,65.36-28.88,65.36-65.74c0-36.48-28.88-65.36-65.36-65.36c-36.87,0-65.74,28.88-65.74,65.36
		C1227.6,255.44,1256.47,284.32,1293.34,284.32z"/>
	<path class="st0" d="M484.56,121.16c-54.16,0-98.07,43.91-98.07,98.07c0,0.88-0.02,1.74,0,2.61c-0.04,0.44,0,4.76,0,5.21v145.17
		c0,8.67,7.03,15.69,15.69,15.69s15.69-7.03,15.69-15.69V291c17.51,16.28,40.9,26.31,66.69,26.31c54.16,0,98.07-43.91,98.07-98.07
		S538.72,121.16,484.56,121.16z M484.56,285.92c-36.77,0-66.69-29.92-66.69-66.69c0-36.77,29.92-66.69,66.69-66.69
		c36.77,0,66.69,29.92,66.69,66.69C551.24,256.01,521.33,285.92,484.56,285.92z"/>
	<g>
		<path class="st1" d="M134.09,222.17c-16.03-11.5-34.06-8.99-41.86,3.89c-28.3,46.75,12.05,98.99,72.85,109.58
			C147.85,311.86,165.44,244.64,134.09,222.17z"/>
		<path class="st1" d="M327.31,204.47c-3.56,37.84-59.43,92.72-31.74,118.06c-37.76,16.48-122.54-35.71-132.99,22.16
			c-1.83,10.11,3.83,22,10.72,28.02c45.93,40.16,111.87-4.8,122.44-50.02c2.9,2.61,6.7,4.9,11.55,6.82
			c20.41,8.1,42.26-12.91,50.78-33.9C372.32,260.46,346.9,226.13,327.31,204.47z"/>
		<path class="st1" d="M314.15,206.86c19.72-0.54,32.56-13.45,30.97-28.42c-5.75-54.35-69.49-71.53-124.31-43.17
			C248.94,143.77,275.6,207.94,314.15,206.86z"/>
		<path class="st1" d="M221.35,136.82c-9.61-19.74-39.91-18.97-60.35-9.21c-34.24,16.35-38.61,58.84-38.75,88.05
			C153.37,187.42,245.74,186.91,221.35,136.82z"/>
	</g>
</g>
</svg>
